<?xml version="1.0" encoding="utf-8"?>
<!-- Generator: Adobe Illustrator 21.1.0, SVG Export Plug-In . SVG Version: 6.00 Build 0)  -->
<svg version="1.1" id="Layer_1" xmlns="http://www.w3.org/2000/svg" xmlns:xlink="http://www.w3.org/1999/xlink" x="0px" y="0px"
	 viewBox="0 0 287.7 139.2" style="enable-background:new 0 0 287.7 139.2;" xml:space="preserve">
<style type="text/css">
	.st0{fill:#C0DEC1;}
	.st1{fill:#FFFFFF;}
</style>
<g>
	<path class="st0" d="M85.2,121.1c-0.5,3.4-1.2,6.4-2.2,8.9c-2.3,5.7-5.5,8.5-9.6,8.5c-2.3,0-4-1-5.3-2.9c-1.2-1.7-1.8-3.7-1.8-6
		c0-7.6,5.2-15.1,15.5-22.6l0.3-6.7c-3.9,5.1-7.1,7.6-9.9,7.6c-2.3,0-4.2-1.1-5.6-3.4c-1.1-1.9-1.7-4.1-1.7-6.6c0-6,1.9-11.6,5.8-17
		c3.9-5.4,7.9-8.1,12.1-8.1c1.2,0,2.2,0.3,3.1,1c0.9,0.6,1.5,1.5,1.9,2.6c0.4,1.1,0.7,2.2,1,3.2c0.2,0.5,0.5,0.9,1,1.4
		c0.5,0.5,0.7,1,0.7,1.4c0,0.2,0,0.5-0.1,0.8c-1.4,4-2.1,6.3-2.3,6.8c-1.2,4.6-1.8,9.3-1.8,14.2c0.5,0,1-0.2,1.6-0.6
		c0.1,0,0.2,0,0.3-0.1c0.1-0.1,0.2-0.1,0.4-0.1c0.4,0,0.6,0.2,0.6,0.5c0,0.8-0.9,1.5-2.8,1.9C86.1,112.6,85.7,117.7,85.2,121.1
		 M79.8,130.8c0.8-2.6,1.2-6.2,1.5-10.8c0.2-2,0.3-5.6,0.3-11C72.5,115.9,68,123,68,130.1c0,4.6,1.9,6.9,5.6,6.9
		C76.4,137.1,78.5,135,79.8,130.8 M83.3,92c0.2-0.6,0.5-1.4,0.7-2.3c0.5-2,0.8-3.4,0.9-4.4c1.3-3.3,1.9-5.6,1.9-6.9
		c0-2.9-1.2-4.3-3.6-4.3c-2.7,0-5.7,2.8-9,8.3c-1.7,3.8-2.8,6.7-3.4,8.6c-1.4,4.2-2,7.2-2,9.1c0,4,1.4,6,4.3,6
		C76.4,106.1,79.8,101.4,83.3,92"/>
	<path class="st0" d="M100.8,120.5c-2.4,0-3.7-1.6-3.7-4.9c0-0.6,0-1.4,0.2-2.5c0-0.7,0.2-1.9,0.5-3.7c0.3-1.6,0.4-2.8,0.4-3.7
		c0-0.8-0.3-1.5-1-1.9c-0.6-0.5-1.3-0.9-1.9-1.3c-1.4-1-2.1-2.5-2.1-4.6c0-3.3,0.8-5,2.4-5c1.2,0,1.8,1,1.8,3c0,1.3-0.3,2.9-0.8,4.6
		c3.3,1.4,4.9,3.1,4.9,5c0-0.1-0.2,0.9-0.5,3.1c-0.3,2.1-0.5,3.2-0.5,3.1c-0.4,3-0.5,4.7-0.5,5.3c0,1.5,0.6,2.2,1.7,2.2
		c2.6,0,5-3.4,7.3-10.3c0.2-0.9,0.4-1.8,0.6-2.7c0.4-1.4,0.7-2.1,0.9-2.1c0.2,0,0.3,0.2,0.3,0.7c0,1.3-0.4,3.2-1.3,5.8
		c-0.9,2.6-1.7,4.5-2.4,5.5C105.2,119,103.1,120.5,100.8,120.5 M95.7,99.6c0.4-1.1,0.6-2.1,0.6-3.1c0-1.1-0.3-1.7-0.9-1.7
		c-0.6,0-0.9,0.6-0.9,1.8C94.5,97.7,94.9,98.6,95.7,99.6"/>
	<path class="st0" d="M122.4,112.2c-2.4,3.6-5.5,5.4-9.4,5.4c-4.4,0-6.6-2.6-6.6-7.9c0-4,1.1-7.6,3.2-10.8c2.1-3.2,4.5-4.7,7.2-4.7
		c2.1,0,3.1,1,3.1,3c0,3.9-2.6,7.7-7.8,11.4c-1.8,1.3-2.8,2.5-2.8,3.7c0,1.2,0.4,2.2,1.1,3c0.7,0.8,1.7,1.3,2.8,1.3
		c5,0,8.9-4.1,11.8-12.3c0.3-0.9,0.6-1.4,0.8-1.4c0.2,0,0.3,0.2,0.3,0.5c0,0.5-0.3,1.4-0.8,2.8l-0.8,1.9
		C123.9,109.8,123.1,111.2,122.4,112.2 M117.3,99.9c0.5-1.2,0.8-2.2,0.8-2.9c0-1.1-0.5-1.7-1.4-1.7c-1.1,0-2.3,1.1-3.6,3.4
		c-1.4,2.5-2.3,5.7-2.8,9.3c1-0.6,1.9-1.2,2.6-1.8C114.6,105,116,102.8,117.3,99.9"/>
	<path class="st0" d="M139.4,112.2c-2.4,3.6-5.5,5.4-9.4,5.4c-4.4,0-6.6-2.6-6.6-7.9c0-4,1.1-7.6,3.2-10.8c2.1-3.2,4.5-4.7,7.2-4.7
		c2.1,0,3.1,1,3.1,3c0,3.9-2.6,7.7-7.8,11.4c-1.8,1.3-2.8,2.5-2.8,3.7c0,1.2,0.4,2.2,1.1,3c0.7,0.8,1.7,1.3,2.8,1.3
		c5,0,8.9-4.1,11.8-12.3c0.3-0.9,0.6-1.4,0.8-1.4c0.2,0,0.3,0.2,0.3,0.5c0,0.5-0.3,1.4-0.8,2.8l-0.8,1.9
		C140.8,109.8,140.1,111.2,139.4,112.2 M134.3,99.9c0.5-1.2,0.8-2.2,0.8-2.9c0-1.1-0.5-1.7-1.4-1.7c-1.1,0-2.3,1.1-3.6,3.4
		c-1.4,2.5-2.3,5.7-2.8,9.3c1-0.6,1.9-1.2,2.6-1.8C131.5,105,133,102.8,134.3,99.9"/>
	<path class="st0" d="M162.8,107.4c-0.6,2-1.3,3.7-2,5c-1.6,3-3.6,4.5-6,4.5c-2.9,0-4.3-1.8-4.3-5.4c0-1.1,0.2-2.7,0.5-4.9
		c0.3-2.2,0.5-3.8,0.5-4.9c0-1.5-0.4-2.2-1.1-2.2c-1.6,0-3.7,5.1-6.3,15.4c-0.5,1.8-1.1,2.7-1.8,2.7c-1,0-1.5-0.7-1.5-2.1
		c0,0.4,0.1-1.2,0.4-4.7c0.3-3.3,0.5-5.8,0.6-7.4l0.3-3.1c0-0.7,0.1-1.2,0.2-1.7c0.2-1.2,0.5-1.8,1-1.8c1.1,0,2,2.1,2.5,6.4
		c2.1-3.9,4-5.8,5.7-5.8c2.1,0,3.1,1.7,3.1,5.1c0,1.1-0.2,2.6-0.5,4.7c-0.3,2.1-0.5,3.7-0.5,4.7c0,2.3,0.6,3.4,1.9,3.4
		c1.7,0,3.3-1.6,4.8-4.8c1.2-3.6,2-6.3,2.4-8.2c0.1-0.4,0.2-0.6,0.4-0.6c0.3,0,0.4,0.3,0.4,0.8C163.7,103.8,163.4,105.4,162.8,107.4
		"/>
	<path class="st1" d="M182.1,106c-0.7,2.2-1.7,4.8-3.1,7.9c-1.7,4.1-3.9,6.2-6.5,6.2c-3.6,0-5.3-3.2-5.3-9.6c0-1.2,0.1-2.8,0.2-4.8
		c0.5-7.9,1.1-14.4,2-19.5h-11.1c-1,0-1.5-0.2-1.5-0.6c0-0.4,0.5-0.6,1.5-0.6h11.1c0.9-5.7,1.9-8.5,3.1-8.5c0.7,0,1.1,0.5,1.1,1.5
		c0,0.7-0.1,1.6-0.2,2.5l-0.6,4.4h9.8c1,0,1.5,0.2,1.5,0.6c0,0.4-0.5,0.6-1.5,0.6h-9.9c-1.5,10.8-2.3,18.6-2.3,23.3
		c0,6.1,1,9.2,3.1,9.2c0.8,0,1.6-0.3,2.2-1c0.9-0.9,1.7-2.3,2.5-4.2c0.6-1.6,1.1-3.1,1.8-4.7c0.3-1,0.6-2,1-3.1
		c0.6-1.7,1-2.5,1.2-2.5c0.3,0,0.4,0.2,0.4,0.6C182.5,104.2,182.4,105,182.1,106"/>
	<path class="st1" d="M194.4,113.1c-2.4,3.6-5.5,5.4-9.4,5.4c-4.4,0-6.6-2.6-6.6-7.9c0-4,1.1-7.6,3.2-10.8c2.1-3.2,4.5-4.7,7.2-4.7
		c2.1,0,3.1,1,3.1,3c0,3.9-2.6,7.7-7.8,11.4c-1.8,1.3-2.8,2.5-2.8,3.7c0,1.2,0.4,2.2,1.1,3c0.7,0.8,1.7,1.3,2.8,1.3
		c5,0,8.9-4.1,11.8-12.3c0.3-0.9,0.6-1.4,0.8-1.4c0.2,0,0.3,0.2,0.3,0.5c0,0.5-0.3,1.4-0.8,2.8l-0.8,1.9
		C195.8,110.6,195.1,112,194.4,113.1 M189.3,100.8c0.5-1.2,0.8-2.2,0.8-2.9c0-1.1-0.5-1.7-1.4-1.7c-1.1,0-2.3,1.1-3.6,3.4
		c-1.4,2.5-2.3,5.7-2.8,9.3c1-0.6,1.9-1.2,2.6-1.8C186.5,105.8,188,103.7,189.3,100.8"/>
	<path class="st1" d="M203.8,121.3c-2.4,0-3.7-1.6-3.7-4.9c0-0.6,0-1.4,0.2-2.5c0-0.7,0.2-1.9,0.5-3.7c0.3-1.6,0.4-2.8,0.4-3.7
		c0-0.8-0.3-1.5-1-1.9c-0.6-0.5-1.3-0.9-1.9-1.3c-1.4-1-2.1-2.5-2.1-4.6c0-3.3,0.8-5,2.4-5c1.2,0,1.8,1,1.8,3c0,1.3-0.3,2.9-0.8,4.6
		c3.3,1.4,4.9,3.1,4.9,5c0-0.1-0.2,0.9-0.5,3.1c-0.3,2.1-0.5,3.2-0.5,3.1c-0.4,3-0.5,4.7-0.5,5.3c0,1.5,0.6,2.2,1.7,2.2
		c2.6,0,5-3.4,7.3-10.3c0.2-0.9,0.4-1.8,0.6-2.7c0.4-1.4,0.7-2.1,0.9-2.1c0.2,0,0.3,0.2,0.3,0.7c0,1.3-0.4,3.2-1.3,5.8
		c-0.9,2.6-1.7,4.5-2.4,5.5C208.2,119.8,206.1,121.3,203.8,121.3 M198.7,100.4c0.4-1.1,0.6-2.1,0.6-3.1c0-1.1-0.3-1.7-0.9-1.7
		c-0.6,0-0.9,0.6-0.9,1.8C197.5,98.5,197.9,99.5,198.7,100.4"/>
	<path class="st1" d="M218,121.3c-2.4,0-3.7-1.6-3.7-4.9c0-0.6,0-1.4,0.2-2.5c0-0.7,0.2-1.9,0.5-3.7c0.3-1.6,0.4-2.8,0.4-3.7
		c0-0.8-0.3-1.5-1-1.9c-0.6-0.5-1.3-0.9-1.9-1.3c-1.4-1-2.1-2.5-2.1-4.6c0-3.3,0.8-5,2.4-5c1.2,0,1.8,1,1.8,3c0,1.3-0.3,2.9-0.8,4.6
		c3.3,1.4,4.9,3.1,4.9,5c0-0.1-0.2,0.9-0.5,3.1c-0.3,2.1-0.5,3.2-0.5,3.1c-0.4,3-0.5,4.7-0.5,5.3c0,1.5,0.6,2.2,1.7,2.2
		c2.6,0,5-3.4,7.3-10.3c0.2-0.9,0.4-1.8,0.6-2.7c0.4-1.4,0.7-2.1,0.9-2.1c0.2,0,0.3,0.2,0.3,0.7c0,1.3-0.4,3.2-1.3,5.8
		c-0.9,2.6-1.7,4.5-2.4,5.5C222.4,119.8,220.3,121.3,218,121.3 M212.9,100.4c0.4-1.1,0.6-2.1,0.6-3.1c0-1.1-0.3-1.7-0.9-1.7
		c-0.6,0-0.9,0.6-0.9,1.8C211.6,98.5,212,99.5,212.9,100.4"/>
	<path class="st1" d="M243,114.6c-1.3,2.2-2.9,3.3-4.7,3.3c-1.8,0-3.2-1.4-4.2-4.1c-1.7,3.2-3.6,4.8-5.7,4.8c-1.6,0-2.9-0.7-3.9-2.2
		c-0.8-1.3-1.2-2.8-1.2-4.4c0-5,1.1-9.2,3.3-12.5c2.1-3.2,4.7-4.7,7.9-4.7c2.3,0,3.4,1.1,3.4,3.3c0,0.3-0.1,0.6-0.2,1.1
		c-0.1,0.5-0.2,0.9-0.2,1.1c0,0.3,0.1,0.7,0.3,1.3c0.2,0.6,0.3,1.1,0.3,1.4c0,1-0.1,2.4-0.3,4.3c-0.2,1.9-0.3,3.3-0.3,4.3
		c0,3,0.6,4.5,1.9,4.5c2.1,0,4.2-4.1,6.2-12.4c0.2-0.9,0.5-1.3,0.8-1.3c0.2,0,0.3,0.2,0.3,0.6c0,0.2-0.1,0.5-0.2,1.1
		C245.4,109.1,244.2,112.6,243,114.6 M232.8,113.5c1.1-3.2,1.6-5.7,1.6-7.3c0-0.4-0.3-0.6-0.8-0.8c-0.5-0.2-0.8-0.4-0.8-0.6
		c0-0.4,0.5-1.1,1.4-2.4c1.6-2.1,2.4-3.7,2.4-4.7c0-1.3-0.7-1.9-2.2-1.9c-1.8,0-3.3,1.2-4.6,3.7c-2.1,4.1-3.2,8.4-3.2,13
		c0,3.2,0.9,4.8,2.7,4.8c1.3,0,2.5-1.2,3.4-3.5C232.6,113.8,232.7,113.7,232.8,113.5"/>
	<path class="st1" d="M257.4,132.7c-2.6,4.3-5.7,6.5-9.1,6.5c-1.5,0-2.8-0.5-3.7-1.6c-0.9-1.1-1.4-2.4-1.4-4
		c0-5.3,4.7-10.1,14.1-14.4c0-1.6-0.4-3-1.1-4.2c-0.9-1.4-2.1-2.1-3.7-2.1c-1,0-1.9,0.7-2.8,2.1c-0.9,1.4-1.7,2.1-2.5,2.1
		c-0.6,0-0.9-0.3-0.9-1c0-0.8,0.6-1.6,1.7-2.5c1.1-0.7,1.9-1.2,2.4-1.6c3.8-4.9,6.7-8.5,8.6-10.9c1.4-2,2.1-3.3,2.1-3.7
		c0-0.4-1.4-0.7-4.1-0.8c-1.1-0.2-2-0.3-2.5-0.4c-1.4-0.2-2-0.3-2-0.3c-1,0-2,0.3-2.9,0.8c-0.9,0.5-1.3,0.8-1.2,0.8
		c-0.1,0-0.1-0.1-0.1-0.2c0-1,0.7-1.9,2-2.9c1.3-1,2.5-1.5,3.6-1.5c0.7,0,1.7,0.2,3,0.6c1.3,0.4,2.3,0.6,3.1,0.6
		c1.8,0,3.1-0.1,3.7-0.4c0,0,0.1,0,0.3-0.1c0.1,0,0.2-0.1,0.3-0.1c0.4,0,0.6,0.2,0.6,0.6c0,0.5-0.4,1.3-1.3,2.4l-1.9,2.5
		c-1,1.3-1.9,2.6-2.8,4c-2.8,4-4.8,7-6.3,8.9c0.5-0.1,0.9-0.2,1.3-0.2c3.4,0,5.6,2,6.6,6l0.6-0.2c0.2-0.1,0.4-0.1,0.5-0.1
		c0.3,0,0.4,0.1,0.4,0.3c0,0.4-0.4,0.8-1.3,1.1C260.5,124.7,259.5,129.3,257.4,132.7 M254.4,133.1c1.8-3.4,2.8-7.7,3-12.8
		c-3.8,1.8-6.8,3.8-9.2,6.2c-2.5,2.5-3.7,4.9-3.7,7.3c0,3,1.2,4.5,3.7,4.5C250.6,138.2,252.6,136.5,254.4,133.1"/>
	<path class="st1" d="M284.1,114.6c-1.3,2.2-2.9,3.3-4.7,3.3c-1.8,0-3.2-1.4-4.2-4.1c-1.7,3.2-3.6,4.8-5.7,4.8
		c-1.6,0-2.9-0.7-3.9-2.2c-0.8-1.3-1.2-2.8-1.2-4.4c0-5,1.1-9.2,3.3-12.5c2.1-3.2,4.7-4.7,7.9-4.7c2.3,0,3.4,1.1,3.4,3.3
		c0,0.3-0.1,0.6-0.2,1.1c-0.1,0.5-0.2,0.9-0.2,1.1c0,0.3,0.1,0.7,0.3,1.3c0.2,0.6,0.3,1.1,0.3,1.4c0,1-0.1,2.4-0.3,4.3
		c-0.2,1.9-0.3,3.3-0.3,4.3c0,3,0.6,4.5,1.9,4.5c2.1,0,4.1-4.1,6.2-12.4c0.2-0.9,0.5-1.3,0.8-1.3c0.2,0,0.3,0.2,0.3,0.6
		c0,0.2-0.1,0.5-0.2,1.1C286.4,109.1,285.2,112.6,284.1,114.6 M273.8,113.5c1.1-3.2,1.6-5.7,1.6-7.3c0-0.4-0.3-0.6-0.8-0.8
		c-0.5-0.2-0.8-0.4-0.8-0.6c0-0.4,0.5-1.1,1.4-2.4c1.6-2.1,2.4-3.7,2.4-4.7c0-1.3-0.7-1.9-2.2-1.9c-1.8,0-3.3,1.2-4.6,3.7
		c-2.1,4.1-3.2,8.4-3.2,13c0,3.2,0.9,4.8,2.7,4.8c1.3,0,2.5-1.2,3.4-3.5C273.7,113.8,273.7,113.7,273.8,113.5"/>
	<path class="st1" d="M50.1,50.3c0.1-2.2-0.6-4.4-1.7-6.3c-1.1-1.9-2.5-3.6-4.1-5.1c-1.6-1.4-3.6-2.6-5.7-3.3
		c-1-0.3-2.1-0.5-3.2-0.5c-1.1,0.1-2.2,0.2-3.2,0.7c-1,0.4-1.9,1.1-2.6,2c-0.7,0.9-1.1,1.9-1.4,3c-0.3,1.1-0.4,2.2-0.4,3.3l0,0.8
		c0,0.3,0,0.5,0.1,0.8l0,0.4l0.1,0.4c0.1,0.3,0.1,0.5,0.2,0.8c0.3,1.1,1,2,1.9,2.6c0.9,0.7,1.9,1.2,2.8,1.8c1.9,1.2,3.5,2.7,4.7,4.5
		c0.6,0.9,1.2,1.9,1.3,3c0.1,0.6,0,1.1-0.2,1.6c-0.2,0.5-0.7,0.9-1.1,1.2c-0.5,0.3-1,0.4-1.6,0.6c-0.5,0.1-1.1,0.2-1.6,0.1
		c-1.1,0-2.2-0.2-3.3-0.5c-2.1-0.6-4.1-1.6-5.8-3c-1.7-1.4-3-3.3-3.8-5.3c-0.8-2.1-1.1-4.3-0.7-6.5c0.4-2.2,1.5-4.3,3.2-5.6
		c0.9-0.7,1.9-1.2,3-1.4c1.1-0.3,2.2-0.4,3.3-0.4c0.6,0,1.1,0.1,1.6,0.2c0.5,0.1,1.1,0.2,1.6,0.4c1,0.4,2,1,2.9,1.7
		c1.8,1.3,3.5,2.7,5.2,4c0.9,0.7,1.8,1.3,2.7,1.8c1,0.5,2,1,3,1.2c1.1,0.2,2.2,0.2,3.2-0.3c1-0.5,1.8-1.3,2.4-2.2l0.5-0.7l0.4-0.7
		c0.1-0.1,0.1-0.2,0.2-0.4l0.2-0.4c0-0.1,0.1-0.3,0.1-0.4l0.1-0.4c0.2-1.1,0.2-2.2-0.1-3.2c-0.5-2.1-1.8-4-3.2-5.7
		c-1.5-1.6-3.2-3-5.2-4c-1-0.5-2-0.9-3.1-1c-1.1-0.1-2.2,0-3.1,0.6c-0.9,0.6-1.5,1.6-1.8,2.6c-0.3,1.1-0.1,2.2,0.4,3.2
		c1,2,2.5,3.6,3.8,5.4c0.6,0.9,1.2,1.9,1.3,3c0.1,0.6,0,1.1-0.1,1.7c-0.2,0.5-0.4,1-0.7,1.5c-0.3,0.4-0.8,0.8-1.2,1.1
		c-0.5,0.3-1,0.4-1.6,0.5c-1.1,0.1-2.2-0.1-3.3-0.4c-2.1-0.6-4.1-1.7-6-2.8c-1.9-1.2-3.5-2.7-5-4.3c-1.5-1.6-2.8-3.4-3.8-5.4
		c-0.5-1-0.9-2-1.1-3.1c-0.2-1.1-0.2-2.2,0.2-3.3c0.4-1,1.2-1.9,2.1-2.5c0.9-0.6,2-1,3.1-1.2l0.5-0.1l-0.4,0.2
		c-2.5,1.4-4.7,3.4-6.5,5.7c-0.9,1.1-1.7,2.3-2.4,3.6c-0.7,1.3-1.2,2.6-1.6,4c-0.3,1.4-0.5,2.9-0.4,4.3c0.1,1.4,0.5,2.9,1.1,4.2
		c0.6,1.3,1.5,2.5,2.5,3.5c1,1,2.2,1.9,3.5,2.4c1.3,0.5,2.8,0.7,4.2,0.4c1.4-0.3,2.8-0.9,4-1.7c2.4-1.7,4.2-4.1,5.4-6.7
		c1.2-2.6,1.8-5.6,1.3-8.4c-0.1-0.7-0.3-1.4-0.6-2.1c-0.3-0.7-0.6-1.3-0.9-2c-0.6-1.3-1.3-2.6-1.9-3.9c-0.3-0.7-0.5-1.4-0.6-2.1
		c-0.1-0.7,0-1.5,0.1-2.2c0.3-1.4,1.1-2.8,2.3-3.6c1.2-0.9,2.7-1.3,4.1-1.4c1.5-0.1,2.9,0.2,4.3,0.7c0.7,0.3,1.3,0.6,1.9,1
		c0.6,0.4,1.2,0.8,1.7,1.3c1,1,1.9,2.3,2.1,3.8l0.1,0.5l0,0.6c0,0.2,0,0.4,0,0.5l0,0.5c-0.1,0.7-0.2,1.4-0.5,2.1
		c-0.4,1.4-1,2.7-1.6,4.1c-0.6,1.3-1.2,2.6-1.8,4c-0.5,1.3-1,2.8-1,4.2c-0.1,1.4,0.5,2.8,1.4,4c0.9,1.1,2,2.1,3.4,2.6
		c1.4,0.5,2.9,0.4,4.2,0c1.4-0.4,2.6-1.2,3.8-2.1c2.2-1.8,4-4.3,5-7c0.5-1.4,0.8-2.8,0.8-4.2c0-1.4-0.2-2.9-0.7-4.2
		c-0.5-1.3-1.3-2.6-2.3-3.6c-1-1-2.2-1.9-3.4-2.7c-2.5-1.5-5.2-2.5-8.1-2.9c-1.4-0.2-2.9-0.2-4.3,0.1c-0.7,0.2-1.4,0.4-2,0.8
		c-0.6,0.4-1.1,0.9-1.4,1.6c-0.3,0.6-0.4,1.4-0.4,2.1c0,0.7,0.2,1.4,0.4,2.1c0.4,1.4,1.1,2.7,1.8,3.9c0.8,1.2,1.7,2.3,2.7,3.4
		l2.9,3.3c1,1.1,1.9,2.2,2.8,3.4c0.9,1.2,1.7,2.4,2.3,3.7c0.3,0.7,0.5,1.4,0.6,2.1c0.1,0.7,0,1.5-0.2,2.2c-0.3,0.7-0.7,1.3-1.3,1.8
		c-0.3,0.2-0.6,0.5-0.9,0.7c-0.3,0.2-0.6,0.4-1,0.5c-1.3,0.7-2.7,1.1-4.2,1.4c-1.4,0.3-2.9,0.4-4.4,0.3c-2.9-0.2-5.7-1.6-7.8-3.6
		c-2.1-2-3.6-4.7-4-7.6c-0.2-1.4-0.2-2.9,0.2-4.4c0.4-1.4,1.1-2.7,2.1-3.8c1-1.1,2.2-1.9,3.6-2.5c0.3-0.2,0.7-0.3,1-0.4l0.5-0.2
		c0.2-0.1,0.4-0.1,0.5-0.1c0.4-0.1,0.7-0.2,1.1-0.2l1.1-0.2c1.5-0.2,3-0.1,4.3,0.4c1.4,0.5,2.6,1.5,3.4,2.7c0.9,1.2,1.4,2.6,1.9,3.9
		c0.5,1.4,0.8,2.8,1.1,4.2c0.6,2.8,1.2,5.7,2.1,8.4c0.5,1.4,1,2.7,1.8,3.9c0.8,1.2,1.8,2.2,3.1,2.9c1.2,0.7,2.7,1.1,4.1,1
		c1.4-0.1,2.8-0.6,4.1-1.3c1.2-0.7,2.4-1.7,3.3-2.7c1-1.1,1.8-2.3,2.4-3.6c0.6-1.3,1-2.7,1.2-4.1c0.1-1.4-0.1-2.9-0.6-4.2
		c-0.9-2.7-2.6-5.2-4.7-7.2c-1-1-2.2-1.9-3.5-2.6c-1.2-0.7-2.6-1.3-4-1.6c-1.4-0.3-2.9-0.4-4.3-0.2c-0.7,0.1-1.4,0.3-2.1,0.6
		c-0.2,0.1-0.3,0.1-0.5,0.2l-0.5,0.3c-0.2,0.1-0.3,0.2-0.5,0.3L52.7,36c-1.2,0.8-2,2.1-2.4,3.4c-0.4,1.4-0.4,2.9-0.1,4.3
		c0.6,2.8,2.3,5.4,4.4,7.3c2.1,2,4.8,3.3,7.6,3.7c1.4,0.2,2.9,0.1,4.3-0.1l1.1-0.2c0.4-0.1,0.7-0.2,1-0.3c0.7-0.2,1.3-0.5,2-0.8
		c2.6-1.3,4.9-3.2,6.6-5.4c1.8-2.3,3-4.9,3.7-7.8c0.6-2.8,0.7-5.8-0.2-8.5c-0.8-2.8-2.6-5.2-5-6.9c-1.2-0.8-2.5-1.5-3.8-2
		c-0.3-0.1-0.7-0.2-1-0.3l-0.5-0.2L69.9,22c-0.4-0.1-0.7-0.2-1.1-0.2c-0.4,0-0.7-0.1-1.1-0.1c-1.4,0-2.9,0.4-4.1,1.1
		c-1.2,0.7-2.3,1.7-3.1,2.9c-1.7,2.4-2.5,5.3-2.5,8.1c-0.1,2.9,0.6,5.8,2.3,8.1c0.8,1.2,1.9,2.1,3.2,2.8c1.3,0.7,2.7,1.2,4.1,1.2
		c0.7,0,1.4-0.1,2.1-0.4c0.7-0.3,1.3-0.6,1.8-1.1c1.1-0.9,2-2.1,2.6-3.3c1.3-2.6,2-5.4,2.1-8.3c0.1-1.4,0-2.9-0.3-4.3
		c-0.1-0.4-0.2-0.7-0.3-1c-0.1-0.3-0.2-0.7-0.4-1l-0.4-1l-0.5-0.9c-0.7-1.2-1.6-2.4-2.7-3.4c-1.1-1-2.3-1.8-3.6-2.3
		C57.3,14.4,43.2,22,41.9,34c-0.3,0.7-0.7,1.3-1.2,1.8c-0.5,0.5-1.3,0.9-2,0.9c-0.8,0.1-1.5-0.1-2.2-0.4c-0.7-0.3-1.3-0.8-1.8-1.2
		c-1.1-1-2-2.1-2.9-3.3c-0.8-1.2-1.6-2.5-2.3-3.7c-0.7-1.3-1.3-2.6-1.8-4c-0.5-1.4-0.9-2.8-1.2-4.2c-0.3-1.4-0.5-2.9-0.3-4.4
		c0.1-0.7,0.3-1.5,0.8-2.1c0.2-0.3,0.5-0.6,0.9-0.7c0.4-0.2,0.7-0.2,1.1-0.3l0.3,0l-0.2,0.3c-1.5,2-3.3,3.7-5.1,5.5
		c-1.8,1.7-3.6,3.5-5.2,5.3c-1.6,1.9-3.2,3.9-4.2,6.1c-0.5,1.1-0.9,2.3-1,3.5c-0.1,0.6-0.1,1.2,0,1.8c0.1,0.6,0.2,1.2,0.3,1.8
		c0.3,1.2,0.8,2.3,1.6,3.3c0.7,1,1.7,1.8,2.8,2.3c1.1,0.5,2.3,0.8,3.5,0.9c1.2,0.1,2.5,0,3.7-0.3c2.4-0.5,4.7-1.7,6.5-3.4
		c0.9-0.8,1.7-1.8,2.3-2.9c0.3-0.5,0.5-1.1,0.7-1.7c0.1-0.3,0.2-0.6,0.2-0.9c0.1-0.3,0.1-0.6,0.1-0.9c0.1-1.2,0-2.5-0.2-3.7
		c-0.2-1.2-0.5-2.4-0.8-3.6c-0.6-2.4-1.4-4.8-2-7.2c-0.3-1.2-0.6-2.4-0.8-3.7c-0.2-1.2-0.2-2.5,0.1-3.8c0.2-0.6,0.5-1.2,1-1.7
		L33,9.2c0.1-0.1,0.3-0.2,0.4-0.3c0.3-0.2,0.6-0.3,0.9-0.4c1.2-0.5,2.4-0.8,3.7-0.8c1.3,0,2.6,0.3,3.7,1c1.1,0.7,2,1.6,2.7,2.7
		c1.4,2.2,2,4.7,2.3,7.1c0.3,2.5,0.1,5.1-0.6,7.5c-0.4,1.2-0.9,2.4-1.7,3.4c-0.8,1-1.9,1.8-3.2,2c-0.2,0-0.3,0-0.5,0.1
		c-0.1,0-0.1,0-0.3,0l-0.2,0c-0.3-0.1-0.7-0.2-1-0.3c-0.6-0.3-1.1-0.7-1.5-1.2c-0.9-0.9-1.7-1.9-2.4-2.9c-0.7-1-1.4-2-2.1-3.1
		c-0.7-1-1.4-2.1-2.2-3.1c-0.2-0.2-0.4-0.5-0.6-0.7l-0.7-0.6c-0.5-0.4-0.9-0.8-1.4-1.2c-1-0.8-2-1.5-3-2.2c-2.1-1.3-4.3-2.5-6.7-3.1
		l-0.5-0.1c-0.2,0-0.3,0-0.5-0.1L17,13c-0.2,0-0.3,0-0.5,0l-0.5,0l-0.5,0.1l-0.5,0.1c-0.2,0-0.3,0.1-0.4,0.1
		c-1.2,0.3-2.3,0.9-3.2,1.7c-1,0.8-1.8,1.7-2.5,2.7c-0.7,1-1.3,2.1-1.8,3.2c-1,2.3-1.7,4.7-1.8,7.2c-0.1,1.2,0,2.5,0.3,3.7
		c0.3,1.2,0.8,2.3,1.6,3.2c0.8,0.9,2,1.4,3.2,1.5l0.5,0c0.2,0,0.3,0,0.5,0l0.9-0.1c0.3,0,0.6-0.1,0.9-0.2c0.3-0.1,0.6-0.2,0.8-0.4
		c1-0.6,1.8-1.6,2.4-2.7c0.6-1.1,1.1-2.2,1.6-3.4c0.5-1.1,1-2.3,1.6-3.4c0.2-0.3,0.3-0.5,0.5-0.8c0.2-0.3,0.4-0.5,0.6-0.7
		c0.2-0.2,0.4-0.5,0.6-0.7c0.2-0.2,0.4-0.5,0.7-0.7c0.9-0.9,1.9-1.7,3-2.4c1-0.7,2.1-1.3,3.3-1.9c2.3-1.1,4.7-1.8,7.3-2l1,0
		c0.3,0,0.6,0,0.9,0c0.6,0,1.3,0.1,1.9,0.2c1.2,0.2,2.5,0.7,3.5,1.4c1.1,0.7,1.9,1.8,2.4,3c0.4,1.2,0.5,2.6,0.1,3.8
		c-0.2,0.6-0.4,1.2-0.7,1.8c-0.1,0.3-0.3,0.5-0.5,0.8c-0.2,0.2-0.4,0.5-0.6,0.7c-0.9,0.9-1.9,1.7-3,2.4L40.4,31
		c1.5,0.2,3,0.1,4.4-0.4c1.4-0.4,2.7-1.2,3.8-2.1c2.3-1.9,3.8-4.6,4.5-7.5c0.3-1.4,0.4-2.9,0.3-4.4c-0.1-1.5-0.5-2.9-1.2-4.2
		C51.4,11,50.5,9.9,49.3,9c-0.3-0.2-0.6-0.5-0.9-0.6c-0.3-0.2-0.6-0.4-1-0.6l-1-0.5c-0.3-0.1-0.7-0.3-1-0.4c-1.4-0.5-2.8-0.9-4.3-1
		c-1.5-0.1-3,0-4.4,0.3c-2.9,0.6-5.6,2-7.8,4c-2.2,2-4,4.4-5.2,7.1C22.4,20,21.9,23,22,25.9l0,0.2l-0.2,0c-0.9,0-1.8-0.1-2.6-0.5
		c-0.8-0.4-1.5-1-2-1.8c-1-1.5-1.4-3.3-1.4-5c0-1.7,0.3-3.5,1.1-5.1c0.2-0.4,0.4-0.8,0.7-1.1l0.2-0.3l0.1-0.1l0.1-0.1l0.2-0.2
		l0.3-0.2c0.7-0.6,1.4-1,2.2-1.4c1.5-0.8,3.1-1.4,4.8-1.9c1.6-0.5,3.3-0.9,5-1.2c1.7-0.3,3.4-0.5,5.1-0.6c0.9,0,1.7,0,2.6,0.1
		c0.4,0,0.9,0.1,1.3,0.2c0.2,0,0.4,0.1,0.6,0.2l0.6,0.2c1.6,0.7,3,1.9,4,3.3c1.1,1.4,1.9,2.9,2.7,4.4c0.8,1.5,1.6,3,2.6,4.4
		c1,1.4,2.2,2.6,3.6,3.5c1.4,0.9,3,1.5,4.7,1.7c1.7,0.2,3.4-0.3,4.8-1.2c1.4-0.9,2.4-2.3,3.1-3.8c0.4-0.8,0.6-1.6,0.9-2.4
		c0.2-0.8,0.4-1.6,0.5-2.5c0.2-1.7,0.2-3.4-0.4-5c-0.5-1.6-1.6-3-3-3.9c-1.4-1-3-1.5-4.7-1.8c-1.7-0.3-3.4-0.2-5,0.1
		C53,4.3,51.4,4.9,50,5.8c-1.4,0.9-2.6,2.2-3.1,3.7c-0.2,0.8-0.3,1.6-0.2,2.4c0.1,0.8,0.4,1.6,0.8,2.4c0.4,0.7,0.8,1.5,1.4,2.1
		c0.5,0.7,1.1,1.3,1.7,1.9c2.5,2.4,5.5,4.1,8.6,5.3c3.2,1.3,6.5,2.1,9.8,2.7c6.7,1.2,13.6,1.4,20.4,1.6l0.2,0l0,0.2
		c0.4,2,0.1,4-0.8,5.8l-0.3,0.7L88,35.2l-0.2,0.3l-0.2,0.3l-0.5,0.6c-0.7,0.7-1.4,1.4-2.2,2c-1.6,1.1-3.6,1.8-5.6,1.8
		c-0.3,0-0.5,0-0.7,0c-0.2,0-0.5,0-0.7-0.1c-0.2,0-0.5-0.1-0.7-0.1l-0.7-0.2c-1-0.3-1.9-0.7-2.7-1.2c-1.7-1.1-3-2.6-3.9-4.4
		c-1-1.7-1.5-3.6-1.8-5.6c-0.3-1.9-0.3-3.9,0-5.9c0.1-1,0.3-1.9,0.6-2.9c0.3-0.9,0.7-1.8,1.2-2.7c0.9-1.7,2-3.4,3.6-4.6
		c0.8-0.6,1.7-1.1,2.6-1.4c1-0.3,2-0.4,3-0.3c2,0.2,3.8,1.2,5.3,2.5c1.5,1.3,2.7,2.9,3.7,4.6c0.9,1.7,1.6,3.6,2,5.5
		c0.4,1.9,0.4,3.9-0.1,5.9c-0.4,1.9-1.3,3.8-2.6,5.3c-0.6,0.8-1.4,1.4-2.2,2c-0.8,0.6-1.6,1.1-2.5,1.5c-0.9,0.4-1.9,0.7-2.9,0.7
		c-1,0-2-0.3-2.9-0.7c-0.9-0.5-1.7-1.1-2.4-1.8c-0.7-0.7-1.4-1.4-2-2.2c-1.2-1.5-2.3-3.1-3.5-4.7c-1.2-1.5-2.4-3-4-4.1
		c-0.8-0.5-1.6-0.9-2.6-1.1c-0.9-0.2-1.9-0.3-2.8-0.1c-1.9,0.3-3.7,1.2-5.1,2.4c-1.4,1.3-2.5,2.9-3,4.8c-0.6,1.8-0.6,3.8,0.1,5.6
		c0.6,1.8,1.8,3.4,3.2,4.7c1.4,1.3,3,2.5,4.7,3.3c1.7,0.9,3.5,1.6,5.4,1.9c1.9,0.3,3.8,0.3,5.6-0.4c1.8-0.7,3.4-1.8,4.7-3.2
		c1.3-1.4,2.5-3,3.4-4.7c1.8-3.4,2.9-7.2,3.1-11.1l0-0.2l0.2,0c1-0.1,2,0.1,2.9,0.6c0.9,0.5,1.7,1.1,2.3,1.9
		c0.6,0.7,1.2,1.6,1.6,2.4c0.5,0.9,0.8,1.8,1.2,2.7c0.7,1.8,1.1,3.8,1.3,5.7c0.3,1.9,0.3,3.9,0.1,5.8c-0.2,1.9-0.6,3.9-1.4,5.7
		c-0.4,0.9-0.9,1.7-1.6,2.5c-0.6,0.8-1.4,1.4-2.3,1.8c-0.4,0.2-0.9,0.4-1.4,0.6c-0.2,0.1-0.5,0.2-0.7,0.2l-0.7,0.2
		c-0.2,0.1-0.5,0.1-0.7,0.1c-0.2,0-0.5,0.1-0.7,0.1l-0.7,0l-0.4,0l-0.4,0c-2-0.1-3.9-0.5-5.7-1.3c-1.8-0.7-3.5-1.7-5-3
		c-1.5-1.2-2.8-2.7-3.8-4.4c-0.5-0.9-0.8-1.8-1.1-2.7c-0.2-1-0.3-2-0.1-2.9c0.3-2,1.3-3.8,2.7-5.2c0.4-0.3,0.7-0.7,1.1-1
		c0.4-0.3,0.8-0.6,1.2-0.8c0.9-0.5,1.9-0.7,2.9-0.8c2-0.1,3.9,0.7,5.6,1.7c0.8,0.5,1.6,1.1,2.4,1.8c0.7,0.7,1.4,1.4,2,2.1
		c0.6,0.8,1.2,1.5,1.7,2.4c0.5,0.8,1,1.7,1.3,2.6c0.8,1.8,1.2,3.8,1.1,5.7c0,1-0.3,2-0.7,2.9l-0.2,0.3c0,0.1,0,0.1-0.1,0.2l-0.1,0.2
		L85,55.8c-0.3,0.4-0.6,0.8-0.9,1.1c-0.7,0.7-1.5,1.3-2.3,1.8c-0.9,0.5-1.8,0.9-2.7,1.2c-0.9,0.3-1.9,0.5-2.9,0.6
		c-1,0.1-1.9,0.2-2.9,0.2c-1.9,0-3.9-0.1-5.8-0.4c-1.9-0.3-3.8-0.8-5.7-1.4c-1.8-0.6-3.7-1.4-5.3-2.4c-1.7-1-3.2-2.3-4.4-3.8
		c-2.5-3.1-3.9-6.8-5.1-10.4c-1.2-3.7-2.3-7.4-4.1-10.8c-0.9-1.7-2-3.3-3.4-4.6c-1.4-1.3-3-2.4-4.8-3.1l-0.7-0.3
		c-0.2-0.1-0.5-0.1-0.7-0.2c-0.5-0.2-0.9-0.2-1.4-0.3c-0.9-0.2-1.9-0.3-2.9-0.2c-0.5,0-1,0.1-1.4,0.1c-0.5,0.1-1,0.1-1.4,0.3
		c-0.9,0.2-1.8,0.5-2.7,0.9c-3.6,1.5-6.6,4-9,7.1c-1.2,1.5-2.1,3.2-2.9,5c-0.4,0.9-0.6,1.8-0.9,2.7c-0.2,0.9-0.4,1.9-0.4,2.9
		c0,0.2,0,0.5,0,0.7c0,0.2,0,0.5,0,0.7c0,0.5,0.1,1,0.2,1.4c0.2,0.9,0.5,1.9,1,2.7c0.5,0.8,1.2,1.5,1.9,2.1c0.8,0.5,1.7,0.9,2.6,1.2
		c1.9,0.5,3.8,0.4,5.7-0.1c1.9-0.5,3.6-1.4,5.1-2.6c1.5-1.2,2.6-2.9,3.1-4.7c0.5-1.8,0.6-3.8,0-5.7c-0.6-1.8-1.8-3.4-3.3-4.6
		c-1.5-1.2-3.3-2-5.1-2.6c-1.8-0.5-3.8-0.8-5.7-0.7c-1,0.1-1.9,0.2-2.9,0.4l-1.4,0.4c-0.5,0.1-0.9,0.3-1.4,0.5
		c-1.8,0.7-3.5,1.7-4.8,3.1c-1.3,1.4-2.1,3.2-2.4,5.1c-0.3,1.9,0,3.9,0.5,5.7c0.5,1.8,1.4,3.6,2.5,5.2c2.1,3.2,5,6,8.4,7.8
		c1.7,0.9,3.5,1.6,5.4,1.9c1.9,0.3,3.9,0.3,5.8,0.1c3.9-0.4,7.6-1.3,11.5-1.4c0.2,0,0.5,0,0.7,0l0.7,0c0.5,0,1,0.1,1.4,0.2
		c1,0.1,1.9,0.5,2.7,1.1c0.4,0.3,0.7,0.6,1.1,1c0.2,0.2,0.4,0.3,0.6,0.4c0.1,0.1,0.2,0.1,0.3,0.2c0.1,0,0.1,0,0.2,0.1
		c0,0,0.1,0.1,0.1,0.2c0.1,0.5,0.2,1,0.3,1.4c0.1,0.4,0.3,0.9,0.8,1.1c0.4,0.2,0.9,0.5,1.3,0.6l0.7,0.2l0.7,0.1
		c0.9,0.1,1.9,0.1,2.9-0.2c0.9-0.3,1.8-0.7,2.5-1.3c0.2-0.1,0.4-0.3,0.6-0.5c0.2-0.2,0.4-0.3,0.5-0.5c0.3-0.4,0.7-0.7,1-1.1
		c1.2-1.5,2.2-3.2,3.1-4.9c0.8-1.7,1.6-3.5,2.2-5.4c1.3-3.6,2.3-7.4,3.3-11.2l0,0l0,0c0.4,0.1,0.8,0.1,1.1,0.2l0.6,0.1
		c0.2,0,0.4,0.1,0.6,0.1l0.2,0l-0.2,0l-1.8,0v0l1.8,0l0,0c-0.2,0-0.4-0.1-0.6-0.1l-0.6-0.1c-0.4-0.1-0.8-0.1-1.1-0.2l0,0
		c-1,3.8-1.9,7.5-3.2,11.2c-0.6,1.8-1.4,3.6-2.2,5.4c-0.8,1.7-1.8,3.4-3.1,4.9c-0.3,0.4-0.6,0.7-1,1.1c-0.2,0.2-0.4,0.3-0.5,0.5
		c-0.2,0.2-0.4,0.3-0.6,0.5c-0.8,0.6-1.6,1.1-2.6,1.4c-0.9,0.3-1.9,0.3-2.9,0.2L48,65l-0.7-0.2c-0.5-0.1-0.9-0.4-1.3-0.6
		c-0.2-0.1-0.4-0.3-0.6-0.5c-0.1-0.2-0.2-0.4-0.3-0.7c-0.2-0.5-0.2-1-0.3-1.4c0-0.1,0-0.1-0.1-0.1c0,0-0.1,0-0.2-0.1
		c-0.1,0-0.2-0.1-0.3-0.2c-0.2-0.1-0.4-0.3-0.6-0.4c-0.4-0.3-0.7-0.7-1.1-1c-0.8-0.6-1.7-0.9-2.6-1.1c-0.5-0.1-1-0.2-1.4-0.2l-0.7,0
		c-0.2,0-0.5,0-0.7,0c-3.9,0.1-7.7,1.1-11.5,1.4c-1.9,0.2-3.9,0.2-5.8-0.1c-1.9-0.3-3.8-1-5.5-1.9c-3.4-1.9-6.3-4.6-8.5-7.8
		c-1.1-1.6-1.9-3.4-2.5-5.3c-0.5-1.9-0.8-3.8-0.5-5.8c0.3-1.9,1.1-3.8,2.5-5.2c1.3-1.4,3.1-2.5,4.9-3.2c0.5-0.2,0.9-0.4,1.4-0.5
		l1.4-0.4c1-0.2,1.9-0.4,2.9-0.4c1.9-0.1,3.9,0.1,5.8,0.7c1.9,0.5,3.7,1.4,5.2,2.6c1.5,1.2,2.8,2.8,3.4,4.7
		c1.2,3.8-0.2,8.1-3.2,10.6c-1.5,1.3-3.3,2.2-5.2,2.7c-1.9,0.5-3.9,0.6-5.8,0.1c-0.9-0.3-1.9-0.7-2.7-1.2c-0.8-0.6-1.5-1.3-2-2.1
		c-0.5-0.8-0.8-1.8-1-2.8c-0.1-0.5-0.1-1-0.2-1.5c0-0.3,0-0.5,0-0.7c0-0.2,0-0.5,0-0.7c0-1,0.2-1.9,0.4-2.9c0.2-0.9,0.5-1.9,0.9-2.8
		c0.7-1.8,1.7-3.5,2.9-5.1c2.3-3.1,5.5-5.7,9.1-7.2c0.9-0.4,1.8-0.7,2.8-0.9c0.5-0.1,1-0.2,1.4-0.3c0.5,0,1-0.1,1.5-0.1
		c1-0.1,2,0.1,2.9,0.2c0.5,0.1,1,0.2,1.4,0.4c0.2,0.1,0.5,0.1,0.7,0.2l0.7,0.3c1.8,0.7,3.5,1.8,4.9,3.1c1.4,1.4,2.6,3,3.5,4.7
		c1.9,3.4,2.9,7.2,4.2,10.9c1.2,3.6,2.7,7.3,5.1,10.3c1.2,1.5,2.7,2.8,4.3,3.8c1.6,1,3.4,1.7,5.3,2.3c1.8,0.6,3.7,1,5.6,1.3
		c1.9,0.3,3.8,0.5,5.8,0.4c1,0,1.9-0.1,2.9-0.2c1-0.1,1.9-0.3,2.8-0.6c0.9-0.3,1.8-0.7,2.6-1.1c0.8-0.5,1.6-1.1,2.2-1.8
		c0.3-0.3,0.6-0.7,0.9-1.1l0.4-0.6l0.1-0.2c0,0,0.1-0.1,0.1-0.2l0.2-0.3c0.4-0.9,0.6-1.8,0.7-2.7c0.1-1.9-0.3-3.8-1.1-5.6
		c-0.4-0.9-0.8-1.7-1.3-2.6c-0.5-0.8-1.1-1.6-1.7-2.3c-0.6-0.7-1.3-1.4-2-2.1c-0.7-0.6-1.5-1.2-2.3-1.7c-1.6-1-3.5-1.7-5.4-1.6
		c-0.9,0-1.9,0.3-2.7,0.7c-0.4,0.2-0.8,0.5-1.2,0.8c-0.3,0.3-0.7,0.6-1.1,1c-1.3,1.4-2.4,3.1-2.6,5c-0.1,0.9,0,1.9,0.1,2.8
		c0.2,0.9,0.6,1.8,1,2.7c0.9,1.7,2.2,3.1,3.7,4.3c1.5,1.2,3.2,2.2,4.9,2.9c1.8,0.7,3.7,1.2,5.6,1.3l0.4,0l0.4,0l0.7,0
		c0.2,0,0.5-0.1,0.7-0.1c0.2,0,0.5,0,0.7-0.1l0.7-0.2c0.2,0,0.4-0.1,0.7-0.2c0.5-0.1,0.9-0.3,1.3-0.5c0.8-0.4,1.6-1,2.2-1.7
		c0.6-0.7,1.1-1.5,1.5-2.4c0.8-1.7,1.2-3.7,1.3-5.6c0.2-1.9,0.1-3.9-0.1-5.8c-0.2-1.9-0.7-3.8-1.3-5.6c-0.3-0.9-0.7-1.8-1.2-2.6
		c-0.4-0.8-1-1.6-1.6-2.4c-0.6-0.7-1.4-1.3-2.2-1.8c-0.8-0.4-1.8-0.6-2.7-0.5l0.2-0.2c-0.1,2-0.4,3.9-1,5.8
		c-0.5,1.9-1.3,3.7-2.2,5.4c-0.9,1.7-2,3.4-3.4,4.8c-1.4,1.4-3,2.6-4.9,3.3c-0.9,0.3-1.9,0.6-2.9,0.6c-1,0.1-2,0-3-0.2
		c-1.9-0.3-3.8-1-5.5-1.9c-1.7-0.9-3.4-2-4.8-3.4c-1.4-1.4-2.6-3-3.3-4.9c-0.7-1.9-0.7-4-0.1-5.9c0.6-1.9,1.7-3.6,3.2-5
		c1.5-1.3,3.3-2.3,5.3-2.5c2-0.3,4.1,0.2,5.7,1.3c1.7,1.1,2.9,2.7,4.1,4.2c1.2,1.5,2.3,3.1,3.5,4.7c0.6,0.8,1.2,1.5,1.9,2.1
		c0.7,0.7,1.4,1.3,2.3,1.7c0.8,0.4,1.8,0.7,2.7,0.7c0.9,0,1.9-0.2,2.7-0.6c0.9-0.4,1.7-0.9,2.4-1.5c0.8-0.6,1.5-1.2,2.1-1.9
		c1.2-1.5,2.1-3.2,2.5-5.1c0.4-1.9,0.4-3.8,0.1-5.7c-0.3-1.9-1-3.7-1.9-5.4c-0.9-1.7-2.1-3.2-3.6-4.5c-1.4-1.2-3.2-2.2-5.1-2.4
		c-0.9-0.1-1.9,0-2.8,0.3c-0.9,0.3-1.7,0.8-2.5,1.4c-1.5,1.2-2.6,2.8-3.5,4.5c-0.4,0.9-0.8,1.7-1.1,2.6c-0.3,0.9-0.5,1.9-0.6,2.8
		c-0.3,1.9-0.2,3.8,0,5.8c0.3,1.9,0.9,3.8,1.8,5.4c0.9,1.7,2.2,3.2,3.8,4.2c0.8,0.5,1.7,0.9,2.6,1.2l0.7,0.2
		c0.2,0.1,0.5,0.1,0.7,0.1c0.2,0,0.5,0.1,0.7,0.1c0.2,0,0.5,0.1,0.7,0c1.9,0,3.8-0.6,5.3-1.7c0.8-0.5,1.5-1.2,2.1-1.9l0.4-0.6
		l0.2-0.3l0.2-0.3l0.4-0.6l0.3-0.6c0.9-1.7,1.1-3.7,0.8-5.5l0.2,0.2c-6.8-0.2-13.7-0.4-20.5-1.6c-3.4-0.6-6.7-1.4-9.9-2.7
		c-3.2-1.3-6.2-3-8.7-5.4c-0.6-0.6-1.2-1.2-1.8-1.9c-0.5-0.7-1-1.4-1.4-2.2c-0.4-0.8-0.7-1.6-0.8-2.5c-0.1-0.9-0.1-1.8,0.2-2.6
		c0.5-1.7,1.8-3.1,3.3-4c1.5-0.9,3.1-1.5,4.9-1.8c1.7-0.3,3.5-0.3,5.2-0.1c1.7,0.3,3.4,0.9,4.8,1.9c1.4,1,2.6,2.5,3.1,4.1
		c0.6,1.7,0.6,3.4,0.4,5.2c-0.1,0.9-0.3,1.7-0.5,2.5c-0.2,0.8-0.5,1.7-0.9,2.4c-0.7,1.6-1.8,3-3.3,4c-1.5,1-3.3,1.4-5,1.2
		c-1.7-0.2-3.4-0.9-4.9-1.8c-0.4-0.2-0.7-0.5-1.1-0.7c-0.3-0.3-0.7-0.5-1-0.9c-0.6-0.6-1.2-1.3-1.7-2c-1-1.4-1.8-2.9-2.6-4.4
		c-0.8-1.5-1.6-3-2.7-4.3c-1-1.3-2.3-2.5-3.8-3.1l-0.6-0.2c-0.2-0.1-0.4-0.1-0.6-0.2C39.1,7.1,38.7,7,38.2,7
		c-0.8-0.1-1.7-0.1-2.5-0.1C34,7,32.3,7.2,30.6,7.5c-1.7,0.3-3.3,0.7-5,1.2c-1.6,0.5-3.2,1.1-4.7,1.9c-0.7,0.4-1.5,0.8-2.1,1.4
		l-0.2,0.2l-0.2,0.2l-0.1,0.1l-0.1,0.1L18,12.9c-0.2,0.3-0.5,0.7-0.7,1.1c-0.8,1.5-1.1,3.2-1,4.9c0,1.7,0.4,3.4,1.3,4.8
		c0.5,0.7,1.1,1.3,1.8,1.6c0.7,0.4,1.6,0.5,2.4,0.5L21.6,26c-0.2-3,0.4-6.1,1.6-8.9c1.2-2.8,3-5.3,5.3-7.3c2.3-2,5-3.5,8-4.1
		c1.5-0.3,3-0.4,4.5-0.3c1.5,0.1,3,0.5,4.4,1c0.4,0.1,0.7,0.3,1.1,0.4l1,0.5c0.3,0.2,0.7,0.4,1,0.6c0.3,0.2,0.6,0.4,0.9,0.7
		c1.2,0.9,2.2,2.1,2.9,3.5c0.7,1.4,1.1,2.8,1.3,4.4c0.1,1.5,0,3-0.3,4.5c-0.7,3-2.3,5.7-4.6,7.7c-1.2,1-2.5,1.7-4,2.2
		c-1.5,0.5-3,0.6-4.5,0.4l-0.6-0.1l0.5-0.3c1.1-0.6,2.1-1.4,2.9-2.3c0.2-0.2,0.4-0.5,0.6-0.7c0.2-0.3,0.4-0.5,0.5-0.8
		c0.3-0.5,0.5-1.1,0.7-1.7c0.3-1.2,0.3-2.4-0.1-3.6c-0.4-1.1-1.2-2.1-2.2-2.8c-1-0.7-2.2-1.1-3.4-1.4c-0.6-0.1-1.2-0.2-1.8-0.2
		c-0.3,0-0.6,0-0.9,0l-0.9,0c-2.5,0.2-4.9,0.9-7.1,2c-1.1,0.5-2.2,1.1-3.2,1.8c-1,0.7-2,1.5-2.9,2.3c-0.2,0.2-0.4,0.4-0.6,0.7
		l-0.3,0.3L20.9,25c-0.2,0.2-0.4,0.5-0.6,0.7c-0.2,0.3-0.3,0.5-0.5,0.8c-0.6,1.1-1.1,2.2-1.6,3.4c-0.5,1.1-1,2.3-1.6,3.4
		c-0.6,1.1-1.4,2.1-2.5,2.8c-0.3,0.2-0.6,0.3-0.9,0.4c-0.3,0.1-0.6,0.2-0.9,0.2c-0.3,0-0.6,0-1,0.1c-0.2,0-0.3,0-0.5,0l-0.5,0
		c-1.3-0.1-2.5-0.7-3.4-1.6c-0.9-0.9-1.4-2.2-1.7-3.4C5,30.5,4.9,29.3,5,28c0.1-2.5,0.8-5,1.8-7.3c0.5-1.2,1.1-2.3,1.9-3.3
		c0.7-1,1.6-2,2.6-2.8c1-0.8,2.1-1.4,3.4-1.7c0.2,0,0.3-0.1,0.5-0.1l0.5-0.1l0.5-0.1l0.5,0c0.2,0,0.3,0,0.5,0l0.5,0.1
		c0.2,0,0.3,0,0.5,0.1l0.5,0.1c2.5,0.5,4.7,1.8,6.8,3.1c1.1,0.7,2.1,1.4,3.1,2.2c0.5,0.4,1,0.8,1.4,1.2l0.7,0.6
		c0.2,0.2,0.4,0.5,0.6,0.7c0.8,1,1.5,2,2.2,3.1c0.7,1,1.4,2.1,2.1,3.1c0.7,1,1.5,2,2.4,2.9c0.4,0.4,0.9,0.8,1.4,1.1
		c0.3,0.2,0.5,0.2,0.8,0.3l0.2,0l0.2,0c0.2,0,0.3,0,0.4,0c1.2-0.2,2.3-0.9,3-1.9c0.8-1,1.3-2.1,1.6-3.3c0.7-2.4,0.9-4.9,0.6-7.4
		c-0.3-2.5-0.9-4.9-2.3-7c-0.7-1-1.5-2-2.5-2.6c-1-0.6-2.3-1-3.5-1c-1.2,0-2.4,0.3-3.6,0.8c-0.3,0.1-0.6,0.2-0.8,0.4
		c-0.1,0.1-0.3,0.1-0.4,0.2l-0.3,0.3c-0.4,0.4-0.7,0.9-0.9,1.5c-0.3,1.2-0.3,2.4-0.1,3.6c0.2,1.2,0.4,2.4,0.8,3.6
		c0.6,2.4,1.4,4.8,2,7.2c0.3,1.2,0.6,2.4,0.8,3.7c0.2,1.2,0.3,2.5,0.2,3.8c0,0.3-0.1,0.6-0.1,1c0,0.3-0.1,0.6-0.2,0.9
		c-0.2,0.6-0.5,1.2-0.8,1.7c-0.6,1.1-1.4,2.1-2.3,3c-1.9,1.7-4.2,2.9-6.6,3.5c-1.2,0.3-2.5,0.4-3.8,0.3c-1.3-0.1-2.5-0.4-3.7-1
		c-1.1-0.6-2.2-1.4-2.9-2.4c-0.8-1-1.3-2.2-1.6-3.4c-0.2-0.6-0.3-1.2-0.3-1.9c-0.1-0.6-0.1-1.3,0-1.9c0.1-1.3,0.5-2.5,1-3.6
		c1-2.3,2.6-4.3,4.3-6.2c1.7-1.9,3.5-3.6,5.3-5.4c1.8-1.7,3.6-3.5,5.1-5.5l0.1,0.2c-0.3,0-0.7,0.1-1,0.2c-0.3,0.1-0.6,0.4-0.8,0.6
		c-0.4,0.5-0.6,1.2-0.7,1.9c-0.2,1.4,0,2.9,0.3,4.3c0.3,1.4,0.7,2.8,1.2,4.2c0.5,1.4,1.1,2.7,1.8,3.9c0.7,1.3,1.4,2.5,2.2,3.7
		c0.8,1.2,1.7,2.3,2.8,3.3c0.5,0.5,1.1,0.9,1.8,1.2c0.6,0.3,1.3,0.5,2,0.4c0.7,0,1.3-0.4,1.8-0.9c0.5-0.5,0.9-1.1,1.2-1.8
		c0.6-1.3,1-2.7,1.4-4.1c0.2-0.7,0.4-1.4,0.7-2.1c0.1-0.3,0.3-0.7,0.5-1l0.6-0.9c1.7-2.4,4-4.3,6.5-5.8c2.6-1.4,5.4-2.3,8.3-2.6
		c2.9-0.3,5.9,0,8.6,1.2c1.3,0.6,2.6,1.4,3.7,2.4c1.1,1,2,2.2,2.7,3.4l0.5,1l0.4,1c0.2,0.3,0.3,0.7,0.4,1c0.1,0.4,0.2,0.7,0.3,1.1
		c0.3,1.4,0.4,2.9,0.3,4.4c-0.1,2.9-0.8,5.8-2.1,8.4c-0.7,1.3-1.6,2.5-2.7,3.4c-0.6,0.5-1.2,0.8-1.9,1.1c-0.7,0.2-1.4,0.4-2.2,0.4
		c-0.2,0-0.4,0-0.6,0c-0.2,0-0.4,0-0.6-0.1L66,46c-0.2,0-0.4-0.1-0.5-0.1c-0.4-0.1-0.7-0.2-1-0.4l-0.5-0.2c-0.2-0.1-0.3-0.2-0.5-0.3
		c-1.3-0.7-2.4-1.7-3.3-2.9c-1.7-2.4-2.5-5.4-2.4-8.3c0.1-2.9,0.9-5.9,2.6-8.3c0.8-1.2,1.9-2.2,3.2-3c1.3-0.7,2.8-1.1,4.2-1.1
		c1.5,0,2.9,0.4,4.3,0.8c1.4,0.5,2.7,1.2,3.9,2c1.2,0.9,2.3,1.9,3.1,3.1c0.9,1.2,1.5,2.5,1.9,3.9c0.9,2.8,0.9,5.8,0.2,8.7
		c-0.7,2.8-1.9,5.6-3.7,7.9c-1.8,2.3-4.1,4.2-6.7,5.5c-0.7,0.3-1.3,0.6-2,0.8c-0.3,0.1-0.7,0.3-1,0.3l-1.1,0.2
		c-1.4,0.3-2.9,0.3-4.4,0.1c-2.9-0.4-5.7-1.8-7.8-3.8c-2.1-2-3.8-4.6-4.4-7.4c-0.3-1.4-0.3-3,0.1-4.4c0.4-1.4,1.3-2.7,2.5-3.6
		l0.4-0.3c0.2-0.1,0.3-0.2,0.5-0.3l0.5-0.3c0.2-0.1,0.3-0.1,0.5-0.2c0.7-0.3,1.4-0.5,2.1-0.6c1.5-0.2,2.9-0.1,4.4,0.2
		c1.4,0.3,2.8,0.9,4.1,1.6c1.3,0.7,2.4,1.6,3.5,2.6c2.1,2,3.8,4.5,4.7,7.3c0.5,1.4,0.7,2.9,0.6,4.3c-0.1,1.5-0.5,2.9-1.2,4.2
		C72,55.7,71.2,57,70.2,58c-1,1.1-2.1,2.1-3.4,2.8c-1.3,0.7-2.7,1.2-4.2,1.3c-1.5,0.1-3-0.3-4.2-1c-1.3-0.7-2.4-1.8-3.2-3
		c-0.8-1.2-1.4-2.6-1.9-4c-0.9-2.8-1.5-5.6-2.1-8.5c-0.3-1.4-0.7-2.8-1.1-4.2c-0.5-1.4-1-2.7-1.9-3.9c-0.8-1.2-2-2.1-3.3-2.6
		c-1.3-0.5-2.8-0.5-4.2-0.4l-1.1,0.2c-0.3,0.1-0.7,0.2-1,0.2c-0.2,0-0.4,0.1-0.5,0.1l-0.5,0.2c-0.3,0.1-0.7,0.2-1,0.4
		c-1.3,0.5-2.6,1.4-3.5,2.4c-1,1-1.7,2.3-2.1,3.7c-0.4,1.4-0.4,2.9-0.2,4.3c0.4,2.9,1.9,5.5,4,7.5c2.1,2,4.8,3.3,7.7,3.5
		c1.4,0.1,2.9,0.1,4.3-0.2c1.4-0.3,2.8-0.7,4.1-1.3c0.3-0.2,0.6-0.4,0.9-0.5c0.3-0.2,0.6-0.4,0.8-0.7c0.5-0.5,0.9-1.1,1.2-1.7
		c0.2-0.7,0.3-1.4,0.2-2.1c-0.1-0.7-0.3-1.4-0.6-2.1c-0.6-1.3-1.4-2.5-2.2-3.7c-0.9-1.2-1.8-2.3-2.8-3.4l-2.9-3.3
		c-1-1.1-1.9-2.2-2.7-3.4c-0.8-1.2-1.4-2.6-1.9-4c-0.2-0.7-0.4-1.4-0.4-2.2c0-0.7,0.1-1.5,0.4-2.2c0.2-0.3,0.4-0.7,0.6-0.9
		c0.3-0.3,0.5-0.5,0.8-0.7c0.6-0.4,1.3-0.7,2-0.8c1.4-0.3,2.9-0.3,4.4-0.1c2.9,0.4,5.7,1.4,8.2,2.9c1.2,0.8,2.4,1.7,3.4,2.7
		c1,1.1,1.8,2.3,2.4,3.7c0.5,1.4,0.8,2.8,0.7,4.3c0,1.5-0.4,2.9-0.9,4.3c-1,2.7-2.7,5.2-5,7.1c-1.1,0.9-2.4,1.7-3.8,2.1
		c-1.4,0.4-2.9,0.5-4.3,0c-1.4-0.5-2.6-1.5-3.5-2.6c-0.9-1.1-1.5-2.6-1.4-4.1c0-1.5,0.5-2.9,1-4.3c0.5-1.4,1.2-2.7,1.8-4
		c0.6-1.3,1.2-2.6,1.6-4c0.2-0.7,0.4-1.4,0.5-2.1l0-0.5c0-0.2,0-0.4,0-0.5l0-0.5l-0.1-0.5c-0.2-1.4-1-2.7-2-3.7
		c-0.5-0.5-1.1-0.9-1.7-1.3c-0.6-0.4-1.2-0.7-1.9-1c-1.3-0.5-2.8-0.8-4.2-0.7c-1.4,0.1-2.9,0.5-4,1.4c-1.2,0.8-2,2.1-2.3,3.5
		c-0.1,0.7-0.2,1.4-0.1,2.1c0.1,0.7,0.3,1.4,0.6,2.1c0.5,1.3,1.2,2.6,1.9,3.9c0.3,0.7,0.6,1.3,0.9,2c0.3,0.7,0.5,1.4,0.6,2.1
		c0.5,2.9-0.2,5.9-1.4,8.5c-1.2,2.6-3,5.1-5.4,6.7c-1.2,0.8-2.6,1.4-4,1.7c-1.4,0.3-3,0.1-4.3-0.4c-1.4-0.5-2.6-1.4-3.6-2.5
		c-1-1-1.9-2.2-2.5-3.5c-0.6-1.3-1-2.8-1.1-4.2c-0.1-1.5,0.1-2.9,0.4-4.3c0.4-1.4,0.9-2.8,1.6-4.1c0.7-1.3,1.5-2.5,2.4-3.6
		c1.8-2.3,4-4.2,6.6-5.7l0,0.1c-1.1,0.3-2.1,0.6-3,1.2c-0.9,0.6-1.7,1.4-2.1,2.4c-0.4,1-0.4,2.2-0.2,3.2c0.2,1.1,0.6,2.1,1.1,3.1
		c1,2,2.3,3.7,3.8,5.3c1.5,1.6,3.1,3.1,5,4.3c1.9,1.1,3.8,2.2,5.9,2.8c1.1,0.3,2.1,0.5,3.2,0.4c0.5-0.1,1.1-0.2,1.5-0.5
		c0.5-0.3,0.9-0.6,1.2-1.1c0.3-0.4,0.6-0.9,0.7-1.4c0.2-0.5,0.2-1.1,0.1-1.6c-0.2-1.1-0.7-2.1-1.3-3c-1.2-1.8-2.8-3.4-3.8-5.4
		c-0.5-1-0.7-2.2-0.4-3.2c0.3-1.1,0.9-2.1,1.8-2.7c0.9-0.6,2.1-0.7,3.2-0.6c1.1,0.1,2.2,0.5,3.1,1c2,1,3.7,2.4,5.2,4
		c1.5,1.6,2.7,3.5,3.3,5.7c0.3,1.1,0.3,2.2,0.1,3.3l-0.1,0.4c0,0.1-0.1,0.3-0.1,0.4L54,45.2c-0.1,0.1-0.1,0.2-0.2,0.4l-0.4,0.7
		L52.9,47c-0.6,0.9-1.4,1.7-2.5,2.2c-1,0.5-2.2,0.5-3.3,0.3c-1.1-0.2-2.1-0.7-3.1-1.2c-1-0.5-1.9-1.2-2.8-1.8
		c-1.8-1.3-3.4-2.7-5.2-4c-0.9-0.6-1.8-1.3-2.8-1.7c-0.5-0.2-1-0.3-1.6-0.4c-0.5-0.1-1.1-0.1-1.6-0.2c-1.1,0-2.2,0.1-3.3,0.4
		c-1.1,0.3-2.1,0.8-2.9,1.4c-1.8,1.3-2.8,3.4-3.2,5.6c-0.4,2.2-0.1,4.4,0.7,6.5c0.8,2,2.1,3.9,3.8,5.3c1.7,1.4,3.7,2.4,5.8,3
		c1.1,0.3,2.2,0.5,3.3,0.5c0.5,0,1.1-0.1,1.6-0.1c0.5-0.1,1.1-0.3,1.5-0.6c0.5-0.3,0.9-0.7,1.1-1.2c0.2-0.5,0.3-1,0.2-1.6
		c-0.1-1.1-0.7-2.1-1.3-3c-1.3-1.8-2.9-3.4-4.7-4.5c-0.9-0.6-1.9-1.1-2.8-1.8c-0.9-0.7-1.6-1.6-1.9-2.7c-0.1-0.3-0.1-0.5-0.2-0.8
		l-0.1-0.4l0-0.4c0-0.3-0.1-0.6-0.1-0.8l0-0.8c0-1.1,0.2-2.2,0.4-3.3c0.3-1.1,0.7-2.1,1.4-3c0.7-0.9,1.6-1.6,2.6-2
		c2-0.9,4.4-0.9,6.5-0.2c2.1,0.6,4,1.8,5.7,3.3c1.7,1.5,3.1,3.2,4.1,5.1C49.5,45.9,50.2,48.1,50.1,50.3L50.1,50.3z"/>
	<path class="st0" d="M35.2,55.3c0.9,0.4,1.5,1.1,1.8,2c0.4,0.8,0.6,1.7,0.8,2.6c0.3,1.8,0.4,3.6,0.5,5.4c0,1.8,0,3.6,0,5.5l0.1,2.7
		l0.1,1.4l0,1.4c0,0.9,0,1.8,0,2.7l-0.1,2.7l-0.2,5.5c0,0.9-0.1,1.8-0.1,2.7c0,0.9,0,1.8,0,2.7c0,0.9,0,1.8,0,2.7l0.1,2.7l-0.1,0
		l0.4-43.4h0.2l0.3,12.5l0.6,12.5l0.6,12.5l0.3,12.5c0,0.1-0.1,0.1-0.1,0.1c-0.1,0-0.1,0-0.1-0.1l-0.6-3.4l-0.4-3.4l-0.2-3.4
		L39,90.9l0.1-3.4l0.2-3.4l0.2-3.4l0.3-3.4l0.7-6.9l0.3-3.4l0.3-3.4l0.3-3.4l0.2-3.4l0.1-3.4l0-3.4v0c0-0.1,0.1-0.2,0.2-0.2
		c0.1,0,0.2,0.1,0.2,0.2l0.1,8.6l-0.2,8.6l-0.3,8.6l-0.4,8.6l-0.5,8.6l-0.4,8.6l-0.3,8.6l-0.1,8.6h-0.4l0-8.6l0-4.3
		c0-1.4,0-2.9,0.1-4.3l0.1-4.3l0.1-2.2c0-0.7,0.1-1.4,0.1-2.1c0.2-2.9,0.4-5.7,0.6-8.6l0.2-2.1l0.1-2.1l0.2-4.3l0.2-4.3
		c0.1-1.4,0.1-2.9,0.3-4.3l0.2-2.1c0.1-0.7,0.1-1.4,0.2-2.1c0.2-1.4,0.3-2.9,0.5-4.3c0.2-1.4,0.4-2.8,0.7-4.3l0.9-4.2
		c0-0.1,0.1-0.2,0.2-0.1c0.1,0,0.1,0.1,0.1,0.2v0l-0.9,32.8l-0.4,32.8c0,0.1-0.1,0.2-0.2,0.2c-0.1,0-0.2-0.1-0.2-0.2L42.3,100
		l-0.1-7.7c0-1.3-0.1-2.6,0-3.9c0-1.3,0-2.6,0.1-3.9l0.2-3.9l0.3-3.9c0.1-1.3,0.2-2.6,0.4-3.9l0.4-3.9l0.4-3.9
		c0.1-1.3,0.3-2.6,0.3-3.9c0.1-1.3,0.2-2.6,0.3-3.9l0.2-3.9l0,0c0-0.1,0.1-0.1,0.1-0.1c0.1,0,0.1,0.1,0.1,0.1l0.1,3.9L45,61.5
		l-0.3,3.9l-0.3,3.9c-0.2,2.6-0.5,5.2-0.7,7.7c-0.1,1.3-0.2,2.6-0.3,3.9l-0.1,1l0,1l0,1.9c0,1.3,0,2.6-0.1,3.9
		c-0.1,1.3-0.1,2.6-0.2,3.9c-0.2,2.6-0.4,5.2-0.5,7.7c-0.1,1.3-0.1,2.6-0.1,3.9c0,0.6,0,1.3,0,1.9l0,1l0,1l0,1l0.1,1
		c0,0.6,0.1,1.3,0.2,1.9c0.1,0.6,0.2,1.3,0.4,1.9c0.1,0.3,0.2,0.6,0.3,0.9l0.3,0.9l-0.2,0c0.1-1.4,0.2-2.8,0.2-4.2
		c0-1.4,0.1-2.8,0.1-4.2c0-1.4,0-2.8,0-4.2l0-4.2l0-4.2c0-1.4,0-2.8,0.1-4.2l0.1-2.1c0-0.7,0.1-1.4,0.1-2.1l0.1-2.1
		c0-0.7,0.1-1.4,0.2-2.1l0.4-4.2l0.5-4.2l1.1-8.3c0.2-1.4,0.4-2.8,0.5-4.1c0.2-1.4,0.3-2.8,0.5-4.2c0.1-1.4,0.3-2.8,0.4-4.2l0.3-4.2
		v0c0,0,0-0.1,0.1-0.1c0,0,0.1,0,0.1,0.1l0,4.5c0,0.4,0,0.7,0,1.1l-0.1,1.1l-0.1,2.2c0,0.4,0,0.7-0.1,1.1l-0.1,1.1l-0.2,2.2
		c-0.1,1.5-0.3,3-0.5,4.4c-0.2,1.5-0.4,3-0.6,4.4l-0.6,4.4c-0.2,1.5-0.4,3-0.6,4.4c-0.1,1.5-0.3,3-0.5,4.4L44.4,89l-0.1,4.5
		l-0.2,8.9l0,2.2l0,2.2l0,4.5l0,8.9h-0.2l0-9.4c0-3.1,0-6.3,0-9.4c0-1.6,0-3.1,0.1-4.7c0.1-1.6,0.1-3.1,0.2-4.7l0.1-2.3l0.1-1.2
		l0.1-1.2c0.1-1.6,0.2-3.1,0.4-4.7c0.1-0.8,0.2-1.6,0.3-2.3c0.1-0.8,0.2-1.6,0.4-2.3c0.1-0.8,0.3-1.5,0.4-2.3
		c0.1-0.8,0.3-1.5,0.5-2.3c0.6-3.1,1.3-6.1,2-9.2c0.3-1.5,0.6-3.1,0.9-4.6l0.4-2.3l0.4-2.3l0.3-2.3l0.2-2.3l0.2-2.3l0.1-2.3l0.2,0
		L50,50.3c-0.3,1.5-0.6,3-0.9,4.6c-0.2,0.8-0.2,1.5-0.4,2.3l-0.3,2.3l-0.2,1.2c0,0.4-0.1,0.8-0.1,1.2l-0.2,2.3
		c-0.2,1.5-0.3,3.1-0.4,4.6l-0.2,2.3l-0.1,2.3c-0.1,1.6-0.1,3.1-0.2,4.7l-0.1,4.7l-0.1,4.7L46.6,92c-0.1,3.1-0.3,6.2-0.4,9.3
		c-0.1,1.6-0.1,3.1-0.1,4.7c0,1.6,0,3.1,0,4.7c0,1.6,0.1,3.1,0.1,4.7c0.1,1.6,0.2,3.1,0.2,4.7l-0.3,0c0.1-0.7,0.3-1.5,0.5-2.2
		l0.2-1.1l0.1-0.6l0.1-0.6c0.1-0.8,0.2-1.5,0.2-2.3c0-0.8,0.1-1.5,0.1-2.3l0-1.1l0-1.1l0-1.1l-0.1-1.1c0-0.8-0.1-1.5-0.1-2.3
		c-0.1-0.8-0.1-1.5-0.2-2.3c-0.1-1.5-0.3-3-0.4-4.5l-0.5-4.5c-0.2-1.5-0.3-3-0.4-4.6c-0.1-0.8-0.1-1.5-0.1-2.3l0-2.3l0-2.3
		c0-0.8,0-1.5,0-2.3c0-1.5,0-3,0.2-4.6c0.1-1.5,0.2-3,0.4-4.6l0.3-2.3l0.1-1.1l0.2-1.1l0.4-2.3c0.1-0.8,0.2-1.5,0.4-2.3l0.5-2.2
		c0.2-0.7,0.3-1.5,0.5-2.2c0.4-1.5,0.7-3,1.1-4.4l1.3-4.4c0-0.1,0.1-0.2,0.2-0.1c0.1,0,0.1,0.1,0.1,0.2l0,0l-2,17l-0.9,8.5L47,81.7
		l-0.6,8.5L46,98.7l-0.2,8.5l0.1,8.5l-0.4,0l0.1-4.1l0-4.1c0-1.4,0-2.7-0.1-4.1l-0.1-4.1l-0.1-4.1c0-1.4,0-2.7,0-4.1
		c0-1.4,0.1-2.7,0.1-4.1c0-0.7,0-1.4,0.1-2.1l0.2-2.1c0.1-0.7,0.1-1.4,0.2-2.1l0.3-2c0.1-0.7,0.2-1.4,0.3-2l0.3-2
		c0.2-1.4,0.4-2.7,0.7-4.1c0.2-1.4,0.5-2.7,0.8-4l1.6-8.1l0.8-4l0.7-4l0.4,0.1L49.9,59l-0.7,4.2l-0.7,4.2l-1.1,8.5l-0.8,8.5
		l-0.5,8.5l-0.3,8.5l-0.1,8.5l0.1,8.5l-0.4,0c0.1-0.7,0.3-1.3,0.4-2c0.1-0.7,0.2-1.4,0.3-2.1c0.1-0.7,0.2-1.4,0.2-2.1
		c0-0.7,0.1-1.4,0.1-2.1l0-1l0-1c0-0.7,0-1.4,0-2.1c0-1.4-0.1-2.8-0.2-4.2c-0.2-2.8-0.4-5.6-0.6-8.3c-0.1-1.4-0.1-2.8-0.2-4.2
		c0-1.4,0-2.8,0-4.2c0-1.4,0.1-2.8,0.1-4.2l0.1-2.1l0.2-2.1l0.2-2.1c0.1-0.7,0.1-1.4,0.2-2.1c0.2-1.4,0.3-2.8,0.5-4.2l0.3-2.1l0.2-1
		c0.1-0.3,0.1-0.7,0.2-1l0.4-2.1c0.1-0.7,0.2-1.4,0.4-2c0.4-1.4,0.7-2.7,1.1-4.1l1.3-4c0-0.1,0.2-0.2,0.3-0.1c0.1,0,0.1,0.1,0.1,0.2
		l0,4.1c-0.1,1.4-0.2,2.8-0.3,4.1c-0.1,1.4-0.3,2.7-0.4,4.1c-0.1,1.4-0.3,2.7-0.5,4.1c-0.2,1.4-0.4,2.7-0.5,4.1L48.8,77
		c-0.2,1.4-0.3,2.7-0.5,4.1l-0.2,2.1L48,85.2c-0.1,1.4-0.2,2.7-0.3,4.1l-0.3,4.1l-0.5,8.3l-0.2,4.1l-0.2,4.1l-0.5,8.3v0
		c0,0.1-0.1,0.2-0.2,0.2c-0.1,0-0.2-0.1-0.2-0.2l0.1-8.3l0.3-8.3l0.6-8.3l0.8-8.3l1.1-8.3l1.3-8.2l1.5-8.2l1.8-8.1l0,0
		c0-0.1,0.1-0.1,0.2-0.1c0.1,0,0.1,0.1,0.1,0.2c0,0.7,0.1,1.4,0.1,2c0,0.7,0,1.4,0,2c0,1.4-0.1,2.7-0.3,4.1c-0.1,1.3-0.3,2.7-0.4,4
		c-0.2,1.3-0.3,2.7-0.5,4c-0.4,2.7-0.8,5.4-1.1,8c-0.2,1.3-0.4,2.7-0.5,4c-0.1,0.7-0.1,1.3-0.2,2c-0.1,0.7-0.1,1.3-0.2,2
		c-0.1,1.3-0.1,2.7-0.2,4l-0.2,4.1l-0.4,8.1c-0.1,1.4-0.1,2.7-0.1,4.1l-0.1,4.1c0,1.4,0,2.7,0.1,4.1l0.1,4.1l-0.3,0l0-2
		c0-0.7,0-1.3,0-2l-0.1-2c0-0.7-0.1-1.3-0.1-2c-0.1-2.7-0.3-5.3-0.5-8c-0.1-1.3-0.2-2.7-0.2-4l-0.1-2l0-2c0-1.3,0-2.7,0.1-4l0.1-4
		c0.2-5.3,0.4-10.6,1-15.9c0.1-0.7,0.1-1.3,0.2-2l0.3-2c0.2-1.3,0.4-2.6,0.7-3.9c0.1-0.7,0.3-1.3,0.4-2c0.2-0.6,0.3-1.3,0.5-1.9
		c0.2-0.6,0.3-1.3,0.5-1.9l0.6-1.9c0,0,0.1-0.1,0.1-0.1c0,0,0.1,0.1,0.1,0.1l0,0l-1.4,8.2l-1,8.3l-0.7,8.3l-0.5,8.3L49,94.8
		l-0.2,8.3l-0.2,8.3l-0.2,8.3c0,0,0,0,0,0c0,0,0,0,0,0l0-3.8c0,0,0,0,0,0c0,0,0,0,0,0l0,3.8l-0.1,0l0.2-8.3l0.2-8.3l0.2-8.3l0.3-8.3
		l0.4-8.3l0.7-8.3l1-8.3l1.4-8.2l0.2,0l-0.6,1.9c-0.2,0.6-0.4,1.3-0.5,1.9c-0.2,0.6-0.3,1.3-0.5,1.9c-0.2,0.6-0.3,1.3-0.4,1.9
		c-0.3,1.3-0.5,2.6-0.7,3.9l-0.3,2c-0.1,0.7-0.2,1.3-0.2,2c-0.6,5.3-0.8,10.6-1,15.9l-0.1,4c0,1.3-0.1,2.7-0.1,4l0,2l0.1,2
		c0,1.3,0.1,2.7,0.2,4c0.2,2.7,0.4,5.3,0.5,8c0,0.7,0.1,1.3,0.1,2l0.1,2c0,0.7,0,1.3,0,2l0,2c0,0.1-0.1,0.1-0.1,0.1
		c-0.1,0-0.1-0.1-0.1-0.1l-0.1-4.1c0-1.4-0.1-2.7-0.1-4.1l0.1-4.1c0-1.4,0-2.7,0.1-4.1l0.3-8.1l0.2-4.1c0.1-1.4,0.1-2.7,0.2-4.1
		c0-0.7,0.1-1.4,0.2-2c0.1-0.7,0.1-1.3,0.2-2c0.1-1.3,0.3-2.7,0.5-4c0.4-2.7,0.8-5.4,1.1-8c0.2-1.3,0.4-2.7,0.5-4
		c0.2-1.3,0.3-2.7,0.4-4c0.1-1.3,0.2-2.7,0.2-4c0-0.7,0-1.3,0-2c0-0.7-0.1-1.3-0.1-2l0.3,0l-1.8,8.1l-1.5,8.2l-1.3,8.2l-1,8.3
		l-0.8,8.3l-0.6,8.3l-0.3,8.3l-0.1,8.3l-0.4,0l0.5-8.3l0.2-4.1l0.2-4.1l0.5-8.3l0.3-4.1c0.1-1.4,0.2-2.8,0.3-4.1l0.2-2.1l0.2-2.1
		c0.1-1.4,0.3-2.7,0.5-4.1l0.5-4.1c0.2-1.4,0.4-2.7,0.5-4.1c0.2-1.4,0.4-2.7,0.5-4.1c0.1-1.4,0.3-2.7,0.4-4.1
		c0.1-1.4,0.2-2.7,0.3-4.1l0-4.1l0.4,0.1l-1.3,4c-0.4,1.3-0.7,2.7-1.1,4c-0.2,0.7-0.3,1.4-0.4,2l-0.4,2c-0.1,0.3-0.1,0.7-0.2,1
		l-0.2,1l-0.3,2.1c-0.2,1.4-0.3,2.8-0.5,4.1c-0.1,0.7-0.2,1.4-0.2,2.1l-0.2,2.1l-0.2,2.1L46.1,81C46,82.4,46,83.8,46,85.2
		c0,1.4-0.1,2.8,0,4.2c0,1.4,0.1,2.8,0.2,4.2c0.2,2.8,0.4,5.6,0.6,8.3c0.1,1.4,0.2,2.8,0.2,4.2c0,0.7,0,1.4,0,2.1l0,1l0,1
		c0,0.7,0,1.4-0.1,2.1c0,0.7-0.1,1.4-0.2,2.1c-0.1,0.7-0.2,1.4-0.3,2.1c-0.1,0.7-0.3,1.4-0.4,2.1c0,0.1-0.1,0.2-0.2,0.2
		c-0.1,0-0.2-0.1-0.2-0.2v0l-0.1-8.5l0.1-8.5l0.3-8.5l0.5-8.5l0.8-8.5l1.1-8.5l0.7-4.2l0.7-4.2l0.9-4.2l0.9-4.2
		c0-0.1,0.1-0.2,0.2-0.2c0.1,0,0.2,0.1,0.2,0.2L51,54.7l-0.8,4l-1.6,8.1c-0.3,1.3-0.5,2.7-0.8,4c-0.2,1.3-0.5,2.7-0.7,4l-0.3,2
		c-0.1,0.7-0.2,1.4-0.3,2l-0.3,2c-0.1,0.7-0.1,1.4-0.2,2L46,85c-0.1,0.7-0.1,1.4-0.1,2c0,1.4-0.1,2.7-0.1,4.1c0,1.4,0,2.7,0,4.1
		l0.1,4.1l0.1,4.1c0,1.4,0.1,2.7,0.1,4.1l0,4.1l-0.1,4.1c0,0.1-0.1,0.2-0.2,0.2c-0.1,0-0.2-0.1-0.2-0.2l-0.1-8.6l0.2-8.5l0.4-8.5
		l0.6-8.5l0.8-8.5l0.9-8.5l1-8.5l1-8.5l0.4,0.1l-1.3,4.4c-0.4,1.5-0.8,2.9-1.1,4.4c-0.2,0.7-0.3,1.5-0.5,2.2L47.4,61
		c-0.2,0.7-0.3,1.5-0.4,2.2l-0.4,2.2l-0.2,1.1l-0.1,1.1L46,70c-0.2,1.5-0.2,3-0.4,4.5c-0.1,1.5-0.1,3-0.2,4.6c0,0.8-0.1,1.5,0,2.3
		l0,2.3l0,2.3c0,0.8,0.1,1.5,0.1,2.3c0.1,1.5,0.2,3,0.4,4.5l0.5,4.5c0.2,1.5,0.3,3,0.4,4.5c0.1,0.8,0.1,1.5,0.2,2.3
		c0.1,0.8,0.1,1.5,0.1,2.3l0.1,1.1l0,1.1l0,1.1l0,1.1c0,0.8,0,1.5-0.1,2.3c0,0.8-0.1,1.5-0.2,2.3l-0.1,0.6l-0.1,0.6l-0.2,1.1
		c-0.1,0.8-0.3,1.5-0.5,2.2c0,0.1-0.1,0.1-0.2,0.1c-0.1,0-0.1-0.1-0.1-0.1v0c-0.1-1.6-0.2-3.1-0.2-4.7c0-1.6-0.1-3.1-0.1-4.7
		c0-1.6,0-3.1,0-4.7c0-1.6,0.1-3.1,0.1-4.7c0.1-3.1,0.2-6.2,0.4-9.3l0.2-4.7l0.1-4.7l0.2-4.7c0-1.6,0.1-3.1,0.2-4.7l0.1-2.3l0.2-2.3
		c0.1-1.6,0.2-3.1,0.4-4.7l0.2-2.3c0-0.4,0.1-0.8,0.1-1.2l0.2-1.2l0.3-2.3c0.1-0.8,0.2-1.5,0.4-2.3c0.3-1.5,0.6-3.1,0.9-4.6l1.2-4.5
		c0-0.1,0.1-0.1,0.1-0.1c0.1,0,0.1,0.1,0.1,0.1l-0.1,2.4l-0.2,2.3l-0.2,2.3l-0.3,2.3L50,57.4l-0.4,2.3c-0.3,1.5-0.6,3.1-0.9,4.6
		c-0.7,3.1-1.3,6.1-2,9.2c-0.2,0.8-0.3,1.5-0.5,2.3c-0.2,0.8-0.3,1.5-0.4,2.3c-0.1,0.8-0.3,1.5-0.4,2.3c-0.1,0.8-0.2,1.5-0.3,2.3
		c-0.2,1.6-0.3,3.1-0.4,4.7l-0.1,1.2l-0.1,1.2l-0.1,2.3c-0.1,1.6-0.1,3.1-0.2,4.7c-0.1,1.6-0.1,3.1-0.1,4.7c0,3.1,0,6.3,0,9.4l0,9.4
		c0,0,0,0.1-0.1,0.1c0,0-0.1,0-0.1-0.1l0-8.9l0-4.5v-2.2l0-2.2l0.2-8.9l0.1-4.5l0.3-4.5c0.1-1.5,0.3-3,0.5-4.5
		c0.1-1.5,0.4-3,0.6-4.4l0.6-4.4c0.2-1.5,0.4-3,0.6-4.4c0.2-1.5,0.4-3,0.5-4.4l0.2-2.2l0.1-1.1c0-0.4,0-0.7,0.1-1.1
		c0.1-1.5,0.2-3,0.2-4.5l0-4.5l0.1,0l-0.3,4.2c-0.1,1.4-0.3,2.8-0.4,4.2c-0.1,1.4-0.3,2.8-0.5,4.2c-0.2,1.4-0.3,2.8-0.5,4.1l-1,8.3
		L44.8,78l-0.4,4.2c-0.1,0.7-0.1,1.4-0.2,2.1l-0.1,2.1c0,0.7-0.1,1.4-0.1,2.1l-0.1,2.1c-0.1,1.4,0,2.8-0.1,4.2l0,4.2l0,4.2
		c0,1.4,0,2.8,0,4.2c0,1.4,0,2.8-0.1,4.2c0,1.4-0.2,2.8-0.2,4.2c0,0.1,0,0.1-0.1,0.1c0,0-0.1,0-0.1-0.1l-0.3-0.9
		c-0.1-0.3-0.2-0.6-0.3-0.9c-0.1-0.6-0.3-1.3-0.4-1.9c-0.1-0.6-0.2-1.3-0.2-1.9l-0.1-1l0-1l0-1l0-1c0-0.6,0-1.3,0-1.9
		c0-1.3,0.1-2.6,0.1-3.9c0.1-2.6,0.4-5.2,0.5-7.7c0.1-1.3,0.2-2.6,0.2-3.9C43,87.3,43,86,43,84.7l0-1.9l0-1l0.1-1
		c0.1-1.3,0.1-2.6,0.3-3.9c0.2-2.6,0.5-5.2,0.7-7.7l0.3-3.9l0.3-3.9l0.1-3.9l-0.1-3.9l0.3,0l-0.2,3.9c-0.1,1.3-0.2,2.6-0.3,3.9
		c-0.1,1.3-0.2,2.6-0.3,3.9l-0.4,3.9L43.4,73c-0.1,1.3-0.3,2.6-0.4,3.9l-0.3,3.9l-0.2,3.9c-0.1,1.3-0.1,2.6-0.1,3.9
		c0,1.3,0,2.6,0,3.9l0.1,7.7l0.3,15.5h-0.3l0.4-32.8l0.9-32.8l0.4,0.1l-0.9,4.2c-0.2,1.4-0.4,2.8-0.7,4.2c-0.2,1.4-0.3,2.8-0.5,4.3
		C42,63.4,42,64.1,42,64.8L41.8,67c-0.1,1.4-0.2,2.9-0.3,4.3l-0.2,4.3l-0.2,4.3L41,82l-0.2,2.1c-0.2,2.9-0.4,5.7-0.6,8.6
		c0,0.7-0.1,1.4-0.1,2.1L40,97l-0.1,4.3c-0.1,1.4,0,2.9-0.1,4.3l0,4.3l0,8.6v0c0,0.1-0.1,0.2-0.2,0.2c-0.1,0-0.2-0.1-0.2-0.2v0
		l0.1-8.6l0.3-8.6l0.4-8.6l0.5-8.6l0.5-8.6l0.3-8.6l0.2-8.6l-0.1-8.6l0.3,0l0,3.4l-0.1,3.4L41.7,60l-0.3,3.4l-0.3,3.4l-0.3,3.4
		l-0.7,6.8l-0.3,3.4L39.5,84l-0.2,3.4l-0.1,3.4l0.1,3.4l0.2,3.4l0.4,3.4l0.6,3.4l-0.3,0L40,92.1l-0.6-12.5l-0.6-12.5l-0.3-12.5
		c0-0.1,0-0.1,0.1-0.1c0.1,0,0.1,0,0.1,0.1v0L38.4,98v0c0,0,0,0.1-0.1,0.1c0,0-0.1,0-0.1-0.1l-0.1-2.7c0-0.9,0-1.8,0-2.7
		c0-0.9,0-1.8,0-2.7c0-0.9,0-1.8,0.1-2.7l0.2-5.5l0.1-2.7c0-0.9,0-1.8,0-2.7l0-1.4l-0.1-1.4l-0.1-2.7c0-1.8,0-3.6,0-5.5
		c0-1.8-0.1-3.6-0.5-5.4c-0.2-0.9-0.4-1.8-0.8-2.6C36.7,56.4,36.1,55.7,35.2,55.3C35.2,55.3,35.2,55.3,35.2,55.3
		C35.2,55.3,35.2,55.3,35.2,55.3L35.2,55.3z"/>
	<path class="st1" d="M38.7,77.2c-0.1-0.2-0.3-0.2-0.5-0.3c0,0-0.1,0-0.1-0.1c0-0.1,0-0.1,0-0.2c0-0.1,0.1-0.2,0.1-0.3c0,0,0,0,0,0
		l2.2-0.2l2.2-0.3l2.2-0.4l2.2-0.4l0,0.1c-0.7,0-1.4,0-2.2,0.1c-0.7,0-1.4,0.1-2.2,0.1c-0.4,0-0.7,0-1.1,0c-0.4,0-0.7,0-1.1-0.1
		c-0.4,0-0.7-0.1-1.1-0.1c-0.2,0-0.4-0.1-0.5-0.1l-0.5-0.1c0,0-0.1,0,0-0.1c0,0,0,0,0.1,0h0l2.5-0.2l2.5-0.2l2.5-0.2l2.5,0
		c0.1,0,0.1,0,0.1,0.1c0,0.1,0,0.1-0.1,0.1h0l-2.3,0c-0.8,0-1.5,0-2.3,0c-0.2,0-0.4,0-0.6,0l-0.6,0c-0.2,0-0.4,0-0.6,0.1l-0.6,0.1
		c-0.2,0-0.4,0.1-0.6,0.1l-0.6,0.1c-0.2,0-0.4,0.1-0.5,0.2L39.1,75l0-0.2c0.2,0.1,0.3,0.3,0.5,0.4c0.2,0.1,0.4,0.2,0.6,0.3
		c0.2,0.1,0.4,0.2,0.6,0.2c0.2,0.1,0.4,0.1,0.6,0.2c0.2,0.1,0.4,0.1,0.6,0.2c0.2,0,0.4,0.1,0.7,0.1l0.7,0.1l0.7,0.1l0.7,0
		c0.2,0,0.4,0,0.7,0c0.2,0,0.4,0,0.7-0.1c0.2,0,0.4-0.1,0.7-0.1c0.2,0,0.4-0.1,0.6-0.1c0.2,0,0.4-0.1,0.6-0.2
		c0.2-0.1,0.4-0.2,0.6-0.3c0.2-0.1,0.4-0.2,0.5-0.3l0,0.2c-0.2-0.1-0.4-0.3-0.6-0.4c-0.2-0.1-0.4-0.3-0.6-0.3
		c-0.2-0.1-0.4-0.2-0.7-0.3c-0.2-0.1-0.5-0.1-0.7-0.2c-0.2,0-0.5-0.1-0.7-0.1c-0.2,0-0.5-0.1-0.7-0.1c-0.2,0-0.5,0-0.7,0
		c-0.2,0-0.5,0-0.7,0c-0.2,0-0.5,0-0.7,0.1l-0.7,0.1l-0.7,0.2c-0.2,0.1-0.5,0.1-0.7,0.2c-0.2,0.1-0.5,0.2-0.7,0.2
		c-0.2,0.1-0.4,0.2-0.7,0.3c-0.2,0.1-0.4,0.2-0.6,0.4c-0.2,0.1-0.4,0.3-0.6,0.4l0-0.2c0.2,0.2,0.4,0.4,0.6,0.5
		c0.2,0.2,0.5,0.3,0.7,0.4c0.3,0.1,0.5,0.2,0.8,0.3c0.3,0.1,0.5,0.2,0.8,0.2c1.1,0.3,2.3,0.4,3.4,0.4c1.1,0,2.3-0.1,3.4-0.4
		c0.5-0.2,1.1-0.4,1.6-0.6c0.2-0.1,0.5-0.3,0.6-0.5c0.2-0.2,0.3-0.4,0.5-0.7l0.1,0.2c-0.5-0.1-1.1-0.2-1.7-0.3
		c-0.6-0.1-1.1-0.1-1.7-0.2l-0.8,0l-0.8,0l-0.8,0c-0.3,0-0.6,0.1-0.8,0.1c-0.3,0-0.5,0.1-0.8,0.1c-0.3,0.1-0.5,0.1-0.8,0.2
		c-0.3,0.1-0.5,0.2-0.8,0.3c-0.3,0.1-0.5,0.2-0.7,0.4c-0.2,0.1-0.5,0.3-0.7,0.4l-0.6,0.5l-0.5,0.6l-0.4,0.7l0-0.2
		c0.2,0.2,0.4,0.3,0.7,0.5c0.2,0.1,0.5,0.3,0.7,0.4c0.3,0.1,0.5,0.2,0.8,0.3c0.3,0.1,0.5,0.2,0.8,0.2c0.3,0,0.6,0.1,0.8,0.1
		c0.3,0,0.6,0.1,0.8,0.1c0.3,0,0.6,0,0.8,0l0.8-0.1l0.8-0.1c0.3,0,0.6-0.1,0.8-0.2c0.3-0.1,0.5-0.1,0.8-0.2c0.3-0.1,0.5-0.2,0.8-0.3
		c0.3-0.1,0.5-0.2,0.8-0.3c0.3-0.1,0.5-0.3,0.7-0.4c0.2-0.1,0.5-0.3,0.7-0.5c0.2-0.2,0.4-0.4,0.6-0.6l0.1,0.3
		c-0.6-0.2-1.2-0.3-1.8-0.4c-0.6-0.1-1.3-0.2-1.9-0.3c-1.3-0.1-2.5-0.2-3.8-0.3c-1.3,0-2.6,0-3.8,0.2c-0.6,0.1-1.3,0.2-1.9,0.4
		c-0.6,0.2-1.2,0.5-1.5,0.9c-0.1,0.1-0.1,0.2-0.2,0.4c0,0.1-0.1,0.3-0.1,0.4c0,0.1,0,0.2,0,0.2l0,0.2c0,0.1,0,0.1,0.1,0.2
		c0,0.1,0,0.1,0.1,0.2c0.3,0.5,0.8,0.8,1.4,1c0.6,0.2,1.2,0.2,1.9,0.3c0.6,0,1.3,0,1.9-0.1c1.3-0.1,2.5-0.4,3.7-0.8
		c0.6-0.2,1.2-0.4,1.8-0.6c0.6-0.3,1.2-0.5,1.6-0.9l0,0.3c-0.4-0.3-1-0.5-1.6-0.7c-0.6-0.2-1.2-0.2-1.7-0.3
		c-1.2-0.1-2.4-0.1-3.6,0.1c-0.6,0.1-1.2,0.2-1.7,0.4c-0.6,0.2-1.1,0.5-1.5,0.8c-0.5,0.4-0.8,0.8-0.9,1.4c-0.1,0.1-0.1,0.3-0.1,0.4
		c0,0.1,0,0.3,0,0.4c0,0.3,0.1,0.5,0.1,0.8c0.2,0.5,0.6,0.9,1.1,1.2c0.5,0.3,1.1,0.4,1.7,0.4c0.6,0,1.2,0,1.8,0
		c0.6-0.1,1.2-0.2,1.8-0.3c1.2-0.3,2.3-0.7,3.3-1.3c0.5-0.3,1-0.6,1.5-1c0.5-0.4,0.9-0.8,1.1-1.3l0.1,0.2c-0.5-0.4-1.2-0.6-1.8-0.8
		c-0.6-0.2-1.3-0.3-2-0.3c-1.3-0.1-2.7,0-4,0.3c-1.3,0.3-2.6,0.8-3.5,1.8c-0.4,0.5-0.7,1.1-0.8,1.7c0,0.3,0,0.7,0,1l0,0.1l0,0.1
		l0.1,0.2c0.1,0.2,0.1,0.3,0.2,0.4c0.4,0.5,0.9,0.9,1.5,1.2c0.6,0.2,1.3,0.4,1.9,0.5c1.3,0.1,2.7,0.1,4-0.2c1.3-0.3,2.6-0.7,3.7-1.5
		c0.3-0.2,0.5-0.4,0.7-0.7c0.1-0.1,0.2-0.3,0.2-0.4c0-0.2,0.1-0.3,0.1-0.5c0-0.2,0-0.3-0.1-0.5c-0.1-0.1-0.1-0.3-0.2-0.4L50,81.8
		c0-0.1-0.1-0.1-0.2-0.2c-0.1-0.1-0.2-0.2-0.4-0.3c-0.5-0.4-1.2-0.6-1.8-0.7c-0.7-0.1-1.3-0.2-2-0.2c-1.3,0-2.7,0.1-4,0.4
		c-1.3,0.3-2.6,0.8-3.7,1.6c-0.5,0.4-1,0.9-1.2,1.5c-0.1,0.2-0.1,0.3-0.1,0.5c0,0.2,0,0.3,0,0.5l0,0.1l0,0.1l0.1,0.2
		c0,0.2,0.1,0.3,0.2,0.4c0.3,0.6,0.8,1,1.4,1.3c0.6,0.3,1.2,0.5,1.9,0.6c1.3,0.2,2.7,0.2,4,0c1.3-0.2,2.7-0.5,3.9-1
		c0.6-0.2,1.2-0.5,1.8-0.9c0.6-0.4,1.1-0.8,1.4-1.4l0,0.1c-0.4-0.4-0.9-0.7-1.5-0.9c-0.6-0.2-1.1-0.4-1.7-0.6
		c-1.2-0.3-2.4-0.5-3.6-0.7c-1.2-0.1-2.4-0.1-3.6,0c-0.6,0.1-1.2,0.3-1.7,0.6c-0.3,0.1-0.5,0.4-0.6,0.6c-0.1,0.2-0.3,0.5-0.3,0.8
		c-0.1,0.6,0.3,1.1,0.8,1.5c0.5,0.4,1,0.6,1.6,0.8c1.1,0.4,2.4,0.6,3.6,0.7c1.2,0.1,2.4,0,3.6-0.1c0.6-0.1,1.2-0.2,1.7-0.5
		c0.3-0.1,0.5-0.3,0.8-0.4c0.2-0.2,0.4-0.4,0.5-0.7c0.1-0.6-0.3-1.1-0.8-1.4c-0.5-0.3-1.1-0.5-1.7-0.6c-1.2-0.2-2.4-0.3-3.6-0.2
		c-1.2,0.1-2.4,0.3-3.6,0.6c-1.2,0.3-2.3,0.8-3.2,1.6c-0.4,0.4-0.8,0.9-0.9,1.5c0,0.1,0,0.3,0,0.4c0,0.1,0,0.3,0.1,0.4
		c0.1,0.3,0.2,0.5,0.4,0.8c0.4,0.5,0.9,0.8,1.5,1c0.6,0.2,1.1,0.4,1.7,0.5c1.2,0.2,2.4,0.2,3.6,0.2c1.2-0.1,2.4-0.3,3.5-0.8
		c0.6-0.2,1.1-0.5,1.5-0.9l0.2-0.2l0.1-0.2c0.1-0.1,0.2-0.2,0.2-0.4c0.1-0.1,0.1-0.3,0.1-0.4c0-0.2,0-0.3,0-0.4l0-0.2
		c0-0.1,0-0.1-0.1-0.2c0-0.1-0.1-0.3-0.2-0.4c-0.2-0.2-0.4-0.4-0.7-0.6c-0.5-0.3-1.1-0.4-1.7-0.4c-1.2,0-2.4,0.2-3.6,0.5
		c-1.2,0.3-2.3,0.8-3.4,1.3c-0.5,0.3-1.1,0.6-1.5,1c-0.5,0.4-0.9,0.8-1.2,1.3c-0.1,0.1-0.1,0.3-0.2,0.4l-0.1,0.4l0,0.4
		c0,0.1,0,0.3,0,0.4c0.1,0.6,0.4,1.1,0.9,1.5c0.5,0.4,1,0.6,1.6,0.7c0.6,0.1,1.2,0.2,1.8,0.2c1.2,0,2.4-0.2,3.6-0.6
		c0.6-0.2,1.1-0.4,1.7-0.7c0.5-0.3,1-0.7,1.3-1.2c0.2-0.5,0.3-1.2,0-1.7c-0.1-0.3-0.3-0.5-0.6-0.6c-0.2-0.2-0.5-0.3-0.8-0.4
		c-1.1-0.4-2.4-0.4-3.6-0.3c-0.6,0.1-1.2,0.2-1.8,0.3c-0.6,0.2-1.2,0.4-1.6,0.7c-0.3,0.2-0.5,0.4-0.6,0.6c-0.1,0.1-0.1,0.2-0.2,0.4
		l-0.1,0.4c-0.1,0.6,0,1.2,0.3,1.7c0.4,0.5,0.9,0.7,1.5,0.9c0.6,0.2,1.2,0.2,1.8,0.2c1.2,0,2.4-0.2,3.6-0.5c0.6-0.2,1.2-0.3,1.7-0.6
		c0.6-0.2,1.1-0.5,1.5-0.9l0,0.2c-0.5-0.9-1.4-1.4-2.4-1.6c-1-0.2-2-0.2-3,0c-1,0.2-2,0.6-2.8,1.1c-0.8,0.6-1.5,1.4-1.6,2.4
		c-0.1,0.5,0,1,0.1,1.5c0.2,0.5,0.5,0.9,0.9,1.1c0.4,0.3,0.9,0.4,1.4,0.5c0.5,0.1,1,0.1,1.5,0.1c1-0.1,2-0.3,3-0.6
		c0.5-0.2,0.9-0.4,1.4-0.6c0.4-0.3,0.8-0.5,1.2-0.9l0,0.2c-0.2-0.2-0.4-0.3-0.6-0.4c-0.1-0.1-0.2-0.1-0.4-0.2
		c-0.1,0-0.2-0.1-0.4-0.1c-0.5-0.1-1-0.1-1.6-0.1c-0.5,0.1-1.1,0.2-1.6,0.3c-0.5,0.2-1,0.3-1.5,0.6c-1,0.4-1.9,1-2.8,1.6
		c-0.4,0.3-0.9,0.7-1.3,1c-0.4,0.4-0.8,0.8-1,1.2L37.5,98c0.4,0.2,0.9,0.3,1.4,0.4c0.5,0.1,1,0.1,1.5,0.1c1,0,2,0,3-0.1
		c1-0.1,2-0.2,2.9-0.5c0.5-0.1,0.9-0.3,1.3-0.6c0.2-0.1,0.4-0.3,0.5-0.4c0.1-0.2,0.3-0.4,0.3-0.6c0-0.2,0-0.4-0.1-0.6l-0.1-0.2
		c0,0-0.1-0.1-0.1-0.1c-0.1-0.1-0.2-0.2-0.2-0.3c-0.3-0.3-0.8-0.5-1.3-0.5c-1-0.1-1.9,0.1-2.9,0.5c-0.9,0.3-1.8,0.8-2.6,1.4
		c-0.4,0.3-0.8,0.6-1.1,0.9c-0.3,0.3-0.6,0.7-0.8,1.2l-0.1-0.2c0.2,0.1,0.3,0.2,0.5,0.3c0.2,0.1,0.3,0.2,0.5,0.3
		c0.2,0.1,0.4,0.2,0.6,0.2c0.2,0.1,0.4,0.1,0.6,0.2c0.4,0.1,0.8,0.2,1.2,0.3c0.4,0.1,0.8,0.1,1.2,0.2c0.2,0,0.4,0,0.6,0
		c0.2,0,0.4,0,0.6,0c0.2,0,0.4,0,0.6,0c0.2,0,0.4,0,0.6-0.1c0.2,0,0.4-0.1,0.6-0.1l0.3-0.1l0.3-0.1c0.2-0.1,0.3-0.2,0.5-0.3
		c0.1,0,0.2-0.1,0.2-0.2l0.2-0.2l0,0.3c-1.1-0.8-2.4-1.2-3.7-1.3c-1.3-0.1-2.7-0.1-3.9,0.3c-0.3,0.1-0.6,0.2-0.9,0.4
		c-0.3,0.2-0.5,0.3-0.7,0.6c-0.1,0.2-0.1,0.5,0.1,0.7c0.2,0.2,0.5,0.4,0.8,0.5c0.6,0.3,1.2,0.5,1.9,0.7c0.6,0.2,1.3,0.3,1.9,0.4
		c0.7,0.1,1.3,0.1,2,0.1c0.6,0,1.3-0.1,1.9-0.4c0.3-0.1,0.5-0.4,0.6-0.6c0.1-0.3,0.2-0.6,0.1-0.9c0-0.3-0.1-0.6-0.3-0.9
		c-0.1-0.3-0.4-0.5-0.6-0.7c-0.5-0.4-1.1-0.6-1.8-0.8c-0.6-0.1-1.3-0.2-2-0.3c-1.3-0.1-2.7,0-4,0.1l0.2-0.2c0,0.5,0.3,1,0.8,1.3
		c0.4,0.4,1,0.6,1.5,0.8c1.1,0.4,2.3,0.5,3.4,0.5c0.6,0,1.2,0,1.7-0.1c0.6-0.1,1.1-0.3,1.6-0.5c0.2-0.1,0.5-0.3,0.7-0.5
		c0.2-0.2,0.3-0.4,0.4-0.7l0-0.1c0,0,0-0.1,0-0.1c0-0.1,0-0.2,0-0.2c0-0.1,0-0.2-0.1-0.3c-0.1-0.2-0.3-0.4-0.6-0.5
		c-0.5-0.3-1-0.4-1.6-0.6c-0.6-0.1-1.1-0.2-1.7-0.2c-1.2-0.1-2.3,0-3.5,0c-1.2,0.1-2.3,0.2-3.5,0.5c-0.6,0.1-1.1,0.3-1.7,0.4
		c-0.5,0.2-1.1,0.4-1.5,0.7l0-0.3c0.6,0.6,1.4,1,2.2,1.2c0.8,0.2,1.7,0.2,2.6,0.2c1.8-0.1,3.5-0.5,5.1-1.2c0.8-0.3,1.6-0.7,2.4-1.2
		c0.7-0.5,1.5-1,2-1.7c0.3-0.3,0.5-0.7,0.6-1.1c0.1-0.4,0.1-0.8-0.1-1.2c-0.2-0.4-0.4-0.7-0.8-1c-0.3-0.3-0.7-0.5-1.1-0.7
		c-0.1,0-0.2-0.1-0.3-0.1c-0.1,0-0.2-0.1-0.3-0.1c-0.2,0-0.4-0.1-0.6-0.1c-0.4,0-0.9-0.1-1.3,0c-0.9,0-1.8,0.1-2.6,0.3
		c-0.9,0.2-1.7,0.4-2.5,0.9c-0.7,0.4-1.4,1.1-1.3,1.9c0,0.4,0.2,0.7,0.6,0.9c0.3,0.2,0.8,0.3,1.2,0.3c0.9,0,1.7-0.1,2.6-0.3
		c0.9-0.2,1.7-0.5,2.5-0.8c0.4-0.2,0.8-0.4,1.2-0.6c0.2-0.1,0.4-0.2,0.5-0.4c0.2-0.1,0.3-0.3,0.4-0.5c0.5-0.7,1-1.5,1.1-2.3
		c0.2-0.8-0.1-1.7-0.8-2.3c-0.6-0.6-1.4-1-2.2-1.3c-0.8-0.3-1.7-0.5-2.6-0.6c-1.7-0.2-3.6-0.3-5.3,0c-0.4,0.1-0.9,0.2-1.2,0.4
		c-0.4,0.2-0.7,0.4-0.7,0.7c0.1,0.4,0.3,0.7,0.6,1c0.3,0.3,0.7,0.5,1.1,0.6c0.8,0.2,1.7,0.3,2.6,0.2c0.9,0,1.8-0.2,2.6-0.4
		c1.7-0.4,3.4-1,4.9-1.9c0.4-0.2,0.7-0.5,1-0.8c0.3-0.3,0.6-0.6,0.7-1c0.1-0.4-0.1-0.7-0.4-1c-0.3-0.3-0.7-0.5-1.1-0.6
		c-0.8-0.3-1.7-0.5-2.6-0.7c-0.9-0.1-1.8-0.2-2.7-0.3c-0.9-0.1-1.8-0.1-2.7-0.1c-0.9,0-1.8,0.1-2.6,0.4c-0.4,0.1-0.8,0.4-0.8,0.8
		c0,0.2,0.1,0.4,0.2,0.5c0.1,0.1,0.1,0.2,0.2,0.2c0.1,0.1,0.1,0.2,0.2,0.2c0.3,0.3,0.7,0.4,1.1,0.5c0.4,0.1,0.9,0.1,1.3,0.1
		c1.8,0,3.5-0.5,5.2-1.1c0.8-0.3,1.7-0.7,2.4-1.1c0.8-0.4,1.6-0.9,2.2-1.5c0.2-0.2,0.3-0.3,0.4-0.5c0.1-0.2,0.2-0.4,0.3-0.6
		c0.2-0.4,0.3-0.8,0.3-1.3c0-0.4,0-0.9-0.2-1.2c-0.2-0.4-0.4-0.7-0.8-1c-0.7-0.5-1.5-0.8-2.4-1c-0.9-0.2-1.8-0.2-2.6-0.2
		c-1.8,0.1-3.6,0.4-5.2,0.9c-0.8,0.3-1.7,0.7-2.3,1.2c-0.3,0.3-0.6,0.6-0.7,1c0,0.2,0,0.4,0,0.6c0,0.1,0.1,0.2,0.1,0.3
		c0.1,0.1,0.1,0.2,0.2,0.3c0.5,0.7,1.4,1,2.3,1.1c0.9,0.1,1.8,0,2.6-0.1c1.7-0.3,3.4-0.9,5-1.8c0.8-0.4,1.5-0.9,2.1-1.6
		c0.3-0.3,0.6-0.7,0.7-1.1c0.1-0.4,0-0.8-0.3-1.1c-0.3-0.3-0.7-0.5-1.1-0.7c-0.4-0.2-0.8-0.3-1.3-0.4c-0.9-0.2-1.8-0.3-2.6-0.4
		c-0.9-0.1-1.8-0.1-2.7-0.1c-0.9,0-1.8,0.1-2.6,0.3c-0.4,0.1-0.9,0.2-1.2,0.5c-0.2,0.1-0.3,0.3-0.3,0.5c0,0.2,0.1,0.4,0.2,0.6
		c0.2,0.4,0.5,0.7,0.9,0.9c0.4,0.2,0.8,0.4,1.2,0.5c0.9,0.2,1.8,0.2,2.6,0.1c0.9-0.1,1.8-0.2,2.6-0.5c0.9-0.2,1.7-0.5,2.5-1
		c0.8-0.4,1.6-0.9,2-1.7l0,0.1c-0.3-0.3-0.6-0.5-0.9-0.7c-0.3-0.2-0.7-0.4-1.1-0.6c-0.7-0.3-1.5-0.6-2.3-0.8
		c-0.8-0.2-1.6-0.3-2.4-0.4c-0.4,0-0.8,0-1.2,0c-0.4,0-0.8,0.1-1.2,0.2c-0.4,0.1-0.8,0.3-1.1,0.5c-0.3,0.2-0.6,0.6-0.7,0.9
		c-0.1,0.4-0.2,0.8-0.2,1.2c0.1,0.4,0.3,0.7,0.6,1c0.7,0.5,1.5,0.6,2.3,0.7c0.8,0,1.6,0,2.4-0.3c0,0,0,0,0,0c0,0,0,0,0,0
		c-0.8,0.3-1.6,0.3-2.4,0.3c-0.4,0-0.8-0.1-1.2-0.2c-0.4-0.1-0.8-0.3-1.1-0.5c-0.3-0.2-0.6-0.6-0.7-1c-0.1-0.4,0-0.8,0.2-1.2
		c0.2-0.4,0.4-0.7,0.7-1c0.3-0.3,0.7-0.4,1.1-0.5c0.4-0.1,0.8-0.2,1.2-0.2c0.4,0,0.8,0,1.2,0c0.8,0.1,1.6,0.2,2.4,0.4
		c0.8,0.2,1.6,0.5,2.3,0.8c0.4,0.2,0.7,0.3,1.1,0.6c0.3,0.2,0.7,0.5,1,0.8c0,0,0,0.1,0,0.1c-0.5,0.8-1.3,1.3-2.1,1.7
		c-0.8,0.4-1.6,0.7-2.5,1c-0.9,0.2-1.8,0.4-2.7,0.5c-0.9,0.1-1.8,0.1-2.7-0.1c-0.4-0.1-0.9-0.3-1.3-0.5c-0.4-0.3-0.7-0.6-1-1
		c-0.1-0.2-0.2-0.4-0.2-0.7c0-0.3,0.2-0.5,0.3-0.6c0.4-0.3,0.8-0.4,1.3-0.6c0.9-0.2,1.8-0.3,2.7-0.3c0.9,0,1.8,0,2.7,0.1
		c0.9,0.1,1.8,0.2,2.7,0.4c0.4,0.1,0.9,0.2,1.3,0.4c0.4,0.2,0.8,0.4,1.2,0.7c0.2,0.2,0.3,0.4,0.4,0.6c0.1,0.2,0.1,0.5,0,0.7
		c-0.1,0.5-0.4,0.8-0.7,1.2c-0.6,0.7-1.4,1.2-2.2,1.6c-1.6,0.9-3.3,1.5-5.1,1.8c-0.9,0.2-1.8,0.2-2.7,0.1c-0.5-0.1-0.9-0.1-1.3-0.3
		c-0.4-0.2-0.8-0.5-1.1-0.9c-0.1-0.1-0.1-0.2-0.2-0.3c-0.1-0.1-0.1-0.2-0.1-0.3c-0.1-0.2-0.1-0.5,0-0.7c0.1-0.5,0.4-0.9,0.8-1.2
		c0.7-0.6,1.6-1,2.4-1.3c1.7-0.6,3.5-0.9,5.3-1c0.9,0,1.8,0,2.7,0.2c0.9,0.2,1.8,0.4,2.5,1c0.4,0.3,0.7,0.7,0.9,1.1
		c0.2,0.4,0.2,0.9,0.2,1.4c0,0.5-0.2,0.9-0.3,1.3c-0.1,0.2-0.2,0.4-0.3,0.6c-0.1,0.2-0.3,0.4-0.4,0.6c-0.7,0.7-1.4,1.1-2.2,1.6
		c-0.8,0.4-1.6,0.8-2.5,1.1c-1.7,0.6-3.5,1.1-5.3,1.1c-0.9,0-1.9-0.1-2.7-0.8c-0.1-0.1-0.2-0.2-0.2-0.2c-0.1-0.1-0.1-0.2-0.2-0.3
		c-0.1-0.2-0.2-0.5-0.2-0.7c0-0.3,0.2-0.5,0.3-0.7c0.2-0.2,0.4-0.3,0.6-0.4c0.9-0.3,1.8-0.4,2.7-0.4c0.9,0,1.8,0,2.7,0.1
		c0.9,0.1,1.8,0.2,2.7,0.3c0.9,0.1,1.8,0.3,2.6,0.7c0.4,0.2,0.8,0.4,1.2,0.7c0.2,0.2,0.4,0.4,0.4,0.6c0.1,0.2,0.1,0.5,0.1,0.8
		c-0.1,0.5-0.4,0.9-0.8,1.2c-0.3,0.3-0.7,0.6-1.1,0.8c-1.6,1-3.3,1.6-5,2c-0.9,0.2-1.8,0.3-2.7,0.4c-0.9,0-1.8,0-2.7-0.2
		c-0.4-0.1-0.9-0.3-1.3-0.7c-0.4-0.3-0.7-0.8-0.8-1.3c-0.1-0.3,0.1-0.6,0.3-0.8c0.2-0.2,0.4-0.3,0.6-0.4c0.4-0.2,0.9-0.3,1.3-0.4
		c1.8-0.3,3.6-0.3,5.4,0c0.9,0.1,1.8,0.3,2.7,0.6c0.9,0.3,1.7,0.7,2.4,1.4c0.3,0.3,0.6,0.7,0.8,1.2c0.2,0.5,0.2,1,0.1,1.4
		c-0.2,0.9-0.7,1.8-1.2,2.5c-0.1,0.2-0.3,0.4-0.5,0.5c-0.2,0.2-0.4,0.3-0.6,0.4c-0.4,0.2-0.8,0.4-1.2,0.6c-0.8,0.4-1.7,0.7-2.6,0.9
		c-0.9,0.2-1.8,0.4-2.7,0.3c-0.5,0-0.9-0.1-1.4-0.4c-0.2-0.1-0.4-0.3-0.6-0.5c-0.1-0.1-0.1-0.2-0.2-0.4c0-0.1-0.1-0.2-0.1-0.4
		c0-0.1,0-0.2,0-0.4l0-0.1c0,0,0,0,0-0.1l0,0l0-0.2c0.1-0.2,0.2-0.5,0.3-0.7c0.3-0.4,0.7-0.7,1.1-0.9c0.8-0.5,1.7-0.7,2.6-0.9
		c0.9-0.2,1.8-0.3,2.7-0.3c0.5,0,0.9,0,1.4,0c0.2,0,0.5,0.1,0.7,0.1c0.1,0,0.2,0.1,0.4,0.1c0.1,0,0.2,0.1,0.3,0.1
		c0.4,0.2,0.8,0.4,1.2,0.7c0.4,0.3,0.7,0.7,0.9,1.1c0.2,0.5,0.2,1,0.1,1.5c-0.1,0.5-0.4,0.9-0.7,1.2c-0.6,0.7-1.3,1.3-2.1,1.8
		c-0.8,0.5-1.6,0.9-2.4,1.2c-1.7,0.7-3.5,1.1-5.3,1.2c-0.9,0.1-1.8,0-2.7-0.2c-0.9-0.2-1.8-0.6-2.4-1.4l0,0c-0.1-0.1-0.1-0.2,0-0.3
		c0.5-0.4,1.1-0.6,1.7-0.8c0.6-0.2,1.2-0.3,1.7-0.4c1.2-0.2,2.3-0.4,3.5-0.5c1.2-0.1,2.4-0.1,3.6,0c0.6,0,1.2,0.1,1.8,0.2
		c0.6,0.1,1.2,0.3,1.7,0.6c0.3,0.2,0.5,0.4,0.7,0.7c0.1,0.1,0.1,0.3,0.2,0.5c0,0.1,0,0.1,0,0.2c0,0,0,0,0,0.1l0,0.1
		c0,0.3-0.2,0.6-0.5,0.9c-0.2,0.2-0.5,0.4-0.8,0.5c-0.6,0.3-1.1,0.4-1.7,0.5c-0.6,0.1-1.2,0.1-1.8,0.1c-1.2,0-2.4-0.2-3.5-0.5
		c-0.6-0.2-1.1-0.5-1.6-0.9c-0.5-0.4-0.9-1-0.9-1.6c0-0.1,0.1-0.2,0.2-0.2h0c1.3-0.1,2.7-0.2,4.1-0.1c0.7,0,1.4,0.1,2,0.3
		c0.7,0.2,1.3,0.4,1.9,0.8c0.3,0.2,0.5,0.5,0.7,0.8c0.2,0.3,0.3,0.7,0.3,1c0,0.4,0,0.8-0.2,1.1c-0.2,0.3-0.5,0.6-0.8,0.8
		c-0.6,0.4-1.4,0.4-2,0.5c-0.7,0-1.4,0-2.1-0.1c-0.7-0.1-1.3-0.2-2-0.4c-0.7-0.2-1.3-0.4-1.9-0.7c-0.3-0.2-0.6-0.3-0.9-0.6
		c-0.1-0.1-0.2-0.3-0.3-0.5c0-0.1,0-0.2,0-0.3c0-0.1,0.1-0.2,0.1-0.3c0.2-0.4,0.5-0.6,0.8-0.7c0.3-0.2,0.6-0.3,1-0.4
		c1.3-0.4,2.7-0.5,4.1-0.3c1.4,0.2,2.7,0.6,3.9,1.4l0,0c0.1,0.1,0.1,0.2,0,0.2c0,0,0,0,0,0c-0.2,0.1-0.3,0.3-0.5,0.4
		c-0.2,0.1-0.4,0.2-0.6,0.3l-0.3,0.1l-0.3,0.1c-0.2,0.1-0.4,0.1-0.6,0.1c-0.2,0-0.4,0.1-0.6,0.1c-0.2,0-0.4,0-0.6,0
		c-0.2,0-0.4,0-0.6,0c-0.2,0-0.4,0-0.6,0c-0.4,0-0.8-0.1-1.2-0.2c-0.4-0.1-0.8-0.2-1.2-0.3c-0.2-0.1-0.4-0.1-0.6-0.2
		c-0.2-0.1-0.4-0.2-0.6-0.2c-0.2-0.1-0.4-0.2-0.6-0.3c-0.2-0.1-0.4-0.2-0.5-0.3c-0.1,0-0.1-0.1-0.1-0.2l0,0c0.2-0.5,0.5-0.9,0.9-1.3
		c0.4-0.4,0.8-0.7,1.2-1c0.8-0.6,1.7-1.1,2.7-1.4c0.5-0.2,1-0.3,1.5-0.4c0.5-0.1,1-0.1,1.6-0.1c0.5,0.1,1.1,0.2,1.5,0.6
		c0.1,0.1,0.2,0.2,0.3,0.3c0,0.1,0.1,0.1,0.1,0.2l0.1,0.2c0.1,0.2,0.2,0.5,0.2,0.8c0,0.3-0.2,0.6-0.4,0.8c-0.2,0.2-0.4,0.4-0.6,0.5
		c-0.5,0.3-0.9,0.4-1.4,0.6c-1,0.3-2,0.4-3,0.5c-1,0.1-2,0.1-3,0.1c-0.5,0-1-0.1-1.5-0.1c-0.5-0.1-1-0.2-1.5-0.5
		c-0.1,0-0.1-0.1-0.1-0.2l0,0l0,0c0.3-0.5,0.7-0.9,1.1-1.3c0.4-0.4,0.8-0.7,1.3-1c0.9-0.6,1.9-1.2,2.9-1.6c0.5-0.2,1-0.4,1.6-0.6
		c0.5-0.2,1.1-0.3,1.6-0.3c0.6-0.1,1.1,0,1.7,0.1c0.1,0,0.3,0.1,0.4,0.1c0.1,0,0.3,0.1,0.4,0.2c0.3,0.1,0.5,0.3,0.7,0.5
		c0.1,0.1,0.1,0.2,0,0.2l0,0c-0.4,0.4-0.8,0.7-1.3,1c-0.5,0.3-0.9,0.5-1.4,0.7c-1,0.4-2,0.6-3.1,0.6c-0.5,0-1.1,0-1.6-0.1
		c-0.5-0.1-1-0.3-1.5-0.5c-0.5-0.3-0.8-0.7-1-1.3c-0.2-0.5-0.2-1.1-0.1-1.6c0.1-0.5,0.3-1,0.6-1.5c0.3-0.4,0.7-0.8,1.1-1.1
		c0.9-0.6,1.9-1,2.9-1.2c1-0.2,2.1-0.2,3.1,0c0.5,0.1,1,0.3,1.5,0.6c0.5,0.3,0.8,0.7,1.1,1.1l0,0c0,0.1,0,0.1,0,0.2
		c-0.5,0.4-1,0.7-1.6,1c-0.6,0.2-1.2,0.4-1.8,0.6c-1.2,0.3-2.4,0.5-3.7,0.5c-0.6,0-1.2-0.1-1.8-0.2c-0.6-0.2-1.2-0.5-1.6-1
		c-0.4-0.5-0.5-1.2-0.3-1.9l0.1-0.4c0.1-0.2,0.1-0.3,0.2-0.4c0.2-0.3,0.4-0.5,0.7-0.6c0.5-0.3,1.1-0.6,1.7-0.7
		c0.6-0.2,1.2-0.3,1.8-0.3c1.2-0.1,2.5-0.1,3.7,0.3c0.3,0.1,0.6,0.2,0.8,0.4c0.3,0.2,0.5,0.4,0.6,0.7c0.1,0.1,0.1,0.3,0.2,0.5
		c0,0.2,0.1,0.3,0,0.5l0,0.2l0,0.2c0,0.1-0.1,0.3-0.2,0.5c-0.3,0.6-0.8,1-1.4,1.3c-0.5,0.3-1.1,0.6-1.7,0.7
		c-1.2,0.4-2.4,0.6-3.6,0.6c-0.6,0-1.2,0-1.8-0.2c-0.6-0.1-1.2-0.3-1.7-0.7c-0.5-0.4-0.9-1-0.9-1.6c0-0.2,0-0.3,0-0.5l0.1-0.5
		l0.1-0.4c0-0.2,0.1-0.3,0.2-0.4c0.3-0.6,0.8-1,1.3-1.3c0.5-0.4,1-0.7,1.6-1c1.1-0.6,2.2-1,3.4-1.3c1.2-0.3,2.4-0.5,3.6-0.5
		c0.6,0,1.2,0.1,1.8,0.4c0.3,0.1,0.5,0.4,0.7,0.6c0.1,0.1,0.2,0.3,0.2,0.4c0,0.1,0.1,0.2,0.1,0.2l0,0.2c0,0.1,0,0.3,0,0.5
		c0,0.2-0.1,0.3-0.1,0.5c-0.1,0.1-0.1,0.3-0.2,0.4l-0.1,0.2l-0.2,0.2c-0.5,0.4-1,0.7-1.6,1c-1.1,0.5-2.4,0.7-3.6,0.8
		c-1.2,0.1-2.5,0.1-3.7-0.2c-0.6-0.1-1.2-0.3-1.8-0.5c-0.6-0.2-1.1-0.6-1.5-1c-0.2-0.2-0.3-0.5-0.4-0.8c0-0.2-0.1-0.3-0.1-0.5
		c0-0.2,0-0.3,0-0.5c0.1-0.6,0.5-1.2,0.9-1.6c0.9-0.8,2.1-1.3,3.3-1.6c1.2-0.3,2.4-0.5,3.6-0.6c1.2-0.1,2.5,0,3.7,0.2
		c0.6,0.1,1.2,0.3,1.7,0.6c0.1,0.1,0.3,0.2,0.4,0.3l0.2,0.2l0.1,0.2c0.1,0.1,0.1,0.1,0.1,0.2c0,0.1,0.1,0.2,0.1,0.2l0,0.2
		c0,0.1,0,0.2,0,0.2c-0.1,0.3-0.3,0.6-0.5,0.8c-0.2,0.2-0.5,0.4-0.8,0.5c-0.6,0.2-1.2,0.4-1.8,0.5c-1.2,0.2-2.4,0.2-3.7,0.2
		c-1.2-0.1-2.4-0.3-3.6-0.7c-0.6-0.2-1.2-0.5-1.7-0.8c-0.1-0.1-0.2-0.2-0.3-0.3l-0.2-0.2l-0.1-0.2c-0.1-0.1-0.1-0.3-0.2-0.5l0-0.2
		l0-0.1l0,0l0,0l0-0.1c0-0.3,0.1-0.6,0.3-0.9c0.2-0.3,0.4-0.5,0.7-0.6c0.5-0.3,1.2-0.5,1.8-0.6c1.2-0.2,2.5-0.2,3.7-0.1
		c1.2,0.1,2.4,0.3,3.6,0.7c0.6,0.2,1.2,0.4,1.7,0.6c0.6,0.2,1.1,0.5,1.6,1c0,0,0,0.1,0,0.1c-0.3,0.6-0.9,1.1-1.5,1.5
		c-0.6,0.4-1.2,0.7-1.8,0.9c-1.3,0.5-2.6,0.8-4,1c-1.4,0.2-2.7,0.2-4.1,0c-0.7-0.1-1.4-0.3-2-0.6c-0.6-0.3-1.2-0.8-1.5-1.4
		c-0.1-0.2-0.2-0.3-0.2-0.5l-0.1-0.2l0-0.1c0-0.1,0-0.1,0-0.1c0-0.2,0-0.4,0-0.5c0-0.2,0.1-0.4,0.1-0.5c0.2-0.7,0.7-1.2,1.3-1.6
		c1.1-0.8,2.4-1.3,3.8-1.6c1.3-0.3,2.7-0.5,4.1-0.5c0.7,0,1.4,0.1,2.1,0.2c0.7,0.1,1.4,0.4,1.9,0.8c0.1,0.1,0.3,0.2,0.4,0.3
		c0.1,0.1,0.1,0.1,0.2,0.2l0.2,0.2c0.1,0.1,0.1,0.2,0.1,0.2c0,0.1,0.1,0.1,0.1,0.3c0,0.2,0.1,0.4,0.1,0.5c0,0.2,0,0.4-0.1,0.5
		c-0.1,0.2-0.1,0.3-0.3,0.5c-0.2,0.3-0.5,0.5-0.7,0.8c-1.1,0.8-2.5,1.3-3.8,1.5c-1.3,0.3-2.7,0.4-4.1,0.2c-0.7-0.1-1.4-0.2-2-0.5
		c-0.6-0.3-1.3-0.7-1.7-1.3c-0.1-0.2-0.2-0.3-0.2-0.5L37.7,84c0,0,0-0.1,0-0.1l0-0.1c-0.1-0.3-0.1-0.7,0-1.1
		c0.1-0.7,0.4-1.4,0.9-1.9c1-1.1,2.3-1.6,3.7-1.9c1.3-0.3,2.7-0.4,4.1-0.3c0.7,0,1.4,0.1,2,0.3c0.7,0.2,1.3,0.4,1.9,0.8
		c0.1,0,0.1,0.1,0.1,0.2c-0.3,0.6-0.7,1.1-1.2,1.4c-0.5,0.4-1,0.7-1.5,1c-1.1,0.6-2.2,1-3.4,1.3c-0.6,0.2-1.2,0.3-1.8,0.3
		C41.7,84,41.1,84,40.5,84c-0.6,0-1.2-0.2-1.8-0.5c-0.6-0.3-1.1-0.8-1.3-1.4c-0.1-0.3-0.2-0.6-0.2-1c0-0.2,0-0.3,0-0.5
		c0-0.2,0-0.3,0.1-0.5c0.2-0.6,0.6-1.2,1.1-1.6c0.5-0.4,1.1-0.7,1.6-0.9c0.6-0.2,1.2-0.3,1.8-0.4c1.2-0.2,2.4-0.2,3.7-0.1
		c0.6,0.1,1.2,0.2,1.8,0.3c0.6,0.2,1.2,0.4,1.7,0.8l0,0c0.1,0.1,0.1,0.2,0,0.3c0,0,0,0,0,0c-0.5,0.5-1.1,0.8-1.7,1
		c-0.6,0.3-1.2,0.5-1.8,0.7c-1.2,0.4-2.5,0.6-3.8,0.8c-0.6,0.1-1.3,0.1-1.9,0.1c-0.7,0-1.3-0.1-1.9-0.3c-0.3-0.1-0.6-0.2-0.9-0.4
		c-0.3-0.2-0.6-0.4-0.7-0.8c-0.1-0.1-0.1-0.2-0.1-0.3c0-0.1-0.1-0.2-0.1-0.3l0-0.2c0-0.1,0-0.2,0-0.3c0-0.2,0.1-0.4,0.1-0.5
		c0.1-0.2,0.2-0.3,0.3-0.5c0.5-0.6,1.1-0.8,1.7-1c0.6-0.2,1.3-0.3,1.9-0.4c1.3-0.2,2.6-0.2,3.9-0.2c1.3,0,2.6,0.1,3.9,0.3
		c0.6,0.1,1.3,0.2,1.9,0.3c0.6,0.1,1.3,0.2,1.9,0.4l0,0c0.1,0,0.1,0.1,0.1,0.2c0,0,0,0,0,0.1c-0.2,0.2-0.4,0.4-0.6,0.6
		c-0.2,0.2-0.5,0.4-0.7,0.5c-0.3,0.1-0.5,0.3-0.8,0.4c-0.3,0.1-0.5,0.3-0.8,0.3c-0.3,0.1-0.5,0.2-0.8,0.3c-0.3,0.1-0.6,0.2-0.8,0.2
		c-0.3,0.1-0.6,0.1-0.8,0.2L45.2,80L44.4,80c-0.3,0-0.6,0-0.9,0c-0.3,0-0.6,0-0.9-0.1c-0.3,0-0.6-0.1-0.9-0.1
		c-0.3,0-0.6-0.1-0.8-0.2c-0.3-0.1-0.6-0.2-0.8-0.3c-0.3-0.1-0.5-0.3-0.8-0.4c-0.3-0.1-0.5-0.3-0.7-0.5c-0.1,0-0.1-0.1,0-0.2l0,0
		l0.5-0.7c0.2-0.2,0.4-0.4,0.6-0.7l0.7-0.6c0.2-0.2,0.5-0.3,0.7-0.5c0.3-0.1,0.5-0.3,0.8-0.4c0.3-0.1,0.5-0.2,0.8-0.3
		c0.3-0.1,0.5-0.1,0.8-0.2c0.3,0,0.6-0.1,0.8-0.1c0.3,0,0.6-0.1,0.8-0.1l0.8,0l0.8,0l0.8,0c0.6,0,1.1,0.1,1.7,0.2
		c0.6,0.1,1.1,0.2,1.7,0.3l0,0c0.1,0,0.1,0.1,0.1,0.2c0,0,0,0,0,0c-0.1,0.3-0.3,0.5-0.5,0.8c-0.2,0.2-0.5,0.4-0.7,0.6
		c-0.5,0.3-1.1,0.5-1.6,0.7c-1.1,0.3-2.3,0.4-3.5,0.4c-1.2,0-2.3-0.1-3.5-0.4c-0.3-0.1-0.6-0.1-0.8-0.2c-0.3-0.1-0.6-0.2-0.8-0.3
		c-0.3-0.1-0.5-0.3-0.8-0.4c-0.2-0.2-0.5-0.4-0.7-0.6l0,0c0,0,0-0.1,0-0.2l0,0c0.2-0.1,0.4-0.3,0.6-0.4c0.2-0.1,0.4-0.3,0.6-0.4
		c0.2-0.1,0.4-0.2,0.7-0.3c0.2-0.1,0.5-0.2,0.7-0.3c0.2-0.1,0.5-0.1,0.7-0.2l0.7-0.2l0.7-0.1c0.2,0,0.5,0,0.7-0.1c0.2,0,0.5,0,0.7,0
		c0.2,0,0.5,0,0.7,0c0.2,0,0.5,0,0.7,0.1c0.2,0,0.5,0.1,0.7,0.1c0.2,0,0.5,0.1,0.7,0.2c0.2,0.1,0.5,0.2,0.7,0.3
		c0.2,0.1,0.4,0.2,0.7,0.4c0.2,0.1,0.4,0.3,0.6,0.5c0,0,0.1,0.1,0,0.1c0,0,0,0,0,0c-0.2,0.1-0.4,0.3-0.6,0.4
		c-0.2,0.1-0.4,0.2-0.6,0.3c-0.2,0.1-0.4,0.2-0.7,0.2c-0.2,0.1-0.4,0.1-0.7,0.1c-0.2,0-0.4,0.1-0.7,0.1c-0.2,0-0.4,0.1-0.7,0.1
		c-0.2,0-0.5,0-0.7,0l-0.7,0l-0.7-0.1l-0.7-0.1c-0.2,0-0.4-0.1-0.7-0.1c-0.2,0-0.4-0.1-0.7-0.2c-0.2-0.1-0.4-0.1-0.6-0.2
		c-0.2-0.1-0.4-0.2-0.6-0.3c-0.2-0.1-0.4-0.2-0.6-0.3c-0.2-0.1-0.4-0.3-0.6-0.4c0,0-0.1-0.1,0-0.1c0,0,0,0,0,0l0.5-0.2
		c0.2-0.1,0.4-0.1,0.6-0.2l0.6-0.1c0.2,0,0.4-0.1,0.6-0.1l0.6-0.1c0.2,0,0.4-0.1,0.6-0.1l0.6,0c0.2,0,0.4,0,0.6,0c0.8,0,1.5,0,2.3,0
		l2.3,0l0,0.2l-2.5,0l-2.5,0.1l-2.5,0.2l-2.5,0.2l0-0.1l0.5,0.1c0.2,0,0.3,0.1,0.5,0.1c0.4,0,0.7,0.1,1.1,0.1c0.4,0,0.7,0.1,1.1,0.1
		c0.4,0,0.7,0,1.1,0c0.7,0,1.4,0,2.2-0.1c0.7,0,1.4,0,2.2-0.1c0,0,0,0,0,0c0,0,0,0,0,0l-2.2,0.4l-2.2,0.4l-2.2,0.3l-2.2,0.2l0,0
		c-0.1,0.1-0.1,0.2-0.1,0.3c0,0,0,0.1,0,0.1c0,0,0.1,0.1,0.1,0.1c0.1,0,0.2,0.1,0.3,0.1C38.6,77,38.7,77,38.7,77.2L38.7,77.2
		C38.8,77.1,38.8,77.2,38.7,77.2C38.7,77.2,38.7,77.2,38.7,77.2"/>
	<path class="st1" d="M26.5,36.5c0.5,0.6,1.2,1,2,1.2c0.7,0.2,1.5,0.2,2.3,0.1c1.5-0.2,2.9-0.9,4.2-1.9c0.2-0.1,0.3-0.2,0.4-0.4
		c0.1-0.1,0.3-0.3,0.4-0.4c0.1-0.1,0.3-0.3,0.4-0.4l0.4-0.5c0.4-0.6,0.8-1.3,1-2c0.5-1.5,0.4-3.1,0-4.5c-0.4-1.5-1-2.9-1.9-4.2
		c-0.4-0.6-0.9-1.2-1.5-1.7c-0.6-0.5-1.3-0.9-2.1-0.9c-0.8-0.1-1.5,0.2-2.2,0.6c-0.6,0.5-1.1,1.1-1.5,1.7c-0.8,1.3-1.1,2.9-1.2,4.4
		c0,0.8,0,1.5,0.1,2.3c0.1,0.8,0.3,1.5,0.5,2.3c0.4,1.5,0.7,3,1,4.5c0.3,1.5,0.5,3,0.5,4.6c0,0.8-0.1,1.5-0.4,2.3
		c-0.3,0.7-0.9,1.3-1.6,1.6c-0.7,0.3-1.5,0.3-2.3,0.2c-0.8-0.1-1.5-0.3-2.2-0.6c-0.7-0.3-1.4-0.6-2.1-1c-0.6-0.5-1.2-1-1.6-1.7
		c-0.4-0.7-0.7-1.4-0.8-2.2c-0.1-0.8-0.2-1.5-0.1-2.3c0.1-1.5,0.5-3.1,1.2-4.4c0.2-0.4,0.4-0.7,0.5-1c0.2-0.3,0.4-0.7,0.7-1
		c0.5-0.6,1-1.2,1.6-1.7c1.2-1,2.6-1.8,4.2-1.9c0.8-0.1,1.6,0.1,2.3,0.3c0.7,0.2,1.4,0.6,2,1.2c0.5,0.6,0.9,1.3,1.1,2
		c0.2,0.7,0.3,1.5,0.4,2.3l0.2,2.3c0.1,0.8,0.2,1.5,0.4,2.2c0.1,0.4,0.3,0.7,0.6,1c0.1,0.1,0.3,0.3,0.4,0.4c0.1,0.1,0.1,0.1,0.2,0.2
		l0.2,0.2c0.6,0.4,1.4,0.6,2.2,0.5c0.8-0.1,1.5-0.4,2.1-0.8c0.6-0.4,1.2-1,1.7-1.6c0.5-0.6,0.9-1.2,1.2-1.9c0.3-0.7,0.6-1.4,0.7-2.2
		c0.3-1.5,0.1-3.1-0.3-4.6c-0.4-1.5-1.1-2.9-2-4.1c-0.9-1.3-1.9-2.4-3.2-3.3c-0.6-0.5-1.3-0.9-2-1.2c-0.7-0.3-1.4-0.6-2.2-0.8
		c-0.7-0.2-1.5-0.3-2.3-0.2c-0.8,0-1.5,0.1-2.3,0.4c-0.2,0-0.4,0.1-0.5,0.2c-0.2,0.1-0.4,0.1-0.5,0.2l-1,0.5c-0.3,0.2-0.7,0.4-1,0.6
		l-0.5,0.3c-0.2,0.1-0.3,0.2-0.4,0.4l-0.4,0.4c-0.1,0.1-0.2,0.3-0.4,0.4c-0.1,0.1-0.1,0.1-0.2,0.2L22.9,23c-0.1,0.2-0.2,0.3-0.3,0.5
		c-0.3,0.7-0.5,1.5-0.4,2.2c0,0.8,0.2,1.5,0.5,2.2c0.3,0.7,0.6,1.4,1,2.1c1.5,2.7,3.4,5.1,4.8,7.9c0.7,1.4,1.2,2.9,1.2,4.4
		c0,0.8-0.1,1.5-0.4,2.3c-0.3,0.7-0.6,1.4-1.1,2c-0.9,1.2-2.3,2.2-3.7,2.7c-1.4,0.5-3,0.8-4.6,0.6c-0.8-0.1-1.5-0.3-2.2-0.6
		c-0.7-0.3-1.4-0.7-2-1.2c-1.2-1-2-2.4-2.4-3.9c-0.4-1.5-0.3-3.1-0.1-4.6c0.3-1.5,0.7-3,1.4-4.4c0.6-1.4,1.5-2.7,2.5-3.9
		c1-1.2,2.2-2.2,3.6-2.9c0.7-0.3,1.5-0.6,2.2-0.7c0.8-0.1,1.6,0,2.3,0.1c0.4,0.1,0.7,0.2,1.1,0.4c0.3,0.2,0.7,0.3,1,0.6
		c0.6,0.4,1.2,0.9,1.8,1.5c1.1,1.1,2,2.3,2.9,3.6c0.5,0.6,0.9,1.2,1.4,1.8c0.5,0.6,1,1.2,1.5,1.7c0.6,0.5,1.2,1,1.9,1.2
		c0.7,0.2,1.5,0,2.2-0.4c1.3-0.8,2.3-2.1,3.1-3.3c1.7-2.5,2.8-5.5,3.2-8.5c0.2-1.5,0.1-3.1-0.2-4.6c-0.3-1.5-1-2.9-2-4.1
		c-1-1.2-2.3-2.1-3.6-2.9c-1.3-0.8-2.7-1.4-4.2-1.9c-1.5-0.5-3-0.8-4.5-1c-1.5-0.1-3.1-0.1-4.6,0.3c-1.5,0.4-2.9,1.1-4.1,2
		c-1.2,0.9-2.4,1.9-3.3,3.2c-0.9,1.2-1.4,2.7-1.4,4.3c0,0.8,0.2,1.5,0.6,2.2c0.4,0.7,0.9,1.2,1.5,1.7c1.2,0.9,2.7,1.5,4.2,1.6
		c0.8,0,1.5-0.2,2.2-0.6c0.3-0.2,0.6-0.5,0.8-0.8c0.2-0.3,0.4-0.6,0.5-1l0,0.1c-0.8-0.3-1.6-0.4-2.4-0.4c-0.8,0-1.6,0.1-2.4,0.3
		c-1.6,0.3-3.2,0.8-4.8,1.1c-1.6,0.3-3.2,0.7-4.9,0.4c-0.4-0.1-0.8-0.2-1.2-0.4c-0.4-0.2-0.7-0.4-1-0.7c-0.6-0.6-1-1.3-1.2-2.1
		c-0.4-1.6-0.2-3.3,0.3-4.9c0.5-1.6,1.3-3,2.5-4.2c0.6-0.6,1.2-1.1,2-1.4c0.8-0.3,1.6-0.4,2.5-0.2c0.2,0.1,0.4,0.1,0.6,0.2
		c0.2,0.1,0.4,0.2,0.5,0.4c0.3,0.3,0.6,0.6,0.8,1c0.4,0.7,0.8,1.4,1.3,2.1c0.5,0.6,1.2,1,2,1.2c0.8,0.1,1.6,0.1,2.4-0.1
		c0.8-0.2,1.5-0.6,2.1-1.1c0.6-0.5,1.1-1.2,1.4-1.9c0.4-0.7,0.7-1.5,0.9-2.3c0.1-0.4,0.2-0.8,0.3-1.2c0-0.2,0.1-0.4,0.1-0.6l0.1-0.6
		c0-0.8-0.1-1.6-0.4-2.4c-0.3-0.7-0.8-1.4-1.4-1.9c-1.3-1-3-1.3-4.6-1.1c-1.6,0.2-3.1,0.9-4.3,2c-0.6,0.5-1.1,1.2-1.5,1.9
		c-0.4,0.7-0.7,1.5-0.7,2.3c0,0.8,0.2,1.6,0.5,2.3c0.3,0.7,0.8,1.4,1.3,2c0.5,0.6,1,1.3,1.5,1.9c0.5,0.7,1,1.4,1.2,2.1
		c0.7,1.5,0.2,3.5-1.1,4.6c-0.6,0.6-1.4,0.9-2.2,1.1c-0.8,0.2-1.6,0.2-2.5,0.2c-1.6-0.1-3.3-0.5-4.8-1.2c-0.7-0.4-1.5-0.8-2.1-1.3
		c-0.6-0.6-1.1-1.2-1.4-2.1c-0.1-0.4-0.2-0.8-0.1-1.3c0-0.2,0-0.4,0.1-0.6C6.8,18.2,6.9,18,7,17.8c0.5-0.7,1.3-1.1,2-1.4
		c0.8-0.3,1.6-0.5,2.4-0.6c0.8-0.1,1.6-0.2,2.5-0.1c1.7,0.2,3.2,1.3,4,2.8c0.8,1.5,1,3.2,0.9,4.8c-0.1,1.7-0.6,3.3-1.3,4.7
		c-0.7,1.5-1.6,2.9-2.7,4.1c-1,1.3-2.2,2.4-3.6,3.4C10.5,36,9.8,36.4,9,36.7c-0.8,0.2-1.6,0.3-2.5,0.3c-0.8-0.1-1.7-0.3-2.3-0.9
		c-0.7-0.5-1.1-1.4-1.2-2.2C3,33,3.1,32.2,3.4,31.4c0.4-0.8,0.9-1.4,1.5-2c1.2-1.1,2.6-2,4.1-2.7c0.8-0.3,1.5-0.6,2.4-0.8
		c0.8-0.1,1.7-0.1,2.5,0.3c0.4,0.2,0.7,0.6,0.8,1c0.2,0.4,0.2,0.9,0.1,1.3c-0.1,0.8-0.5,1.6-0.9,2.3c-0.8,1.4-1.8,2.7-2.8,4.1
		c-1,1.3-2,2.6-3,3.9c-1,1.3-1.9,2.6-2.7,4.1c-0.8,1.4-1.5,2.9-1.8,4.5c-0.1,0.8-0.1,1.6,0,2.4c0.2,0.8,0.5,1.5,1.1,2.1
		c1.1,1.2,2.5,2,4,2.6c0.8,0.3,1.6,0.4,2.4,0.5c0.8,0,1.6-0.1,2.4-0.4c0.7-0.3,1.4-0.7,2-1.3c0.6-0.6,1.1-1.2,1.4-1.9
		c0.7-1.4,1.1-3.1,0.9-4.7c-0.1-0.8-0.3-1.6-0.6-2.3c-0.3-0.7-0.8-1.4-1.4-2c-1.1-1.2-2.7-1.8-4.3-2.1c-0.8-0.2-1.6-0.2-2.4-0.1
		c-0.4,0-0.8,0.2-1.1,0.3c-0.3,0.2-0.7,0.4-0.9,0.7c-0.5,0.6-0.7,1.4-0.7,2.2c0,0.8,0.4,1.5,0.9,2.2c1,1.3,2.2,2.3,3.5,3.4
		c1.3,1,2.6,2,3.8,3.1c0.3,0.3,0.6,0.6,0.9,0.9c0.1,0.2,0.3,0.3,0.4,0.5c0.1,0.2,0.2,0.3,0.3,0.5c0.4,0.7,0.8,1.4,1.1,2.2
		c0.3,0.8,0.5,1.6,0.7,2.4c0.1,0.8,0.2,1.7,0,2.5c-0.2,1.7-1.3,3.2-2.8,3.9c-0.8,0.4-1.6,0.5-2.5,0.4c-0.8-0.2-1.6-0.6-2.2-1.2
		c-0.6-0.6-1-1.4-1.2-2.2c-0.1-0.2-0.1-0.4-0.1-0.6l0-0.2c0,0,0-0.1,0-0.2l0-0.3c0-0.4,0.1-0.8,0.1-1.2c0.2-0.8,0.5-1.6,0.9-2.3
		c0.4-0.7,0.9-1.4,1.5-2c1.1-1.2,2.5-2.2,3.9-3c1.5-0.7,3.2-1.2,4.8-0.9c0.2,0.1,0.4,0.1,0.6,0.2c0.1,0.1,0.2,0.1,0.3,0.2l0.3,0.2
		c0.3,0.3,0.6,0.7,0.7,1c0.4,0.7,0.6,1.5,1,2.2c0.4,0.7,0.9,1.4,1.4,1.9c0.6,0.6,1.2,1,1.9,1.4c1.4,0.8,3,1.3,4.6,1.2
		c0.8,0,1.6-0.2,2.3-0.6c0.2-0.1,0.4-0.2,0.5-0.3c0.1-0.1,0.3-0.2,0.5-0.4l0.4-0.4c0.1-0.2,0.2-0.3,0.4-0.5c0.4-0.7,0.7-1.4,0.7-2.2
		c0.1-0.8-0.1-1.6-0.3-2.4c-0.5-1.5-1.5-2.9-2.6-4.1c-1.1-1.2-2.4-2.2-3.8-3c-0.7-0.4-1.4-0.8-2.2-1c-0.4-0.1-0.8-0.3-1.2-0.3
		l-0.6-0.1L25,44.2c-0.4-0.1-0.8-0.1-1.2-0.1c-0.4,0-0.8,0-1.2,0.1c-0.8,0.1-1.6,0.4-2.1,1c-0.6,0.6-0.8,1.3-0.9,2.1
		c-0.1,0.8,0.1,1.6,0.3,2.4c0.5,1.5,1.3,2.9,2.4,4.1c0.5,0.6,1.2,1.1,1.8,1.6c0.7,0.5,1.4,0.9,2.1,1.2c0.4,0.2,0.8,0.3,1.2,0.4
		c0.4,0.1,0.8,0.2,1.2,0.3c0.8,0.1,1.6,0.2,2.4,0.1c0.8-0.1,1.6-0.3,2.2-0.8c0.7-0.4,1.2-1,1.7-1.7c0.9-1.3,1.5-2.9,2-4.4
		c0.5-1.5,1-3.1,1.6-4.6c0.3-0.8,0.7-1.5,1.1-2.2c0.5-0.7,1-1.3,1.7-1.8c1.3-0.9,3.2-1.4,4.8-0.8c0.8,0.3,1.5,0.7,2.1,1.3
		c0.6,0.6,1.1,1.2,1.6,1.9c0.8,1.4,1.4,3,1.7,4.6c0.2,0.8,0.2,1.6,0.2,2.5c0,0.8-0.1,1.7-0.3,2.5c-0.2,0.8-0.4,1.6-0.9,2.3
		c-0.2,0.4-0.4,0.7-0.7,1c-0.3,0.3-0.5,0.6-0.9,0.9c-0.3,0.3-0.7,0.5-1,0.7c-0.2,0.1-0.4,0.2-0.6,0.3c-0.2,0.1-0.4,0.2-0.6,0.2
		l-0.6,0.2c-0.2,0.1-0.4,0.1-0.6,0.1c-0.4,0.1-0.8,0.1-1.2,0.1c-0.8,0-1.7-0.1-2.5-0.4c-0.8-0.3-1.5-0.8-2.1-1.4
		c-0.6-0.6-1-1.3-1.3-2.1c-0.3-0.8-0.5-1.6-0.4-2.5c0.1-0.4,0.2-0.9,0.4-1.2c0.1-0.2,0.3-0.3,0.6-0.4c0.1,0,0.2-0.1,0.3-0.1
		c0.1,0,0.2,0,0.3,0c0.9,0.2,1.5,0.8,2.1,1.4c0.6,0.6,1.1,1.3,1.5,2c0.4,0.7,0.7,1.5,1.1,2.2c0.6,1.5,1.2,3,2,4.5
		c0.4,0.7,0.8,1.4,1.3,2c0.5,0.6,1.1,1.2,1.8,1.7c1.3,1,2.7,1.8,4.2,2.3c1.5,0.5,3.1,0.9,4.7,0.7c1.6-0.2,3.2-0.7,4.3-1.9
		c0.5-0.6,1-1.3,1.2-2c0.2-0.4,0.2-0.8,0.4-1.1c0.1-0.4,0.2-0.8,0.2-1.2c0.2-1.6,0-3.2-0.3-4.8c-0.3-1.6-0.8-3.1-1.4-4.6
		c-0.6-1.5-1.4-2.9-2.3-4.3c-0.9-1.3-2-2.6-3.2-3.6c-0.6-0.5-1.3-0.9-2.1-1.2c-0.7-0.3-1.5-0.4-2.3-0.4c-0.2,0-0.4,0-0.6,0.1
		c-0.2,0.1-0.4,0.1-0.5,0.2c-0.2,0.1-0.4,0.2-0.5,0.3L51.1,44c-0.1,0.1-0.1,0.1-0.2,0.2c-0.5,0.6-0.7,1.4-0.7,2.2
		c0,1.6,0.5,3.2,1,4.7c0.6,1.5,1.4,3,2.2,4.3c0.4,0.7,0.9,1.4,1.4,2c0.5,0.6,1,1.2,1.6,1.8c0.6,0.6,1.2,1.1,1.9,1.4
		c0.4,0.2,0.7,0.3,1.1,0.4c0.2,0,0.4,0.1,0.6,0.1l0.3,0l0.3,0c0.8-0.1,1.5-0.3,2.2-0.8c0.7-0.4,1.3-1,1.8-1.5
		c1.1-1.2,2.1-2.5,3.2-3.7c0.5-0.6,1.1-1.2,1.8-1.7c0.3-0.3,0.7-0.5,1.1-0.6c0.4-0.1,0.9-0.2,1.3-0.1l0.3,0.1l0.3,0.1
		c0.1,0,0.1,0,0.2,0.1l0.1,0.1l0.3,0.2c0.1,0.1,0.2,0.1,0.3,0.2l0.2,0.2l0.2,0.2c0.1,0.1,0.1,0.2,0.2,0.2c0.6,0.6,0.9,1.5,0.9,2.3
		c0,0.9-0.3,1.7-0.7,2.4c-0.4,0.7-1,1.4-1.6,1.9c-1.2,1.1-2.7,2-4.3,2.4c-1.6,0.4-3.3,0.5-4.9-0.1c-1.6-0.5-2.9-1.7-3.9-3
		c-2-2.7-2.4-6.3-1.5-9.5c0.5-1.6,1.3-3.1,2.5-4.3c1.2-1.2,2.7-2,4.4-2.2c0.8-0.1,1.7-0.1,2.5,0c0.4,0,0.8,0.2,1.2,0.2
		c0.1,0,0.2,0.1,0.3,0.1c0.1,0,0.2,0.1,0.3,0.1c0.1,0.1,0.2,0.1,0.3,0.2l0.3,0.2c0.7,0.5,1.2,1.2,1.7,1.8c0.5,0.6,1,1.3,1.5,1.9
		c1,1.3,2,2.6,3.1,3.8c0.5,0.6,1.1,1.2,1.7,1.7c0.6,0.5,1.3,1,2,1.3c0.7,0.3,1.5,0.2,2.2-0.2c0.6-0.4,1.1-1.1,1.5-1.8
		c0.4-0.7,0.6-1.5,0.7-2.2c0.1-0.8,0-1.6-0.1-2.4c-0.3-1.6-1.1-3-2-4.4c-0.9-1.3-2-2.6-3.2-3.6c-1.2-1.1-2.5-2-4-2.8
		c-0.7-0.4-1.5-0.7-2.2-0.9c-0.4-0.1-0.8-0.2-1.2-0.3c-0.4,0-0.8-0.1-1.2-0.1c-0.4,0-0.8,0-1.2,0c-0.4,0.1-0.8,0.1-1.1,0.3
		c-0.4,0.1-0.7,0.3-1.1,0.5c-0.3,0.2-0.6,0.5-0.9,0.8L66,38.4c0,0-0.1,0.1-0.1,0.1l-0.1,0.1l-0.4,0.5c-0.2,0.3-0.4,0.7-0.6,1
		c-0.3,0.7-0.4,1.5-0.3,2.3c0.1,0.8,0.5,1.5,0.9,2.2c0.4,0.7,1,1.3,1.5,1.9c1.1,1.1,2.4,2.2,3.7,3.1c1.3,1,2.6,1.9,4,2.9
		c0.7,0.5,1.3,1,1.9,1.6c0.6,0.6,1.2,1.2,1.6,2l0.1,0.2l-0.3,0c-2,0.3-4.1,0.1-6.1-0.5c-2-0.5-3.9-1.4-5.5-2.6
		c-0.8-0.6-1.6-1.3-2.3-2.1c-0.6-0.8-1.2-1.7-1.4-2.8c-0.2-1-0.1-2.1,0.4-3.1c0.5-0.9,1.2-1.7,2-2.4l0.6-0.5
		c0.2-0.1,0.4-0.3,0.6-0.4c0.4-0.3,0.9-0.5,1.3-0.8c0.9-0.5,1.9-0.9,2.8-1.2c1-0.3,2-0.5,3-0.5c1,0,2.1,0.2,3.1,0.5
		c2,0.6,3.8,1.5,5.6,2.4c0.9,0.4,1.8,0.9,2.8,1.2c0.9,0.3,1.9,0.6,2.9,0.5c0.5,0,0.9-0.2,1.3-0.4c0.4-0.2,0.7-0.6,1-1
		c0.5-0.8,0.8-1.8,0.9-2.8c0.1-1-0.1-2-0.4-2.9c-0.3-0.9-0.8-1.8-1.4-2.7c-1.1-1.7-2.6-3.1-4.2-4.3c-1.6-1.2-3.4-2.2-5.3-2.7
		c-1-0.3-2-0.4-3-0.3c-1,0-2,0.1-3,0.4c-1,0.3-1.9,0.6-2.7,1.1c-0.4,0.3-0.8,0.6-1.2,0.9c-0.4,0.3-0.7,0.7-0.9,1.1
		c-0.5,0.8-0.7,1.8-0.5,2.8c0.1,1,0.6,1.9,1.1,2.7c0.6,0.8,1.2,1.6,2,2.2c0.8,0.6,1.7,1,2.7,1.2c1,0.2,2-0.1,2.8-0.5
		c0.9-0.5,1.6-1.1,2.2-1.9l0.1-0.1c0,0,0,0,0-0.1l0.1-0.1l0.2-0.3c0.1-0.2,0.3-0.4,0.4-0.6l0.3-0.7c0.1-0.2,0.2-0.4,0.3-0.7
		c0.2-0.5,0.3-0.9,0.4-1.4l0.2-0.7l0.1-0.7c0.3-2,0.1-4-0.2-6c-0.4-2-1-3.9-1.9-5.7c-0.2-0.5-0.5-0.9-0.7-1.3
		c-0.3-0.4-0.5-0.8-0.8-1.2c-0.6-0.8-1.3-1.6-2-2.3c-1.4-1.4-3-2.7-4.8-3.7c-1.7-1-3.6-1.8-5.6-2.2c-0.5-0.1-1-0.2-1.5-0.2
		c-0.5-0.1-1-0.1-1.5-0.1c-1,0-2,0.1-3,0.3c-1,0.2-1.8,0.7-2.5,1.4c-0.7,0.7-1.2,1.6-1.5,2.5c-0.7,1.9-1.1,3.9-1.6,5.8
		c-0.2,1-0.5,2-0.8,3c-0.4,1-0.9,1.9-1.8,2.6c-0.8,0.7-1.9,1-2.9,1l-0.8,0c-0.3,0-0.5-0.1-0.8-0.1c-0.1,0-0.3,0-0.4-0.1l-0.4-0.1
		c-0.3-0.1-0.5-0.2-0.7-0.3c-1.9-0.9-3.3-2.5-4.5-4.2c-1.1-1.7-1.9-3.7-1.9-5.8c0-1.1,0.3-2.1,0.9-3c0.5-0.9,1.3-1.6,2.2-2.2
		c1.7-1.2,3.7-1.9,5.7-2.3c2-0.4,4-0.7,6.1-0.6c0.5,0,1,0.1,1.5,0.2c0.5,0.1,1,0.3,1.5,0.6c0.4,0.3,0.8,0.7,1.1,1.2
		c0.3,0.5,0.4,1,0.6,1.5c0.2,1,0.2,2.1,0.2,3.1c0,1,0,2,0,3c0,1,0,2,0.2,3c0.1,1,0.4,2,0.7,2.9c0.3,0.9,0.8,1.9,1.3,2.7
		c0.5,0.8,1.2,1.6,2.1,2.1c0.8,0.5,1.8,0.7,2.8,0.6c1-0.1,1.9-0.5,2.7-1c0.8-0.5,1.5-1.2,2-2.1c0.5-0.8,0.8-1.8,1-2.8
		c0.3-2,0.1-4-0.4-5.9c-0.6-1.9-1.5-3.8-2.8-5.2c-0.7-0.7-1.5-1.3-2.4-1.7l-0.3-0.1l-0.2-0.1L65,8.6l-0.7-0.2
		c-0.5-0.2-1-0.2-1.5-0.3c-2-0.4-4-0.4-6-0.1c-2,0.4-3.9,1.1-5.6,2.1c-3.4,2.1-5.9,5.6-7,9.5c-0.5,1.9-0.7,4-0.6,6
		c0,0.5,0.1,1,0.2,1.5l0.1,0.7l0.2,0.7c0.2,1,0.6,1.9,1,2.8c1.8,3.6,4.1,7,5.6,10.8c0.4,1,0.7,2,0.8,3c0.1,0.5,0.1,1,0,1.6
		c-0.1,0.5-0.3,1-0.5,1.5c-0.5,1-1.4,1.7-2.4,2c-1,0.3-2.1,0.3-3.1,0.2c-2.1-0.3-4-1.1-5.8-2c-1.8-0.9-3.5-2.1-5.1-3.4
		c-1.5-1.4-2.9-2.9-3.8-4.8c-0.4-0.9-0.8-1.9-1-2.9c-0.1-0.5-0.1-1-0.1-1.5c0-0.3,0-0.5,0.1-0.8c0-0.3,0-0.5,0.1-0.8
		c0.1-0.5,0.2-1,0.4-1.5l0.3-0.7l0.4-0.7c0.1-0.2,0.2-0.5,0.4-0.7l0.4-0.6c0.1-0.2,0.3-0.4,0.5-0.6c0.2-0.2,0.3-0.4,0.5-0.6
		c1.4-1.5,3.1-2.8,4.9-3.7c0.5-0.2,0.9-0.5,1.4-0.7c0.5-0.2,0.9-0.4,1.4-0.6c0.5-0.2,1-0.3,1.5-0.5c0.5-0.1,1-0.2,1.5-0.3l0.8-0.1
		c0.3,0,0.5,0,0.8,0c0.5-0.1,1,0,1.5,0c0.3,0,0.5,0.1,0.8,0.1l0.4,0.1l0.4,0.1l0.7,0.2l0.7,0.2c1,0.3,1.9,0.8,2.7,1.5
		c0.8,0.7,1.3,1.6,1.7,2.6c0.3,1,0.4,2,0.4,3.1c0,1-0.1,2-0.2,3.1c-0.2,2-0.4,4-0.3,6c0.1,1,0.3,2,0.8,2.9c0.4,0.9,1.1,1.6,1.9,2.2
		l-0.2,0c2-1,3.8-2.4,5.2-4.1c0.7-0.9,1.3-1.8,1.8-2.8c0.5-1,0.8-2.1,0.9-3.2c0.1-1.1,0-2.2-0.3-3.3c-0.3-1-0.8-2-1.5-2.9
		c-0.7-0.9-1.5-1.7-2.3-2.3c-0.9-0.7-1.8-1.3-2.8-1.7c-1-0.4-2.1-0.7-3.2-0.5c-0.5,0-1.1,0.2-1.5,0.5c-0.5,0.3-0.9,0.6-1.3,1
		c-0.8,0.8-1.3,1.7-1.7,2.8c-0.4,1-0.6,2.1-0.6,3.2c-0.1,2.2,0.4,4.4,1.4,6.4c0.1,0.3,0.3,0.5,0.4,0.7c0.1,0.2,0.3,0.5,0.5,0.7
		c0.3,0.4,0.7,0.9,1.1,1.3c0.8,0.8,1.6,1.6,2.3,2.4c0.8,0.8,1.5,1.7,2,2.8c0.3,0.5,0.4,1.1,0.5,1.7c0,0.3,0,0.6,0,0.9
		c-0.1,0.3-0.1,0.6-0.2,0.8c-0.3,1.1-1.1,2.1-2,2.8c-0.9,0.7-2,1.2-3.1,1.5c-1.1,0.3-2.3,0.4-3.4,0.2c-0.3-0.1-0.6-0.1-0.8-0.2
		l-0.8-0.3c-0.5-0.2-1.1-0.4-1.5-0.8c-1-0.6-1.8-1.4-2.4-2.4c-0.6-1-0.9-2.1-1.1-3.2c-0.3-2.3,0.1-4.6,0.9-6.7
		c0.4-1.1,0.9-2.1,1.5-3c0.6-1,1.3-1.9,2.1-2.7c1.6-1.6,3.6-2.8,5.9-3.1c0.6-0.1,1.1,0,1.7,0c0.6,0.1,1.1,0.4,1.6,0.6
		c1,0.6,1.9,1.2,2.8,1.9c1.8,1.3,3.6,2.7,5.4,3.9c0.9,0.6,1.9,1.2,2.8,1.8c1,0.5,2,1,3.1,1.2c0.5,0.1,1.1,0.2,1.6,0.1
		c0.5-0.1,1-0.3,1.5-0.6c0.4-0.3,0.7-0.8,1-1.3c0.2-0.5,0.4-1,0.5-1.6c0.3-1.1,0.2-2.2-0.1-3.3c-0.3-1.1-0.7-2.1-1.2-3.1
		c-1-2-2.4-3.8-3.9-5.4c-1.5-1.6-3.2-3.1-5.2-4.1c-1-0.5-2-0.9-3.1-1.1c-0.5-0.1-1.1,0-1.6,0.1c-0.5,0.2-1,0.4-1.4,0.8
		c-0.8,0.8-1.2,1.9-1.4,2.9c-0.1,0.5-0.2,1.1-0.2,1.6c-0.1,0.6,0,1.1,0,1.7c0.1,1.1,0.4,2.2,0.8,3.2c0.4,1,1,2,1.6,2.9
		c0.6,0.9,1.4,1.7,2.3,2.4c0.8,0.7,1.8,1.4,2.7,1.9c2,1,4.2,1.6,6.4,1.3c1.1-0.2,2.1-0.6,3.1-1.2c0.9-0.6,1.7-1.5,2.2-2.4
		c0.1-0.2,0.3-0.5,0.4-0.7c0.1-0.1,0.1-0.2,0.2-0.4l0.1-0.4c0.1-0.3,0.2-0.5,0.3-0.8l0.2-0.8c0.3-1.1,0.4-2.2,0.5-3.3
		c0.1-2.2-0.2-4.5-1-6.5c-0.4-1-1-2-1.7-2.8c-0.7-0.8-1.6-1.6-2.5-2.1C69.5,17,67.2,16.7,65,17l0.1-0.1c0.1,1,0.4,1.9,0.9,2.7
		c0.5,0.8,1.3,1.4,2.1,2c0.8,0.5,1.7,0.9,2.6,1.3c0.9,0.4,1.8,0.7,2.7,1c1.8,0.6,3.7,1.2,5.5,2c0.9,0.4,1.8,0.9,2.6,1.4
		c0.8,0.6,1.5,1.3,2,2.1c0.5,0.9,0.8,1.8,0.8,2.8l0,0.7l-0.1,0.7c0,0.1,0,0.2,0,0.4l-0.1,0.4c0,0.2-0.1,0.5-0.2,0.7
		c-0.3,0.9-0.7,1.8-1.4,2.6c-0.7,0.7-1.5,1.3-2.5,1.6c-1.9,0.6-4,0.1-5.6-1.1c-0.8-0.6-1.4-1.4-1.9-2.2c-0.5-0.9-0.7-1.8-0.8-2.8
		c-0.1-2,0.4-3.9,1.3-5.7c0.9-1.7,2.2-3.3,4-4.2c0.9-0.5,1.8-0.7,2.8-0.7c1,0,2,0.3,2.8,0.8c0.8,0.5,1.5,1.3,2.1,2.1
		c0.5,0.8,1,1.7,1.3,2.6c0.3,0.9,0.5,1.9,0.3,2.9c-0.1,1-0.5,1.9-1,2.7c-1.1,1.6-2.8,2.8-4.6,3.6c-1.8,0.8-3.8,1.2-5.7,1
		c-1-0.1-1.9-0.3-2.8-0.7c-0.9-0.4-1.6-1.1-2.1-2l0,0c0.4,0.9,1.2,1.5,2.1,2c0.9,0.4,1.8,0.6,2.8,0.7c1.9,0.1,3.9-0.3,5.7-1
		c1.8-0.8,3.4-1.9,4.5-3.5c0.5-0.8,0.9-1.7,1-2.7c0.1-1,0-1.9-0.3-2.9c-0.6-1.8-1.6-3.6-3.3-4.7c-0.8-0.5-1.8-0.8-2.8-0.8
		c-1,0-1.9,0.3-2.8,0.7c-1.7,0.9-3.1,2.4-3.9,4.1c-0.9,1.7-1.4,3.7-1.3,5.6c0.1,1,0.3,1.9,0.8,2.8c0.4,0.9,1.1,1.6,1.9,2.2
		c1.5,1.2,3.6,1.6,5.5,1c0.9-0.3,1.8-0.8,2.4-1.5c0.6-0.7,1.1-1.6,1.4-2.5c0.1-0.2,0.1-0.5,0.2-0.7l0.1-0.4c0-0.1,0-0.2,0-0.4
		l0.1-0.7l0-0.7c0-1-0.3-1.9-0.8-2.7c-0.5-0.8-1.2-1.5-2-2.1c-0.8-0.6-1.7-1-2.5-1.4c-1.8-0.8-3.7-1.3-5.5-2c-0.9-0.3-1.8-0.6-2.8-1
		c-0.9-0.4-1.8-0.8-2.6-1.3c-0.8-0.5-1.6-1.2-2.1-2c-0.6-0.8-0.9-1.8-0.9-2.8l0-0.1l0.1,0c2.2-0.3,4.6,0,6.6,1.1
		c1,0.6,1.9,1.3,2.6,2.2c0.7,0.9,1.3,1.9,1.7,2.9c0.9,2.1,1.2,4.4,1.1,6.6c-0.1,1.1-0.2,2.2-0.5,3.3l-0.2,0.8
		c-0.1,0.3-0.2,0.5-0.3,0.8l-0.2,0.4c-0.1,0.1-0.1,0.3-0.2,0.4c-0.1,0.2-0.2,0.5-0.4,0.8c-0.6,1-1.4,1.8-2.3,2.5
		c-0.9,0.6-2,1.1-3.1,1.2c-2.3,0.3-4.6-0.3-6.5-1.3c-1-0.5-1.9-1.2-2.8-1.9c-0.9-0.7-1.6-1.6-2.3-2.5c-0.7-0.9-1.2-1.9-1.7-2.9
		c-0.4-1.1-0.7-2.2-0.8-3.3c0-0.6-0.1-1.1,0-1.7c0-0.6,0.1-1.1,0.2-1.7c0.2-1.1,0.6-2.2,1.4-3.1c0.4-0.4,0.9-0.7,1.5-0.9
		c0.6-0.2,1.1-0.2,1.7-0.1c1.1,0.1,2.2,0.6,3.2,1.1c2,1.1,3.7,2.6,5.3,4.2c1.5,1.6,2.9,3.5,3.9,5.5c0.5,1,1,2.1,1.2,3.2
		c0.1,0.6,0.2,1.1,0.2,1.7c0,0.6-0.1,1.1-0.2,1.7c-0.1,0.6-0.3,1.1-0.5,1.6c-0.2,0.5-0.6,1-1,1.4c-0.4,0.4-1,0.6-1.6,0.7
		c-0.6,0.1-1.2,0-1.7-0.1c-1.1-0.3-2.1-0.7-3.1-1.3c-1-0.5-1.9-1.1-2.9-1.8c-1.9-1.3-3.6-2.6-5.4-3.9c-0.9-0.7-1.8-1.3-2.8-1.8
		c-0.5-0.3-1-0.5-1.5-0.6c-0.5,0-1.1-0.1-1.6,0c-2.2,0.2-4.2,1.4-5.7,3c-0.8,0.8-1.5,1.7-2,2.6c-0.6,0.9-1.1,2-1.4,3
		c-0.8,2.1-1.1,4.3-0.8,6.5C42,48,42.4,49.1,43,50c0.6,0.9,1.3,1.7,2.3,2.3c0.5,0.3,1,0.5,1.5,0.7l0.8,0.3c0.2,0.1,0.5,0.1,0.8,0.2
		c1.1,0.1,2.2,0.1,3.3-0.2c1.1-0.3,2.1-0.8,2.9-1.4c0.9-0.7,1.5-1.6,1.8-2.6c0.1-0.2,0.1-0.5,0.2-0.8c0-0.3,0-0.5,0-0.8
		c-0.1-0.5-0.2-1.1-0.4-1.6c-0.4-1-1.1-1.9-1.9-2.7c-0.8-0.8-1.6-1.6-2.3-2.4c-0.4-0.4-0.8-0.8-1.1-1.3c-0.2-0.2-0.3-0.5-0.5-0.7
		c-0.1-0.2-0.3-0.5-0.4-0.7c-1-2-1.6-4.3-1.5-6.6c0-1.1,0.2-2.3,0.6-3.3c0.4-1.1,0.9-2.1,1.8-2.9c0.4-0.4,0.9-0.7,1.4-1
		c0.5-0.2,1.1-0.4,1.7-0.5c1.2-0.1,2.3,0.1,3.4,0.5c1,0.4,2,1.1,2.9,1.8c0.9,0.7,1.7,1.5,2.4,2.4c0.7,0.9,1.2,1.9,1.6,3
		c0.3,1.1,0.4,2.3,0.3,3.4c-0.1,1.1-0.4,2.2-0.9,3.3c-0.5,1-1.1,2-1.8,2.9c-1.4,1.7-3.3,3.2-5.3,4.2l-0.1,0l-0.1-0.1
		c-0.8-0.6-1.5-1.4-2-2.4c-0.5-0.9-0.7-2-0.8-3c-0.2-2.1,0.1-4.1,0.2-6.1c0.1-1,0.2-2,0.2-3c0-1-0.1-2-0.4-2.9
		c-0.3-0.9-0.8-1.8-1.5-2.5c-0.7-0.7-1.6-1.1-2.6-1.5l-0.7-0.2l-0.7-0.2l-0.4-0.1l-0.4-0.1c-0.2,0-0.5-0.1-0.7-0.1
		c-0.5,0-1-0.1-1.5,0c-0.2,0-0.5,0-0.7,0l-0.7,0.1c-0.5,0.1-1,0.2-1.5,0.3c-0.5,0.2-1,0.3-1.4,0.4c-0.5,0.2-0.9,0.3-1.4,0.6
		c-0.5,0.2-0.9,0.4-1.4,0.7c-1.8,0.9-3.4,2.2-4.8,3.6c-0.2,0.2-0.3,0.4-0.5,0.6c-0.2,0.2-0.3,0.4-0.5,0.6l-0.4,0.6
		c-0.1,0.2-0.2,0.4-0.4,0.6l-0.3,0.7l-0.3,0.7c-0.2,0.5-0.3,0.9-0.4,1.4c-0.1,0.2-0.1,0.5-0.1,0.7c0,0.2-0.1,0.5-0.1,0.7
		c0,0.5,0,1,0.1,1.5c0.1,1,0.5,1.9,0.9,2.8c0.9,1.8,2.2,3.3,3.7,4.7c1.5,1.3,3.2,2.5,5,3.4c1.8,0.9,3.7,1.6,5.7,1.9
		c1,0.1,2,0.1,2.9-0.2c0.9-0.3,1.7-1,2.1-1.8c0.5-0.9,0.6-1.9,0.5-2.8c-0.1-1-0.4-1.9-0.7-2.9c-1.4-3.8-3.8-7.1-5.6-10.8
		c-0.4-0.9-0.8-1.9-1-2.9l-0.2-0.8l-0.1-0.8c-0.1-0.5-0.1-1-0.2-1.5c-0.1-2,0.1-4.1,0.6-6.1c1.1-4,3.6-7.5,7.1-9.7
		c1.7-1.1,3.7-1.8,5.7-2.2c2-0.3,4.1-0.3,6.1,0.1c0.5,0.1,1,0.2,1.5,0.3l0.7,0.2l0.2,0.1l0.2,0.1l0.4,0.1c1,0.4,1.8,1.1,2.5,1.8
		c1.4,1.5,2.4,3.4,2.9,5.4c0.6,2,0.8,4.1,0.4,6.1c-0.2,1-0.5,2-1,2.9c-0.5,0.9-1.3,1.7-2.2,2.2c-0.9,0.5-1.9,1-2.9,1.1
		c-0.5,0.1-1.1,0-1.6-0.1c-0.5-0.1-1-0.3-1.5-0.6c-0.9-0.5-1.6-1.3-2.2-2.2c-0.6-0.9-1-1.8-1.3-2.8c-0.3-1-0.6-2-0.7-3
		c-0.2-1-0.2-2-0.2-3.1c0-1,0-2,0-3c0-1,0-2-0.2-3c-0.2-1-0.7-1.9-1.5-2.4c-0.4-0.3-0.9-0.4-1.3-0.6c-0.5-0.1-1-0.2-1.5-0.2
		c-2-0.1-4,0.1-6,0.6c-2,0.5-3.9,1.1-5.5,2.3c-0.8,0.6-1.5,1.3-2,2.1c-0.3,0.4-0.5,0.9-0.6,1.3c-0.1,0.2-0.1,0.5-0.2,0.7
		c0,0.2,0,0.5-0.1,0.7c0,2,0.8,3.9,1.9,5.6c1.1,1.7,2.5,3.2,4.3,4c0.2,0.1,0.4,0.2,0.7,0.3l0.3,0.1c0.1,0,0.2,0.1,0.4,0.1
		c0.2,0,0.5,0.1,0.7,0.1l0.7,0c1-0.1,1.9-0.3,2.7-0.9c0.8-0.6,1.3-1.5,1.6-2.4c0.4-0.9,0.6-1.9,0.8-2.9c0.4-2,0.8-4,1.6-5.9
		c0.4-1,0.9-1.9,1.6-2.6c0.7-0.8,1.7-1.3,2.7-1.5c2-0.5,4.1-0.4,6.1,0c2,0.4,3.9,1.2,5.7,2.2c1.8,1,3.4,2.3,4.9,3.7
		c0.7,0.7,1.4,1.5,2,2.3c0.3,0.4,0.6,0.8,0.9,1.3c0.2,0.4,0.5,0.9,0.7,1.3c0.9,1.8,1.6,3.8,2,5.8c0.4,2,0.5,4.1,0.2,6.1l-0.1,0.8
		L81.6,33c-0.1,0.5-0.3,1-0.4,1.5c-0.1,0.2-0.2,0.5-0.3,0.7l-0.3,0.7c-0.1,0.2-0.3,0.4-0.4,0.6L80,36.8l-0.1,0.1c0,0,0,0.1-0.1,0.1
		l-0.1,0.2c-0.6,0.8-1.4,1.6-2.3,2c-0.9,0.5-2,0.7-3.1,0.6c-1-0.1-2-0.6-2.8-1.2c-0.8-0.6-1.5-1.4-2.1-2.3c-0.6-0.9-1.1-1.8-1.2-2.9
		c-0.2-1,0-2.2,0.6-3.1c0.3-0.5,0.6-0.9,1-1.2c0.4-0.4,0.8-0.7,1.2-0.9c0.9-0.5,1.9-0.9,2.9-1.2c1-0.3,2-0.4,3.1-0.4
		c1,0,2.1,0.1,3.1,0.3c2,0.6,3.8,1.6,5.4,2.8c1.6,1.2,3.1,2.7,4.3,4.4c0.6,0.9,1.1,1.8,1.4,2.7c0.3,1,0.5,2,0.4,3.1
		c-0.1,1-0.4,2.1-0.9,3c-0.3,0.5-0.6,0.9-1.1,1.1c-0.5,0.3-1,0.4-1.5,0.5c-1.1,0.1-2.1-0.2-3.1-0.5c-1-0.4-1.9-0.8-2.8-1.2
		c-1.8-0.9-3.6-1.8-5.6-2.4c-1-0.3-2-0.4-2.9-0.4c-1,0-2,0.2-2.9,0.5c-1.9,0.6-3.7,1.5-5.3,2.8c-0.8,0.6-1.4,1.4-1.9,2.3
		c-0.4,0.9-0.6,1.9-0.4,2.8c0.2,1,0.7,1.8,1.3,2.6c0.6,0.8,1.4,1.4,2.2,2c1.6,1.2,3.5,2,5.4,2.6c1.9,0.5,4,0.7,5.9,0.5l-0.1,0.3
		c-0.3-0.7-0.9-1.3-1.5-1.8c-0.6-0.5-1.2-1.1-1.9-1.5c-1.3-1-2.6-1.9-3.9-2.9c-1.3-1-2.6-2-3.8-3.2c-0.6-0.6-1.1-1.2-1.6-1.9
		c-0.5-0.7-0.8-1.5-1-2.3c-0.3-1.7,0.5-3.4,1.7-4.6c0.3-0.3,0.6-0.5,1-0.8c0.4-0.2,0.7-0.4,1.1-0.5c0.4-0.2,0.8-0.2,1.2-0.3
		c0.4,0,0.8-0.1,1.3,0c0.4,0,0.8,0.1,1.2,0.1c0.4,0.1,0.8,0.2,1.2,0.3c0.8,0.2,1.6,0.6,2.3,0.9c1.5,0.8,2.8,1.7,4.1,2.8
		c1.2,1.1,2.3,2.3,3.3,3.7c0.9,1.4,1.7,2.9,2,4.5c0.2,0.8,0.3,1.7,0.1,2.5c-0.1,0.8-0.4,1.7-0.8,2.4c-0.4,0.7-0.9,1.5-1.6,1.9
		c-0.4,0.2-0.8,0.4-1.2,0.4c-0.4,0.1-0.9,0-1.3-0.2c-0.8-0.3-1.5-0.8-2.1-1.3c-0.6-0.5-1.2-1.1-1.7-1.8C75,51.4,74,50.1,73,48.8
		c-0.5-0.6-1-1.3-1.5-1.9c-0.5-0.6-1.1-1.2-1.7-1.7L69.5,45c-0.1-0.1-0.2-0.1-0.2-0.1l-0.1-0.1L69,44.7c-0.1,0-0.2-0.1-0.3-0.1
		c-0.4-0.1-0.8-0.2-1.2-0.2c-0.8-0.1-1.6-0.1-2.4,0c-1.6,0.2-3.1,1-4.2,2.1c-1.1,1.1-1.9,2.6-2.4,4.1c-0.9,3.1-0.4,6.6,1.4,9.2
		c1,1.3,2.2,2.4,3.7,2.9c1.5,0.5,3.2,0.5,4.7,0.1c1.5-0.5,3-1.3,4.1-2.4c0.6-0.5,1.1-1.2,1.5-1.9c0.4-0.7,0.7-1.5,0.7-2.2
		c0-0.8-0.3-1.5-0.8-2.1C74,54.1,73.9,54,73.8,54l-0.2-0.2l-0.2-0.2c-0.1-0.1-0.2-0.1-0.3-0.2l-0.3-0.2l-0.1-0.1l-0.1-0.1L72.4,53
		L72.1,53c-0.7-0.2-1.5,0.1-2.1,0.6c-0.6,0.5-1.2,1.1-1.7,1.7c-1.1,1.2-2,2.6-3.2,3.7c-0.6,0.6-1.2,1.1-1.9,1.6
		c-0.7,0.4-1.5,0.8-2.4,0.8l-0.3,0l-0.3,0c-0.2,0-0.4,0-0.6-0.1c-0.4-0.1-0.8-0.2-1.2-0.4c-0.8-0.4-1.4-0.9-2-1.5
		c-0.6-0.6-1.2-1.2-1.7-1.8c-0.5-0.6-1-1.3-1.4-2c-0.9-1.4-1.7-2.9-2.3-4.4c-0.6-1.5-1.1-3.1-1.1-4.8c0-0.8,0.2-1.7,0.7-2.4
		c0.1-0.1,0.1-0.2,0.2-0.2l0.3-0.2c0.2-0.2,0.4-0.2,0.6-0.3c0.2-0.1,0.4-0.1,0.6-0.2c0.2-0.1,0.4-0.1,0.6-0.1
		c0.9-0.1,1.7,0.1,2.5,0.4c0.8,0.3,1.5,0.7,2.2,1.3c1.3,1,2.4,2.3,3.3,3.7c0.9,1.4,1.7,2.8,2.3,4.3c0.6,1.5,1.1,3.1,1.5,4.7
		c0.3,1.6,0.5,3.3,0.3,4.9c0,0.4-0.1,0.8-0.2,1.2c-0.1,0.4-0.2,0.8-0.4,1.2c-0.3,0.8-0.7,1.5-1.3,2.1c-0.2,0.1-0.3,0.3-0.5,0.4
		l-0.5,0.4c-0.2,0.1-0.4,0.2-0.5,0.3c-0.2,0.1-0.4,0.2-0.6,0.3l-0.6,0.2c-0.2,0.1-0.4,0.1-0.6,0.2c-0.4,0.1-0.8,0.1-1.2,0.2
		c-1.7,0.1-3.3-0.2-4.9-0.8c-1.5-0.6-3-1.4-4.3-2.4c-0.7-0.5-1.3-1.1-1.8-1.7c-0.5-0.6-1-1.3-1.4-2.1c-0.8-1.5-1.3-3-2-4.5
		c-0.6-1.5-1.4-3-2.5-4.1c-0.6-0.6-1.2-1.1-1.9-1.3c-0.4-0.1-0.7,0-0.9,0.3c-0.2,0.3-0.3,0.7-0.4,1.1c-0.1,0.8,0.1,1.6,0.4,2.3
		c0.3,0.7,0.7,1.4,1.3,2c0.6,0.6,1.2,1,2,1.3c0.7,0.3,1.5,0.4,2.3,0.4c1.6-0.1,3.2-0.5,4.4-1.6c0.3-0.2,0.6-0.6,0.8-0.8
		c0.2-0.3,0.5-0.6,0.7-1c0.4-0.7,0.6-1.5,0.8-2.3c0.2-0.8,0.2-1.6,0.3-2.4c0-0.8-0.1-1.6-0.2-2.4c-0.3-1.6-0.8-3.1-1.7-4.5
		c-0.4-0.7-0.9-1.3-1.5-1.9c-0.6-0.5-1.3-1-2-1.2c-0.7-0.3-1.6-0.3-2.3-0.2c-0.4,0.1-0.8,0.2-1.1,0.3c-0.2,0.1-0.4,0.2-0.5,0.3
		l-0.3,0.1c-0.1,0-0.1,0-0.1,0.1L41.6,42c-0.7,0.4-1.2,1-1.7,1.7c-0.4,0.7-0.8,1.4-1.1,2.1c-0.6,1.5-1.1,3.1-1.6,4.6
		c-0.5,1.6-1.1,3.1-2,4.5c-0.5,0.7-1.1,1.3-1.8,1.8c-0.7,0.5-1.5,0.7-2.4,0.8c-0.8,0.1-1.7,0-2.5-0.1c-0.4-0.1-0.8-0.2-1.2-0.3
		c-0.4-0.1-0.8-0.2-1.2-0.4c-0.8-0.3-1.5-0.7-2.2-1.2c-0.7-0.5-1.3-1-1.9-1.6c-1.1-1.2-2-2.7-2.5-4.2c-0.2-0.8-0.4-1.6-0.3-2.5
		c0.1-0.8,0.4-1.7,1-2.3c0.6-0.6,1.4-0.9,2.3-1c0.4-0.1,0.8-0.1,1.2-0.1c0.4,0,0.8,0.1,1.2,0.1l0.6,0.1l0.6,0.2
		c0.4,0.1,0.8,0.2,1.2,0.4c0.8,0.2,1.6,0.6,2.3,1c1.4,0.8,2.7,1.9,3.8,3.1c1.1,1.2,2.1,2.6,2.6,4.2c0.3,0.8,0.4,1.6,0.4,2.5
		c-0.1,0.8-0.3,1.7-0.8,2.4c-0.1,0.2-0.2,0.3-0.4,0.5L35,58.6c-0.1,0.2-0.3,0.3-0.5,0.4c-0.2,0.1-0.3,0.2-0.5,0.3
		c-0.7,0.4-1.6,0.6-2.4,0.6c-1.7,0-3.3-0.4-4.8-1.3c-0.4-0.2-0.7-0.4-1-0.7l-0.5-0.4l-0.4-0.4c-0.6-0.6-1.1-1.3-1.5-2
		c-0.4-0.7-0.7-1.5-1-2.2c-0.2-0.4-0.4-0.7-0.7-1l-0.2-0.2c-0.1-0.1-0.2-0.1-0.3-0.1c-0.2-0.1-0.4-0.1-0.5-0.2
		c-0.8-0.2-1.6-0.1-2.4,0.1c-0.8,0.1-1.5,0.4-2.3,0.8c-1.4,0.7-2.8,1.7-3.9,2.9c-0.6,0.6-1,1.2-1.5,1.9c-0.4,0.7-0.7,1.4-0.9,2.2
		c-0.1,0.4-0.2,0.8-0.1,1.2v0.3c0,0.1,0,0.1,0,0.1l0,0.1c0,0.2,0,0.4,0.1,0.6c0.2,0.8,0.6,1.5,1.1,2.1c0.5,0.6,1.3,1,2,1.1
		c0.8,0.2,1.6,0,2.3-0.3c1.4-0.7,2.5-2.1,2.7-3.7c0.1-0.8,0.1-1.6,0-2.4c-0.1-0.8-0.4-1.6-0.7-2.3c-0.3-0.8-0.7-1.5-1.1-2.2
		c-0.1-0.2-0.2-0.3-0.3-0.5c-0.1-0.2-0.2-0.3-0.4-0.5c-0.2-0.3-0.5-0.6-0.8-0.9C13.3,51,12,50.1,10.7,49c-1.3-1-2.6-2.1-3.6-3.4
		c-0.5-0.7-0.9-1.4-0.9-2.3c0-0.4,0-0.8,0.2-1.3c0-0.2,0.1-0.4,0.2-0.6c0.1-0.2,0.2-0.4,0.4-0.5c0.3-0.3,0.6-0.6,1-0.8
		c0.4-0.2,0.8-0.3,1.2-0.3c0.8-0.1,1.7,0,2.5,0.1c1.6,0.3,3.2,1,4.4,2.2c0.6,0.6,1.1,1.3,1.4,2c0.4,0.8,0.6,1.6,0.6,2.4
		c0.2,1.7-0.1,3.3-0.9,4.8c-0.4,0.7-0.9,1.4-1.5,2c-0.6,0.6-1.3,1-2.1,1.3c-0.8,0.3-1.6,0.4-2.5,0.4c-0.8,0-1.7-0.2-2.4-0.5
		c-1.6-0.6-3-1.4-4.2-2.6c-0.5-0.6-0.9-1.4-1.1-2.2c-0.2-0.8-0.2-1.7,0-2.5c0.3-1.6,1-3.2,1.8-4.6C6.1,41.3,7,40,8,38.6
		c1-1.3,2-2.6,3-3.9c0.9-1.3,2-2.6,2.7-4c0.4-0.7,0.7-1.5,0.9-2.2c0.1-0.4,0-0.8-0.1-1.1c-0.1-0.4-0.4-0.6-0.7-0.9
		c-0.7-0.4-1.5-0.4-2.3-0.3c-0.8,0.1-1.6,0.4-2.3,0.7c-1.5,0.7-2.8,1.6-4,2.7c-0.6,0.6-1.1,1.2-1.5,1.9c-0.3,0.7-0.4,1.6-0.3,2.4
		c0.1,0.8,0.5,1.5,1.1,2c0.6,0.5,1.4,0.8,2.2,0.8c0.8,0.1,1.6,0,2.4-0.3c0.8-0.2,1.5-0.6,2.2-1c1.3-0.9,2.5-2.1,3.5-3.3
		c1-1.3,1.9-2.6,2.6-4.1c0.7-1.4,1.2-3,1.3-4.6c0.1-1.6-0.1-3.3-0.9-4.7c-0.7-1.4-2.2-2.4-3.8-2.6c-0.8-0.1-1.6-0.1-2.4,0.1
		c-0.8,0.1-1.6,0.3-2.3,0.6c-0.7,0.3-1.5,0.7-1.9,1.3C7.1,18.1,7,18.3,7,18.5c-0.1,0.2-0.1,0.4-0.1,0.6c0,0.4,0,0.8,0.1,1.2
		c0.2,0.8,0.7,1.4,1.3,2c0.6,0.5,1.3,1,2,1.3c1.5,0.7,3.1,1.1,4.7,1.1c0.8,0,1.6,0,2.4-0.2c0.8-0.2,1.5-0.5,2.1-1
		c1.2-1.1,1.6-2.9,1-4.4c-0.3-0.8-0.7-1.4-1.2-2.1c-0.5-0.7-1-1.3-1.5-1.9c-0.5-0.7-1-1.3-1.3-2.1c-0.4-0.7-0.6-1.6-0.6-2.4
		c0-0.8,0.3-1.7,0.7-2.4c0.4-0.7,0.9-1.4,1.6-1.9c1.2-1.1,2.8-1.8,4.5-2c1.6-0.2,3.4,0.1,4.7,1.1c0.7,0.5,1.2,1.2,1.5,2
		c0.3,0.8,0.4,1.6,0.4,2.4l-0.1,0.6c0,0.2-0.1,0.4-0.1,0.6c-0.1,0.4-0.2,0.8-0.3,1.2c-0.2,0.8-0.5,1.6-0.9,2.3
		c-0.4,0.7-0.9,1.4-1.5,2c-0.6,0.6-1.4,1-2.2,1.2c-0.8,0.2-1.7,0.2-2.5,0.1c-0.8-0.2-1.6-0.6-2.1-1.3c-0.5-0.6-0.9-1.4-1.3-2.1
		c-0.2-0.3-0.5-0.7-0.8-0.9c-0.2-0.1-0.3-0.2-0.5-0.3c-0.2-0.1-0.4-0.2-0.5-0.2c-0.8-0.2-1.6-0.2-2.3,0.2c-0.7,0.3-1.4,0.8-1.9,1.4
		c-1.1,1.2-1.9,2.6-2.4,4.2c-0.5,1.5-0.7,3.2-0.3,4.8c0.2,0.8,0.6,1.5,1.2,2.1c0.3,0.3,0.6,0.5,1,0.7c0.4,0.2,0.7,0.3,1.1,0.4
		c1.6,0.3,3.2,0,4.8-0.4c1.6-0.4,3.2-0.8,4.8-1.1c0.8-0.2,1.6-0.3,2.4-0.3c0.8,0,1.7,0.1,2.4,0.4l0.1,0l0,0.1
		c-0.1,0.4-0.3,0.7-0.6,1c-0.2,0.3-0.5,0.6-0.9,0.8c-0.7,0.4-1.5,0.6-2.2,0.6c-1.6,0-3.1-0.6-4.3-1.6c-0.6-0.5-1.1-1.1-1.5-1.8
		c-0.4-0.7-0.5-1.5-0.6-2.2c-0.1-1.6,0.5-3.1,1.4-4.4c0.9-1.3,2-2.4,3.3-3.2c1.3-0.9,2.7-1.6,4.2-2c1.5-0.4,3.1-0.5,4.6-0.3
		c1.5,0.1,3.1,0.5,4.5,1c1.5,0.5,2.9,1.1,4.2,1.9c1.3,0.8,2.6,1.7,3.6,2.9c1,1.2,1.7,2.6,2,4.1c0.3,1.5,0.4,3.1,0.2,4.6
		c-0.3,3.1-1.5,6.1-3.2,8.6c-0.9,1.3-1.8,2.5-3.1,3.4c-0.7,0.4-1.5,0.6-2.3,0.4c-0.8-0.2-1.4-0.7-2-1.2c-0.6-0.5-1.1-1.1-1.5-1.7
		c-0.5-0.6-0.9-1.2-1.4-1.9C31,32.8,30,31.6,29,30.5c-0.5-0.6-1.1-1-1.8-1.5c-0.3-0.2-0.7-0.4-1-0.6c-0.4-0.1-0.7-0.3-1.1-0.4
		c-1.5-0.4-3.1-0.2-4.5,0.5c-1.4,0.7-2.6,1.7-3.5,2.9c-1,1.2-1.8,2.5-2.4,3.9c-0.6,1.4-1.1,2.9-1.4,4.4c-0.3,1.5-0.3,3.1,0.1,4.6
		c0.4,1.5,1.2,2.9,2.4,3.8c0.6,0.5,1.2,0.9,1.9,1.2c0.7,0.3,1.5,0.5,2.2,0.6c1.5,0.2,3.1,0,4.5-0.6c1.4-0.6,2.7-1.5,3.7-2.7
		c0.5-0.6,0.8-1.3,1.1-2c0.3-0.7,0.4-1.5,0.4-2.2c0-1.5-0.5-3-1.2-4.4c-1.4-2.8-3.3-5.2-4.8-7.9c-0.4-0.7-0.7-1.4-1-2.1
		c-0.3-0.7-0.4-1.5-0.5-2.3c0-0.8,0.1-1.6,0.4-2.3c0.1-0.2,0.2-0.3,0.3-0.5l0.2-0.2c0.1-0.1,0.1-0.2,0.2-0.2
		c0.1-0.1,0.2-0.3,0.4-0.4l0.4-0.4c0.1-0.1,0.3-0.3,0.4-0.4l0.5-0.3c0.3-0.2,0.7-0.4,1-0.6l1-0.5c0.2-0.1,0.4-0.1,0.5-0.2
		c0.2-0.1,0.4-0.1,0.5-0.2c0.7-0.2,1.5-0.3,2.3-0.4c0.8,0,1.5,0.1,2.3,0.3c0.8,0.2,1.5,0.5,2.2,0.8c0.7,0.4,1.4,0.7,2,1.2
		c1.2,0.9,2.3,2.1,3.2,3.3c0.9,1.3,1.6,2.7,2,4.2c0.4,1.5,0.5,3.1,0.3,4.6c-0.1,0.8-0.4,1.5-0.7,2.2c-0.3,0.7-0.8,1.4-1.2,2
		c-0.5,0.6-1.1,1.1-1.7,1.6c-0.6,0.4-1.4,0.8-2.1,0.9c-0.8,0.1-1.6-0.1-2.2-0.5l-0.2-0.2c-0.1-0.1-0.1-0.1-0.2-0.2
		c-0.1-0.1-0.3-0.2-0.4-0.4c-0.2-0.3-0.4-0.6-0.6-1c-0.3-0.7-0.4-1.5-0.4-2.3L32,33.2c-0.1-0.8-0.2-1.5-0.4-2.3
		c-0.2-0.7-0.6-1.4-1.1-2c-0.5-0.5-1.2-0.9-1.9-1.2c-0.7-0.2-1.5-0.4-2.3-0.3c-1.5,0.1-3,0.8-4.1,1.8c-0.6,0.5-1.1,1.1-1.6,1.7
		c-0.2,0.3-0.4,0.6-0.6,1c-0.2,0.3-0.4,0.7-0.5,1c-0.7,1.4-1.1,2.9-1.2,4.4c0,0.8,0,1.5,0.1,2.3c0.2,0.7,0.4,1.5,0.8,2.1
		c0.4,0.7,0.9,1.2,1.5,1.7c0.6,0.4,1.3,0.8,2,1c0.7,0.3,1.5,0.5,2.2,0.6c0.8,0.1,1.5,0.1,2.3-0.1c0.7-0.3,1.3-0.9,1.6-1.6
		c0.3-0.7,0.4-1.5,0.4-2.2c0.1-1.5-0.2-3.1-0.5-4.6c-0.3-1.5-0.7-3-1-4.5c-0.2-0.7-0.4-1.5-0.5-2.3c-0.1-0.8-0.2-1.5-0.1-2.3
		c0.1-1.5,0.4-3.1,1.2-4.4c0.4-0.7,0.9-1.3,1.5-1.7c0.3-0.2,0.7-0.4,1-0.5c0.4-0.1,0.8-0.2,1.2-0.1c0.8,0.1,1.5,0.5,2.1,0.9
		c0.6,0.5,1.1,1.1,1.5,1.7c0.8,1.3,1.5,2.7,1.9,4.2c0.4,1.5,0.4,3.1,0,4.6c-0.2,0.7-0.6,1.4-1.1,2.1l-0.4,0.5
		c-0.1,0.1-0.3,0.3-0.4,0.4c-0.1,0.1-0.3,0.3-0.4,0.4c-0.1,0.1-0.3,0.3-0.4,0.4c-1.2,0.9-2.6,1.6-4.2,1.9c-0.8,0.1-1.6,0.1-2.3-0.1
		C27.7,37.5,27,37.1,26.5,36.5L26.5,36.5z"/>
</g>
</svg>
