<?xml version="1.0" standalone="no"?>
<!DOCTYPE svg PUBLIC "-//W3C//DTD SVG 20010904//EN"
 "http://www.w3.org/TR/2001/REC-SVG-20010904/DTD/svg10.dtd">
<svg version="1.0" xmlns="http://www.w3.org/2000/svg"
 width="1152.000000pt" height="1152.000000pt" viewBox="0 0 1152.000000 1152.000000"
 preserveAspectRatio="xMidYMid meet">
<metadata>
Created by potrace 1.11, written by Peter Selinger 2001-2013
</metadata>
<g transform="translate(0.000000,1152.000000) scale(0.100000,-0.100000)"
fill="#000000" stroke="none">
<path d="M2277 8404 c-1 -1 -29 -5 -61 -9 -101 -11 -207 -58 -277 -123 -23
-20 -30 -22 -48 -13 -20 11 -129 47 -175 58 -12 2 -57 6 -101 7 -85 2 -166
-11 -255 -43 -30 -10 -75 -22 -100 -25 -66 -9 -103 -16 -120 -22 -8 -3 -28 -8
-44 -11 -92 -15 -273 -96 -348 -154 -64 -51 -85 -34 -87 70 -1 19 -3 32 -5 30
-9 -9 -13 -65 -5 -91 7 -25 5 -26 -39 -33 -48 -7 -124 -56 -181 -117 -14 -16
-44 -37 -66 -47 -63 -28 -95 -63 -95 -102 0 -19 4 -40 9 -48 6 -10 3 -27 -8
-50 -16 -31 -35 -98 -57 -198 -2 -13 0 -23 6 -23 5 0 10 8 10 18 0 33 40 172
60 210 11 20 20 40 20 45 0 12 71 121 84 129 21 14 24 8 11 -19 -8 -16 -17
-44 -21 -63 -10 -54 -11 -160 -1 -160 4 0 6 -4 3 -8 -3 -5 1 -9 9 -9 11 0 12
3 3 14 -26 31 5 201 47 256 19 26 129 31 170 8 30 -16 30 -17 31 -104 1 -75 6
-96 31 -146 l29 -59 -41 -10 -40 -11 38 4 c44 3 46 -3 9 -38 -19 -18 -39 -27
-60 -27 -18 0 -32 -4 -32 -10 0 -9 22 -15 44 -11 5 1 6 -5 2 -14 -3 -9 -6 -19
-6 -21 0 -2 -4 -4 -10 -4 -5 0 -10 7 -10 15 0 8 -4 15 -10 15 -6 0 -6 -9 -1
-22 5 -13 4 -35 -1 -50 -9 -24 -14 -29 -30 -28 -2 0 -27 -7 -57 -16 -71 -21
-156 -60 -208 -95 -44 -31 -46 -30 -57 16 -21 85 -19 93 32 130 52 38 133 80
174 90 30 8 28 24 -5 44 -22 14 -22 14 -3 -7 18 -21 18 -22 0 -28 -60 -19 -85
-32 -146 -70 l-67 -43 3 35 c2 19 0 34 -5 34 -5 0 -9 -18 -9 -39 0 -27 -8 -49
-24 -68 -35 -42 -47 -70 -53 -120 -11 -100 53 -164 159 -162 l53 2 -57 7 c-54
7 -108 31 -108 48 0 4 14 23 30 42 29 34 31 34 42 15 18 -32 77 -85 93 -85 8
0 12 -6 10 -12 -4 -10 15 -12 77 -11 46 2 92 4 103 5 16 2 20 -3 20 -24 -1
-14 3 -25 6 -22 4 2 11 -6 15 -18 3 -13 14 -34 23 -48 9 -14 15 -35 13 -47 -3
-21 -5 -22 -26 -8 -37 25 -110 42 -175 43 -48 0 -69 -5 -96 -24 -40 -26 -42
-25 -18 14 24 40 2 15 -41 -45 -83 -116 -137 -288 -108 -339 9 -15 10 -9 7 30
-6 57 3 91 52 197 34 72 85 151 68 104 -4 -11 -9 -29 -10 -40 -1 -11 0 -13 2
-4 2 9 16 30 31 48 24 28 35 33 88 38 47 4 79 0 132 -16 39 -12 74 -26 77 -32
4 -5 8 -49 9 -97 3 -95 16 -141 58 -215 16 -26 28 -52 28 -57 0 -6 5 -10 10
-10 6 0 10 -5 10 -11 0 -5 -4 -7 -10 -4 -5 3 -15 1 -22 -5 -7 -6 -42 -29 -78
-51 -204 -129 -283 -335 -172 -452 105 -110 286 -33 306 131 3 23 2 42 -2 42
-4 0 -9 -15 -10 -32 -3 -38 -36 -106 -60 -126 -31 -24 -95 -50 -116 -46 -64
12 -77 18 -103 50 -78 98 -60 212 52 329 65 69 202 164 153 108 -17 -21 -35
-51 -23 -41 4 4 15 2 24 -5 14 -10 14 -10 3 5 -12 14 -11 21 4 41 10 13 29 29
42 35 22 10 28 7 63 -28 47 -48 98 -77 100 -58 1 7 1 17 0 22 -1 5 5 4 13 -4
17 -13 22 -35 7 -26 -15 10 -6 -28 17 -72 13 -24 47 -68 76 -98 29 -30 50 -57
47 -61 -3 -3 2 -3 12 0 9 4 17 3 17 -2 0 -11 140 -85 147 -78 2 3 -25 20 -60
38 -48 23 -64 36 -60 48 4 13 3 14 -5 2 -20 -28 -182 156 -182 205 0 3 13 -2
29 -11 32 -16 156 -14 173 3 5 5 -27 7 -71 4 -68 -4 -82 -2 -87 12 -3 9 -10
13 -15 10 -5 -3 -9 -2 -9 3 0 4 -14 24 -30 43 -16 19 -30 42 -30 51 0 9 -7 22
-14 29 -8 6 -20 26 -26 45 -28 85 -14 162 37 199 26 19 27 19 82 0 32 -11 83
-19 118 -19 60 0 62 0 67 -28 3 -16 3 -33 0 -38 -3 -5 0 -14 6 -21 6 -7 20
-28 31 -46 10 -18 40 -47 65 -65 86 -60 82 -54 54 -78 -14 -11 -18 -17 -10
-13 8 4 23 14 33 22 19 16 24 13 99 -61 32 -32 32 -30 -26 -96 l-31 -35 32 25
c17 13 37 34 44 47 26 46 48 12 30 -47 -6 -21 -26 -53 -44 -72 -27 -28 -40
-34 -70 -33 -20 1 -35 -2 -32 -6 3 -5 15 -6 28 -3 18 4 19 3 6 -6 -9 -6 -34
-11 -55 -12 -57 -2 -66 0 -58 13 5 7 3 8 -7 2 -8 -4 -26 -7 -41 -5 -14 1 -28
-1 -31 -6 -5 -9 14 -11 128 -15 58 -2 77 2 111 21 40 22 84 87 84 123 0 42 29
19 65 -52 20 -39 28 -135 14 -162 -5 -10 -5 -19 0 -22 5 -3 8 -36 6 -73 -1
-38 2 -74 7 -80 6 -8 6 -13 1 -13 -5 0 -9 -49 -9 -110 0 -60 4 -110 8 -110 4
0 5 20 3 45 -4 37 -2 43 10 39 19 -8 19 10 0 29 -12 12 -12 16 -1 20 16 6 10
58 -8 69 -8 6 -8 8 1 8 6 0 11 15 11 35 0 20 -5 35 -11 35 -7 0 -5 5 3 10 13
9 13 11 0 20 -8 5 -10 10 -4 10 8 0 11 40 9 137 l-3 136 37 -40 c20 -22 44
-42 53 -46 14 -5 16 -17 12 -69 -2 -35 -6 -76 -8 -93 -3 -16 -8 -70 -11 -120
-4 -49 -9 -93 -11 -97 -3 -4 0 -9 6 -13 5 -3 10 2 11 12 2 79 11 189 16 193 3
3 2 -71 -1 -165 -4 -93 -7 -187 -7 -207 0 -22 -6 -39 -15 -42 -12 -5 -13 6 -8
62 3 37 7 82 9 100 1 17 -1 32 -6 32 -5 0 -9 -16 -9 -35 0 -25 -4 -33 -14 -29
-8 3 -17 1 -20 -4 -3 -5 2 -9 11 -8 27 2 23 -48 -3 -52 -19 -3 -22 2 -22 44
-2 64 -12 70 -12 6 0 -51 -14 -78 -23 -45 -4 17 -5 17 -6 0 0 -10 -8 -28 -16
-40 -12 -19 -12 -27 -1 -49 21 -40 17 -76 -7 -80 -22 -3 -72 -66 -62 -77 4 -3
10 0 14 7 6 10 12 7 24 -12 21 -31 22 -56 2 -56 -16 0 -38 34 -28 44 3 3 1 6
-5 6 -7 0 -12 -3 -12 -6 0 -12 24 -49 36 -57 21 -12 17 -38 -10 -66 -29 -31
-39 -75 -26 -116 5 -16 11 -41 13 -55 6 -38 18 -61 29 -54 6 4 6 -2 -1 -14
-21 -39 -22 -99 -2 -124 l19 -23 -3 35 c-1 19 2 41 7 47 6 7 7 21 4 30 -5 13
-4 15 4 7 6 -6 12 -53 13 -108 1 -69 5 -95 14 -92 13 5 27 -23 17 -33 -4 -3
-9 0 -11 7 -6 15 -24 16 -20 1 1 -6 -24 -19 -57 -29 -75 -24 -85 -34 -60 -61
27 -30 101 -72 114 -64 5 3 7 0 4 -9 -6 -16 24 -36 44 -29 6 3 12 0 12 -7 0
-6 -4 -8 -10 -5 -15 9 -12 -14 4 -30 10 -11 13 -50 10 -187 -10 -487 -9 -551
4 -555 8 -3 12 9 13 39 0 24 2 117 3 208 3 167 16 463 21 468 1 2 14 0 29 -4
l26 -6 1 -172 c1 -94 3 -187 5 -206 1 -19 6 -73 10 -120 8 -103 14 -118 37
-95 10 9 15 21 12 26 -17 27 -19 71 -14 402 1 108 5 147 14 147 9 0 12 -31 11
-120 -1 -66 0 -117 3 -114 3 3 7 49 7 102 2 140 1 134 27 130 l22 -3 1 -225
c1 -299 5 -467 11 -491 7 -27 30 -24 28 4 -1 12 2 32 6 44 5 13 4 25 -1 28
-12 7 -1 67 14 77 7 5 6 8 -4 9 -10 0 -8 3 5 9 11 5 14 9 8 9 -8 1 -13 14 -12
34 0 27 2 29 9 12 5 -11 9 -14 9 -7 1 7 -4 22 -9 33 -6 10 -7 19 -2 19 5 0 7
12 4 26 -4 21 -2 25 9 19 11 -6 12 -5 2 6 -17 17 -18 73 -1 63 7 -5 8 -3 3 7
-14 22 -15 60 -2 52 7 -4 6 1 -2 11 -13 15 -13 19 0 27 8 5 9 9 3 9 -6 0 -10
23 -10 58 1 31 -2 80 -5 107 -7 54 -3 75 14 75 6 0 19 7 29 17 21 18 19 29 23
-153 1 -56 5 -107 10 -114 4 -7 2 -16 -5 -20 -8 -5 -9 -9 -1 -11 7 -3 12 -63
15 -173 3 -93 8 -171 11 -174 8 -8 0 482 -8 495 -4 6 -3 14 3 18 5 3 10 11 10
16 0 6 -6 7 -12 3 -8 -5 -7 0 2 11 9 11 10 16 3 11 -9 -5 -13 2 -14 26 -5 106
-3 141 8 150 9 7 11 3 7 -16 -2 -14 -1 -26 4 -26 9 0 12 42 13 148 0 39 3 72
8 72 10 0 20 23 27 58 2 12 0 22 -6 22 -5 0 -10 -7 -10 -15 0 -8 -4 -15 -8
-15 -4 0 -6 16 -4 35 3 21 8 32 15 28 7 -4 8 0 2 13 -5 10 -9 56 -8 102 1 64
5 87 19 103 9 10 14 22 11 26 -4 3 -2 12 4 19 13 16 2 37 -14 27 -7 -4 -6 1 2
11 12 14 12 19 1 26 -10 6 -11 23 -5 71 4 35 9 80 12 99 2 19 11 41 20 48 15
10 15 17 4 47 -7 19 -10 43 -7 53 3 9 8 42 11 72 3 30 11 84 16 120 19 123 33
233 43 350 4 41 9 84 11 95 2 11 4 44 4 73 1 33 5 51 11 47 6 -3 10 -2 10 4 0
5 -4 13 -10 16 -5 3 -10 14 -10 23 0 11 6 7 15 -12 8 -15 12 -32 9 -37 -3 -5
1 -15 8 -23 7 -7 25 -29 40 -48 15 -19 38 -46 52 -61 29 -31 134 -87 163 -87
11 0 42 -10 69 -22 27 -12 52 -23 57 -24 4 -1 9 -2 11 -3 12 -3 -29 -93 -57
-124 -72 -81 -225 -106 -350 -58 -16 6 -34 11 -40 10 -7 0 17 -12 53 -26 173
-67 361 0 410 147 7 22 16 40 19 40 3 1 31 3 61 5 56 4 69 6 105 19 44 17 72
32 106 58 24 18 49 28 72 28 133 0 284 45 372 110 28 21 61 41 75 45 52 15
116 59 148 101 18 24 28 44 22 44 -5 0 -10 -4 -10 -8 0 -14 -68 -80 -97 -95
-48 -25 -76 -31 -69 -16 4 8 1 6 -7 -4 -16 -20 -89 -36 -144 -31 -91 7 -143
16 -143 26 0 5 7 8 15 4 56 -21 -54 113 -135 165 -22 15 -23 18 -10 35 9 10
10 15 3 10 -15 -9 -17 3 -3 24 5 8 10 10 10 4 0 -6 10 -22 21 -35 12 -13 33
-40 47 -59 39 -52 89 -95 140 -120 42 -22 48 -22 85 -9 55 19 97 75 117 155
21 84 13 132 -39 239 -37 74 -101 163 -101 140 0 -5 12 -23 26 -40 15 -16 45
-68 66 -114 53 -110 54 -199 5 -281 -53 -88 -106 -99 -192 -40 -50 35 -145
137 -145 157 0 8 -4 12 -8 9 -14 -9 -31 35 -36 94 -3 30 -8 66 -11 80 -5 21 5
37 68 100 41 41 78 83 84 93 9 17 12 17 62 -5 54 -24 53 -22 36 -85 -3 -10 1
-4 10 14 10 23 20 31 34 28 23 -4 134 -54 141 -63 5 -7 10 -8 96 -18 63 -8
119 9 141 42 8 13 18 24 22 24 16 0 -4 -231 -24 -282 -4 -10 -3 -18 2 -18 5 0
10 6 11 13 1 19 12 71 18 87 3 8 8 78 11 155 10 260 11 247 -42 350 -28 55
-44 98 -40 105 4 7 10 31 13 54 2 23 10 68 17 101 21 101 10 203 -35 325 -65
177 -183 309 -329 368 -52 21 -151 30 -151 14 0 -4 20 -7 45 -7 25 1 60 -5 78
-13 71 -30 117 -55 117 -63 0 -5 5 -9 11 -9 18 0 107 -98 145 -161 36 -60 79
-166 90 -221 8 -40 13 -179 7 -194 -5 -12 -176 -7 -213 7 -14 5 -41 10 -61 11
l-36 1 -17 86 c-10 47 -21 90 -26 96 -4 5 -8 12 -9 15 0 8 -12 43 -29 85 -28
69 -83 147 -156 222 -39 40 -71 76 -71 79 0 8 87 54 102 54 7 0 13 4 13 10 0
11 -27 2 -99 -34 -27 -14 -51 -22 -53 -17 -5 13 -109 75 -170 101 -40 18 -61
34 -74 59 -51 95 -165 166 -296 186 -38 6 -118 12 -121 9z m133 -29 c10 -3 28
-8 40 -10 72 -14 174 -84 215 -148 l18 -27 -44 18 c-24 10 -60 22 -79 25 -19
3 -46 9 -60 12 -32 8 -197 8 -209 1 -5 -4 -22 -1 -37 4 -25 10 -26 9 -13 -7 7
-10 10 -15 5 -11 -10 9 -109 -26 -162 -57 l-44 -26 -27 25 c-16 13 -39 34 -53
45 l-25 21 39 35 c54 48 136 85 221 100 67 12 177 12 215 0z m-704 -79 c62
-12 164 -47 164 -57 0 -5 3 -8 8 -6 13 4 12 -12 -4 -50 -9 -20 -16 -61 -15
-90 0 -29 -1 -53 -3 -53 -2 0 -15 17 -29 38 -14 20 -39 52 -56 70 l-31 33 43
19 c23 11 36 20 29 20 -7 0 -27 -7 -43 -16 -29 -14 -32 -14 -77 14 -62 38
-107 52 -170 53 -70 2 -75 15 -10 26 61 10 137 9 194 -1z m-261 -16 c-7 -11
20 -18 91 -24 55 -4 164 -52 172 -76 3 -8 -6 -6 -24 7 -55 38 -142 54 -214 39
-112 -23 -185 -72 -196 -132 -6 -30 -8 -32 -47 -29 -42 3 -87 -17 -87 -39 0
-18 -54 -73 -67 -69 -8 3 -13 -4 -13 -16 0 -23 -27 -41 -50 -33 -12 4 -13 3
-3 -10 11 -12 9 -18 -7 -33 -11 -10 -23 -15 -27 -11 -17 16 86 172 120 181 54
15 77 29 77 45 0 57 46 103 155 158 45 22 44 22 85 22 17 0 29 3 29 8 -2 12 1
22 7 22 3 0 2 -4 -1 -10z m-166 -34 c-2 -2 -25 -20 -51 -40 -39 -29 -48 -33
-49 -18 -1 14 -2 14 -6 -2 -7 -27 -128 -146 -149 -146 -9 0 -43 -14 -75 -32
l-58 -32 -46 22 c-25 12 -56 22 -70 22 -57 0 -29 36 71 93 54 30 185 81 239
93 11 3 43 9 70 15 60 13 118 26 124 28 2 0 2 -1 0 -3z m1191 -28 c0 -4 -17
-8 -37 -8 -21 -1 -55 -7 -75 -14 -26 -9 -40 -10 -47 -3 -26 26 -9 33 92 33 37
1 67 -3 67 -8z m-838 -22 c20 -9 39 -20 42 -24 3 -5 -13 -26 -35 -47 -43 -40
-79 -102 -79 -134 0 -21 0 -21 -52 0 -63 26 -163 57 -198 62 -14 2 -24 7 -22
10 1 4 2 16 2 27 0 23 52 79 90 97 71 34 184 38 252 9z m384 -47 c3 -6 -4 -18
-16 -26 -13 -9 -41 -35 -63 -59 -22 -24 -44 -41 -48 -39 -22 14 -1 160 26 187
8 7 89 -44 101 -63z m281 49 c8 -19 5 -26 -20 -47 -32 -27 -102 -165 -111
-216 -2 -17 -5 -34 -6 -40 -1 -5 -6 4 -10 20 -5 21 -7 11 -5 -34 2 -56 -1 -68
-21 -88 -13 -13 -30 -23 -38 -23 -20 0 -140 132 -165 182 l-20 41 27 32 c32
37 101 95 112 95 5 0 25 -27 46 -60 20 -33 39 -60 41 -60 3 0 -11 29 -31 65
-20 36 -36 67 -36 68 0 11 187 86 216 87 6 0 15 -10 21 -22z m340 -27 c52 -15
59 -21 70 -61 18 -62 3 -248 -17 -235 -5 3 -11 1 -15 -5 -3 -5 1 -10 10 -10 9
0 13 -4 10 -10 -3 -5 -16 -8 -28 -6 -12 3 -29 5 -37 6 -8 1 -4 5 10 9 14 5
-46 7 -132 6 -137 -1 -158 1 -159 14 0 9 -1 70 -3 137 -2 66 -6 125 -9 131 -8
13 35 31 83 35 60 6 177 0 217 -11z m-812 -116 c40 -61 44 -73 31 -84 -9 -8
-18 3 -35 44 -13 30 -41 78 -64 107 l-40 53 44 -45 c25 -25 54 -58 64 -75z
m-29 -42 c19 -39 34 -76 34 -82 0 -5 -11 -32 -25 -59 -14 -28 -25 -57 -25 -66
0 -9 -4 -16 -10 -16 -5 0 -10 4 -10 8 0 14 -82 91 -130 123 -62 42 -79 39 -74
-12 2 -23 6 -44 8 -48 3 -4 -37 -7 -87 -8 -91 -1 -138 -6 -156 -17 -15 -10
-38 79 -44 169 -1 20 3 30 13 31 23 0 128 -31 195 -58 66 -26 95 -26 95 2 0
34 32 94 73 137 l42 43 34 -37 c18 -21 49 -70 67 -110z m533 -22 l2 -136 -82
-23 c-45 -12 -83 -21 -85 -19 -9 8 60 223 83 260 34 55 64 81 74 66 4 -7 8
-73 8 -148z m-1167 109 c-2 -16 -7 -30 -11 -31 -3 0 -17 -3 -31 -5 -23 -4 -23
-3 10 31 19 19 35 35 35 35 1 0 0 -13 -3 -30z m1659 -2 c30 -18 67 -39 82 -47
15 -8 27 -17 27 -20 0 -3 -17 -25 -38 -48 l-38 -42 -13 37 c-8 20 -22 49 -32
64 -11 14 -19 30 -19 34 0 4 -10 18 -22 31 -30 32 -11 29 53 -9z m-32 -69 c45
-82 51 -108 34 -143 -13 -24 -19 -27 -46 -23 -31 6 -31 5 -7 -6 14 -6 26 -12
28 -13 2 -1 -1 -12 -7 -23 -11 -19 -13 -20 -45 -5 -34 17 -44 43 -17 45 9 0
11 3 4 5 -7 3 -9 17 -5 37 3 18 6 67 7 109 0 46 4 78 10 78 6 0 25 -27 44 -61z
m-1532 7 c3 -3 7 -27 10 -53 2 -26 6 -59 9 -73 17 -82 18 -78 -28 -91 -24 -7
-48 -16 -54 -21 -7 -5 -32 7 -65 33 -30 23 -55 43 -57 45 -2 1 13 24 32 52 20
27 36 53 36 58 0 4 12 20 26 35 20 21 34 27 56 24 17 -2 33 -6 35 -9z m-583
-31 c13 -13 13 -18 0 -45 -9 -16 -16 -39 -17 -50 -2 -24 -13 -25 -58 -7 -19 8
-56 12 -83 11 -44 -3 -47 -2 -35 14 44 56 79 75 171 91 4 0 13 -6 22 -14z
m160 -18 l49 -21 -37 -30 c-51 -44 -45 -53 9 -12 44 34 45 34 77 19 18 -9 34
-17 36 -18 2 -2 -5 -19 -14 -38 -12 -26 -25 -37 -43 -39 -23 -3 -77 19 -107
43 -6 5 -14 6 -18 2 -4 -4 -4 0 -1 10 5 11 -5 34 -29 67 l-36 49 33 -6 c17 -3
54 -15 81 -26z m190 18 c-4 -8 -10 -15 -15 -15 -5 0 -9 -6 -9 -14 0 -25 -25
-37 -55 -26 -32 12 -27 21 30 49 49 24 56 25 49 6z m2019 -79 c71 -74 117
-142 150 -224 23 -55 24 -62 9 -63 -13 0 -12 -2 4 -9 14 -5 24 -22 29 -47 5
-21 9 -42 11 -48 1 -5 5 -25 8 -43 l6 -32 -50 6 c-41 5 -57 13 -92 48 -23 22
-43 44 -44 49 -1 4 -3 10 -4 15 -1 4 -2 11 -1 16 1 5 -5 4 -13 -3 -13 -11 -22
-9 -51 9 -19 12 -35 25 -35 28 0 4 -20 28 -44 54 -32 35 -43 56 -43 80 0 36
-9 102 -18 140 -4 17 4 34 36 71 48 55 40 58 142 -47z m-2273 -9 c0 -6 -13 7
-30 28 -16 21 -30 41 -30 44 1 9 60 -62 60 -72z m-27 -8 c15 -22 31 -38 36
-35 4 3 24 -6 43 -19 20 -13 48 -26 64 -28 41 -5 40 -27 -1 -72 l-35 -39 0 27
c0 38 -29 106 -51 117 -14 8 -22 4 -39 -20 -12 -17 -17 -30 -11 -30 5 0 13 9
16 20 3 11 10 20 15 20 15 0 49 -65 56 -104 5 -35 2 -41 -45 -88 -28 -28 -51
-55 -51 -61 0 -23 -48 36 -59 74 -16 52 -24 179 -11 179 16 0 62 -68 54 -81
-4 -8 -3 -9 4 -5 20 12 14 29 -23 68 -39 41 -39 39 -25 90 13 44 25 42 63 -13z
m1178 -24 c17 -33 47 -81 65 -107 l33 -46 -37 -28 c-20 -15 -39 -30 -42 -33
-3 -4 -17 -16 -31 -29 l-26 -23 0 68 c1 84 -11 194 -23 212 -9 16 10 66 21 54
4 -5 22 -35 40 -68z m-289 14 c26 -17 68 -53 92 -80 41 -46 66 -61 66 -40 0 5
4 20 9 33 5 13 8 25 8 28 0 3 5 16 13 29 12 23 13 23 23 6 5 -10 12 -67 15
-127 3 -92 2 -107 -10 -103 -8 3 -26 28 -38 56 -19 39 -37 59 -84 89 -34 22
-68 40 -77 40 -9 0 -19 3 -23 8 -4 4 -12 7 -18 7 -6 0 -16 19 -23 43 -7 23
-10 42 -7 42 3 0 27 -14 54 -31z m1225 -83 c3 -36 3 -66 1 -66 -2 0 -18 10
-35 23 l-31 23 17 35 c38 77 40 76 48 -15z m-2532 -22 c-35 -59 -35 -59 -35
-25 0 25 8 40 32 62 18 15 34 26 36 25 1 -2 -13 -30 -33 -62z m730 45 c16
-107 17 -103 -30 -128 -23 -12 -62 -41 -85 -63 l-42 -41 6 49 c12 99 34 137
106 186 28 19 42 18 45 -3z m68 -22 l39 -32 -36 -17 -36 -18 -5 25 c-3 14 -7
36 -10 50 -7 33 2 31 48 -8z m422 24 c15 -1 29 -17 48 -56 15 -31 27 -59 27
-63 0 -4 -12 -8 -27 -7 -16 0 -47 -5 -70 -13 -41 -13 -44 -13 -115 23 -62 31
-96 61 -98 86 0 11 32 20 85 26 28 3 51 6 52 6 1 1 19 1 40 0 21 -1 47 -2 58
-2z m505 -91 c0 -5 -3 -10 -7 -10 -12 0 -53 43 -53 57 0 7 -4 13 -10 13 -5 0
-10 7 -10 15 0 9 16 -1 40 -25 22 -22 40 -44 40 -50z m528 75 c30 -5 42 -11
43 -23 0 -11 3 -12 6 -4 2 6 13 12 24 12 19 0 24 -16 13 -44 -6 -15 -8 -15
-21 1 -13 16 -13 16 -3 -5 9 -19 8 -29 -6 -50 -22 -35 -44 -56 -67 -65 -10 -4
-15 -11 -12 -17 3 -5 0 -7 -8 -4 -8 3 -18 0 -23 -7 -5 -8 -3 -10 7 -4 8 5 11
4 6 -1 -5 -5 -36 -9 -69 -10 l-60 -1 -20 44 c-11 26 -16 52 -13 65 5 12 3 18
-3 14 -5 -3 -12 11 -16 32 -10 63 -8 68 26 70 18 2 33 4 35 6 4 4 107 -2 161
-9z m-1269 -47 c1 -4 -26 -6 -58 -5 -68 2 -69 11 -3 31 47 13 58 9 61 -26z
m366 22 c37 -14 86 -67 79 -85 -5 -11 -14 -15 -28 -11 -11 3 -29 6 -39 6 -16
0 -77 81 -77 103 0 8 19 4 65 -13z m656 13 c0 -5 2 -15 4 -23 14 -66 14 -69
-22 -105 -19 -19 -40 -35 -46 -35 -6 0 -35 14 -64 32 -43 26 -53 37 -53 59 0
23 7 30 43 43 103 37 136 43 138 29z m411 -37 c12 -9 16 -21 11 -42 -3 -16 -6
-35 -6 -42 0 -7 -7 -10 -15 -7 -18 7 -82 -5 -82 -15 0 -4 20 -5 45 -3 44 5 44
5 39 -22 -3 -15 -6 -54 -7 -87 -2 -58 -3 -59 -28 -54 -14 2 -49 21 -78 40 -29
20 -57 36 -62 36 -20 0 -7 18 36 50 25 19 45 39 45 44 0 6 7 20 15 30 12 16
17 17 32 6 17 -13 17 -13 2 4 -14 15 -15 23 -6 47 12 31 32 36 59 15z m-1528
-37 c29 -23 34 -39 11 -39 -8 0 -15 -4 -15 -10 0 -6 9 -6 24 0 21 7 26 6 31
-10 4 -11 11 -20 16 -20 5 0 9 -5 9 -10 0 -6 -22 -9 -55 -8 -57 3 -63 6 -43
26 9 9 9 12 0 12 -6 0 -16 -9 -22 -19 -15 -29 -48 -22 -60 13 -20 58 -8 72 71
85 4 1 18 -8 33 -20z m101 8 c7 -14 33 -123 30 -125 -2 -3 -20 13 -39 34 -35
38 -35 39 -13 46 21 6 21 6 -3 7 -14 1 -36 13 -50 27 l-24 26 49 -6 c27 -4 50
-8 50 -9z m1523 -26 c21 -18 28 -41 17 -53 -3 -3 -26 0 -51 5 -43 10 -45 12
-38 41 11 52 18 53 72 7z m-1433 -8 c49 -24 70 -43 47 -43 -5 0 -23 -14 -41
-32 -24 -24 -35 -28 -43 -20 -7 7 -9 12 -6 12 4 0 -2 22 -12 49 -15 43 -16 61
-4 61 2 0 28 -12 59 -27z m-517 -25 c-6 -24 -11 -55 -13 -70 -4 -44 -45 -88
-79 -85 -30 2 -61 36 -40 44 6 2 20 11 30 19 18 14 18 15 -3 4 -13 -6 -23 -7
-23 -1 0 10 30 25 43 22 5 -1 6 3 3 8 -6 9 72 101 85 101 4 0 2 -19 -3 -42z
m1218 27 c4 -8 3 -22 0 -31 -6 -15 -9 -14 -31 6 -13 13 -22 27 -19 31 9 15 44
10 50 -6z m-1018 -43 c9 -25 8 -34 -1 -37 -7 -2 -39 -11 -72 -20 -33 -9 -64
-20 -70 -25 -17 -12 -56 -19 -53 -8 2 5 7 9 10 9 4 0 26 19 50 43 49 49 109
89 119 78 3 -4 11 -22 17 -40z m697 29 c3 -5 1 -12 -5 -16 -5 -3 -10 1 -10 9
0 18 6 21 15 7z m305 -54 c0 -5 -13 -21 -28 -37 l-29 -28 -51 17 c-29 10 -54
20 -56 22 -3 2 21 23 52 46 l57 42 27 -26 c16 -15 28 -31 28 -36z m-440 45 c0
-5 14 -24 30 -42 l30 -34 -57 -21 -58 -22 -49 49 c-27 28 -45 53 -40 58 16 15
144 26 144 12z m721 -47 c19 -50 17 -52 -35 -30 -42 18 -43 23 -15 59 25 31
28 30 50 -29z m-641 35 c8 -5 15 -18 16 -29 1 -18 -1 -19 -22 -5 -12 8 -25 22
-28 30 -6 16 12 18 34 4z m440 -5 c7 -8 32 -24 56 -34 35 -16 42 -23 37 -41
-5 -17 -11 -20 -32 -15 -14 4 -29 12 -33 18 -4 6 -10 8 -14 4 -10 -9 26 -36
49 -37 28 0 20 -14 -35 -55 -35 -26 -53 -34 -56 -26 -3 8 -13 20 -22 29 -16
13 -17 17 -3 30 8 8 29 18 46 22 28 7 29 8 7 9 -14 0 -37 -6 -52 -13 -31 -17
-34 -12 -13 24 8 14 14 30 14 35 0 6 -9 -7 -20 -27 -18 -36 -39 -50 -39 -28 0
6 4 10 8 10 4 0 16 14 25 30 17 28 20 29 40 15 12 -8 26 -15 31 -15 6 0 0 7
-12 16 -21 15 -29 44 -15 57 10 11 19 8 33 -8z m737 -22 c-8 -7 -37 9 -31 19
3 5 12 4 20 -3 8 -6 13 -14 11 -16z m-1374 -35 l51 -52 -30 -12 c-27 -11 -37
-10 -89 17 -32 16 -61 32 -64 35 -6 6 59 63 72 64 5 0 32 -23 60 -52z m267 22
c8 -14 5 -17 -13 -16 -15 1 -23 8 -25 23 -3 18 0 21 13 17 8 -4 20 -14 25 -24z
m1016 13 c30 -13 35 -18 20 -21 -14 -3 -16 -6 -6 -12 10 -6 8 -17 -9 -50 -23
-44 -60 -82 -73 -74 -6 4 -5 103 1 158 1 4 8 5 17 2 8 -3 12 -2 9 4 -8 13 -4
13 41 -7z m173 -115 c18 -33 30 -63 27 -66 -9 -8 -83 -7 -146 2 -30 5 -63 9
-72 9 -24 2 -23 10 3 33 12 10 32 43 45 71 l24 53 43 -21 c34 -17 50 -34 76
-81z m-1691 78 c24 -8 81 -92 88 -132 5 -29 -27 -71 -46 -59 -5 3 -8 0 -5 -7
2 -7 -11 -30 -29 -51 l-33 -37 -16 23 c-60 92 -143 278 -116 261 5 -3 9 -1 9
5 0 11 111 8 148 -3z m-188 -21 c5 -14 7 -32 3 -42 -4 -10 -2 -14 4 -10 7 4
18 -11 29 -40 10 -25 39 -81 65 -124 40 -65 45 -80 35 -94 -11 -15 -18 -11
-70 39 -31 31 -61 56 -66 56 -6 0 -10 10 -10 23 0 12 -3 17 -8 11 -5 -8 -15
-8 -35 1 l-27 11 36 35 c36 34 66 78 46 65 -6 -4 -15 2 -21 11 -8 15 -24 18
-95 18 -92 0 -91 4 12 40 84 30 90 30 102 0z m248 -10 c-3 -3 -9 2 -12 12 -6
14 -5 15 5 6 7 -7 10 -15 7 -18z m447 15 c3 -5 2 -10 -4 -10 -5 0 -13 5 -16
10 -3 6 -2 10 4 10 5 0 13 -4 16 -10z m42 -12 c-3 -8 -6 -5 -6 6 -1 11 2 17 5
13 3 -3 4 -12 1 -19z m468 12 c19 -7 19 -8 -5 -18 -30 -11 -41 -7 -33 13 6 17
9 17 38 5z m-575 -19 c0 -5 -13 -14 -30 -21 -16 -7 -38 -26 -50 -44 -11 -17
-20 -26 -20 -21 0 6 -10 21 -21 35 -20 24 -20 23 1 -12 12 -21 20 -45 18 -54
-2 -13 -10 -10 -38 15 -19 17 -38 31 -42 31 -5 0 -8 6 -8 13 0 19 162 81 183
70 4 -2 7 -8 7 -12z m-310 -11 c19 -11 43 -22 53 -26 25 -9 21 -18 -22 -42
l-39 -22 -17 26 c-19 29 -31 84 -18 84 4 -1 24 -10 43 -20z m480 -6 c0 -16 -2
-16 -24 -8 -8 3 -12 12 -10 19 7 17 34 8 34 -11z m75 16 c18 -7 18 -9 3 -15
-23 -9 -50 -3 -56 13 -4 14 22 15 53 2z m-193 -23 c16 -12 15 -16 -4 -55 -12
-23 -23 -41 -24 -39 -1 1 -4 22 -8 46 -8 60 2 73 36 48z m598 4 c0 -5 -9 -7
-20 -4 -11 3 -20 7 -20 9 0 2 9 4 20 4 11 0 20 -4 20 -9z m175 -12 c55 -26 54
-34 0 -14 -22 8 -48 14 -58 15 -10 0 -15 5 -12 10 9 14 20 13 70 -11z m-821
-35 c10 -75 7 -91 -19 -121 -24 -27 -25 -27 -37 -8 -7 11 -13 25 -14 30 -2 6
-6 24 -9 41 -6 26 -2 37 25 68 18 20 35 36 40 36 4 0 10 -21 14 -46z m-994 6
c0 -9 -50 -23 -57 -16 -2 2 4 13 13 25 13 15 21 18 31 9 7 -6 13 -14 13 -18z
m1310 23 c-1 -5 -16 -26 -35 -48 -30 -35 -35 -37 -35 -18 0 12 -4 25 -10 28
-17 10 -11 25 9 25 11 0 23 5 26 10 7 12 45 14 45 3z m285 -5 c6 -1 15 1 20 2
29 7 65 -1 65 -15 0 -14 -13 -20 -34 -16 -5 1 -4 -4 2 -12 7 -8 8 -18 4 -22
-4 -5 -1 -5 6 -1 8 5 22 0 35 -10 20 -17 20 -17 -1 8 -29 33 -12 48 20 18 26
-24 91 -60 109 -60 7 0 9 3 5 8 -4 4 -10 6 -12 4 -15 -9 -114 65 -114 87 0 14
11 14 47 0 15 -6 39 -13 53 -15 14 -3 33 -7 42 -10 9 -3 26 -7 39 -9 26 -5 61
-40 51 -51 -4 -4 -2 -4 4 -1 21 12 43 -27 58 -103 9 -41 33 -110 54 -152 l39
-76 -23 -11 c-20 -9 -24 -6 -39 25 -9 20 -19 33 -22 31 -2 -3 3 -19 12 -36 17
-33 13 -51 -10 -51 -7 0 -16 -7 -19 -16 -5 -13 -12 -11 -44 14 -20 16 -50 36
-66 44 -26 14 -29 20 -32 75 -3 56 -25 133 -39 133 -3 0 -1 -9 5 -20 14 -26
29 -150 19 -156 -5 -3 -22 2 -39 11 -16 8 -30 13 -30 11 0 -3 -15 0 -32 6 -18
5 -51 12 -73 15 -50 6 -77 36 -70 78 4 22 3 25 -3 10 -9 -19 -9 -19 -21 3 -27
51 -43 111 -46 177 -3 64 -2 71 18 82 12 7 29 10 37 6 8 -3 20 -5 25 -5z m719
-9 c14 -11 24 -24 21 -29 -3 -4 2 -7 10 -6 7 0 15 -3 17 -9 2 -5 -11 -11 -28
-12 -27 -2 -34 2 -48 31 -25 54 -17 61 28 25z m-1995 1 c24 -14 -6 -47 -56
-61 -48 -13 -71 -14 -108 -5 -11 2 -25 5 -31 5 -5 1 -19 8 -30 16 -18 14 -17
15 16 12 25 -1 35 2 35 13 0 9 13 17 30 20 47 9 130 9 144 0z m761 -42 c-27
-70 -42 -98 -50 -93 -5 3 3 25 17 50 13 25 26 53 28 63 2 9 4 19 4 21 1 2 4 1
7 -2 4 -4 1 -21 -6 -39z m125 16 c8 -11 17 -32 21 -49 6 -25 2 -33 -32 -62
-22 -18 -33 -33 -26 -33 6 0 12 3 12 8 0 4 9 13 19 19 18 11 19 10 15 -10 -3
-12 -8 -47 -11 -77 -3 -30 -6 -56 -7 -57 -1 -1 -27 16 -59 37 l-59 38 36 13
c20 7 36 17 36 21 0 5 -18 -1 -40 -12 -44 -22 -50 -35 -21 -45 10 -3 39 -20
65 -39 l46 -33 -32 -26 c-17 -15 -35 -27 -38 -27 -3 0 -23 35 -43 78 -41 86
-41 110 -6 188 10 23 21 53 24 67 6 22 11 24 46 22 25 -2 45 -10 54 -21z
m-1175 -9 c-6 -7 -7 -15 -2 -17 5 -1 -2 -27 -15 -55 -24 -51 -27 -53 -63 -51
l-38 1 46 43 c25 24 51 45 56 47 6 3 8 8 4 12 -4 4 -14 3 -21 -3 -8 -7 -17 -9
-20 -5 -4 3 -7 1 -7 -7 0 -19 -90 -99 -106 -93 -9 3 -5 17 17 54 17 27 35 50
40 50 5 1 12 2 17 4 4 1 24 5 45 9 22 5 37 14 37 23 0 8 5 11 10 8 8 -5 8 -11
0 -20z m807 -32 c37 -34 42 -43 45 -92 4 -71 -14 -86 -66 -50 -20 13 -36 30
-36 37 0 6 -7 12 -15 12 -8 0 -15 4 -15 8 0 5 -13 24 -30 42 -16 18 -30 37
-30 41 0 9 50 41 50 32 0 -5 5 0 11 10 12 21 27 14 86 -40z m524 35 c23 -26
24 -51 4 -72 -17 -17 -65 -117 -69 -143 -3 -15 -60 -46 -69 -36 -3 2 1 20 9
39 8 19 16 56 18 82 3 55 11 75 44 120 29 38 38 39 63 10z m150 -168 c7 -19
23 -57 36 -84 l24 -48 -34 26 c-18 14 -48 31 -65 37 -22 8 -32 18 -33 32 -2
61 -12 127 -21 142 -8 14 -1 25 37 54 l30 23 7 -73 c5 -40 13 -89 19 -109z
m-1410 118 c24 -12 48 -21 53 -20 5 2 6 -5 2 -14 -5 -13 -3 -14 6 -7 42 33 45
17 3 -20 l-49 -44 -46 12 c-25 6 -51 10 -57 8 -7 -3 -13 -3 -13 0 0 15 47 107
55 107 1 0 21 -10 46 -22z m1999 6 c25 -3 52 -8 60 -10 8 -3 39 -7 68 -9 29
-2 55 -5 58 -8 19 -18 26 -226 10 -292 -2 -11 -5 -28 -5 -38 -1 -10 -6 -15
-11 -12 -6 4 -7 11 -4 17 4 6 2 8 -4 4 -10 -6 -122 99 -122 115 0 3 -19 32
-42 62 -24 30 -52 68 -63 83 -11 15 -26 34 -34 41 -8 8 -15 26 -17 39 -2 23 0
24 29 19 18 -4 52 -9 77 -11z m290 -3 c0 -5 -17 -7 -37 -4 -52 7 -54 13 -5 13
23 0 42 -4 42 -9z m55 -9 c-3 -3 -11 0 -18 7 -9 10 -8 11 6 5 10 -3 15 -9 12
-12z m-1752 -16 c9 -13 30 -39 47 -57 16 -19 28 -39 26 -46 -3 -7 1 -10 8 -7
7 3 18 -2 25 -9 9 -12 6 -20 -16 -43 -23 -24 -28 -38 -28 -76 1 -37 -3 -48
-17 -51 -26 -7 -33 11 -12 34 22 24 10 25 -14 1 -10 -10 -17 -23 -15 -28 2 -6
-3 -11 -10 -11 -9 0 -12 7 -9 19 2 10 9 18 14 18 5 0 6 6 1 13 -4 6 -9 41 -9
77 -2 71 -10 149 -20 174 -9 25 12 19 29 -8z m220 4 c3 -11 1 -18 -4 -14 -5 3
-9 12 -9 20 0 20 7 17 13 -6z m-247 -117 l5 -88 -25 53 c-14 28 -28 52 -31 52
-6 0 33 -91 46 -107 6 -6 9 -24 7 -40 l-3 -28 -35 35 c-19 19 -49 53 -67 75
l-31 41 29 39 c28 37 30 38 36 17 3 -12 9 -22 14 -22 5 0 3 12 -3 26 -11 23
-9 28 12 44 34 25 40 12 46 -97z m750 28 l6 -59 -51 0 c-28 -1 -51 1 -51 3 0
11 24 66 47 104 31 53 41 43 49 -48z m1013 61 c23 -29 62 -124 63 -152 2 -59
-48 -170 -95 -212 -18 -16 -21 -16 -58 3 -34 17 -39 23 -34 47 2 15 8 47 13
72 4 25 8 62 7 82 0 21 5 38 10 38 7 0 7 3 0 8 -6 4 -11 27 -12 52 -2 25 -5
56 -8 69 -6 23 -5 23 47 17 32 -4 58 -13 67 -24z m-2071 -34 c67 -49 71 -53
99 -93 20 -28 20 -33 6 -65 -8 -19 -14 -36 -14 -37 5 -19 -1 -53 -9 -53 -5 0
-10 6 -10 13 0 7 -13 26 -30 42 -16 15 -26 33 -23 39 3 6 3 8 -1 5 -4 -4 -39
15 -77 41 -38 26 -90 54 -114 61 -25 7 -45 17 -45 22 0 12 42 46 56 47 6 0 18
7 25 16 21 25 73 11 137 -38z m2150 31 c4 -10 5 -40 3 -66 l-3 -47 -29 63
c-16 35 -29 65 -29 66 0 1 12 3 26 3 16 0 28 -8 32 -19z m52 2 c0 -5 9 -13 20
-16 11 -4 18 -11 15 -16 -3 -5 1 -6 10 -3 23 9 165 -111 165 -139 0 -37 -174
-188 -200 -172 -5 3 -10 2 -10 -4 0 -6 -8 -15 -17 -20 -17 -8 -18 1 -16 142 1
84 4 161 6 172 3 11 6 30 6 43 1 20 21 33 21 13z m136 -28 c22 -21 54 -56 69
-78 l29 -40 -44 40 c-25 22 -47 43 -50 46 -3 3 -27 20 -55 37 -49 31 -49 32
-20 32 22 0 43 -11 71 -37z m119 28 c17 -1 16 -49 0 -88 l-15 -36 -32 44 c-18
24 -40 51 -50 60 -25 22 -13 29 41 24 25 -2 51 -4 56 -4z m-1889 -50 c-13 -20
-26 -11 -26 16 0 25 1 26 16 11 9 -9 13 -21 10 -27z m90 12 c-8 -20 -5 -29 7
-25 4 1 7 -5 7 -13 0 -8 -4 -15 -9 -15 -5 0 -7 -9 -4 -20 3 -11 0 -20 -6 -20
-6 0 -11 9 -11 21 0 13 -4 18 -12 13 -9 -5 -9 -2 1 9 7 9 11 18 7 18 -3 1 -10
2 -15 3 -22 3 -20 15 5 35 30 23 40 21 30 -6z m1053 -67 c34 -46 61 -89 61
-96 0 -6 5 -8 10 -5 6 3 10 3 10 -2 0 -8 28 -45 67 -88 25 -28 23 -56 -6 -66
-18 -7 -22 -6 -18 6 4 8 1 17 -5 21 -7 4 -8 3 -4 -4 14 -23 -11 -11 -39 18
l-29 30 30 1 c16 1 33 1 37 0 5 -1 5 3 2 9 -4 7 -19 9 -36 5 -36 -8 -50 3 -80
58 -24 48 -61 147 -53 147 3 0 2 6 -3 13 -8 13 -13 37 -8 37 2 0 31 -38 64
-84z m-2096 39 c-4 -19 -4 -19 10 -2 12 14 24 17 52 13 21 -4 41 -9 46 -12 5
-3 21 -7 34 -10 57 -10 116 -41 140 -74 14 -19 25 -29 25 -23 0 7 -4 15 -10
18 -5 3 -10 11 -10 16 0 5 19 -5 42 -23 58 -45 88 -75 88 -87 0 -6 6 -14 13
-18 7 -4 21 -25 30 -45 19 -40 10 -78 -16 -78 -7 0 -13 -8 -14 -17 -1 -10 -8
-37 -17 -61 -9 -24 -18 -53 -20 -65 -2 -13 -11 -23 -24 -25 -13 -2 -22 -10
-21 -20 0 -11 3 -12 6 -4 7 17 33 15 33 -4 0 -8 5 -12 11 -9 6 4 8 13 5 21 -3
9 12 22 45 37 l49 24 -6 -36 c-4 -20 -10 -41 -15 -47 -5 -6 -6 -14 -2 -17 3
-4 0 -7 -7 -7 -7 0 -10 -3 -7 -7 9 -9 -12 -33 -29 -33 -15 0 -19 26 -5 32 4 2
11 14 15 28 6 24 6 24 -9 -2 -9 -16 -20 -28 -26 -28 -6 0 -7 5 -4 10 3 6 -1
10 -9 10 -9 0 -13 -6 -10 -13 8 -22 -24 -40 -68 -39 -57 3 -125 22 -109 31 17
11 101 2 146 -15 14 -5 17 -4 10 4 -18 19 -85 31 -150 27 -36 -2 -67 0 -69 4
-3 4 21 8 52 9 75 2 130 11 138 24 4 7 -5 7 -27 2 -19 -5 -71 -9 -115 -9 -68
0 -86 3 -104 20 -26 23 -50 68 -61 110 -7 29 -7 29 -8 4 -1 -14 9 -46 22 -71
23 -45 23 -46 3 -38 -48 19 -83 41 -109 68 l-27 29 31 79 c39 96 107 207 121
197 7 -4 8 -1 4 6 -8 13 23 43 36 35 4 -3 5 1 2 9 -3 8 2 20 11 27 8 7 15 18
15 24 0 18 -75 -70 -123 -142 -46 -71 -82 -143 -93 -186 -3 -14 -10 -26 -14
-26 -9 0 -38 59 -43 86 -1 11 -6 25 -10 32 -5 6 -4 12 2 12 14 0 90 82 91 97
0 6 3 13 8 15 7 3 52 93 52 104 0 17 -29 -20 -35 -44 -9 -38 -53 -102 -67 -99
-7 1 -12 -4 -13 -11 0 -16 -35 -43 -46 -37 -4 3 -5 35 -3 72 4 54 10 73 35
104 16 20 29 41 29 45 -1 5 -11 -4 -24 -20 l-24 -28 5 25 c5 25 27 42 42 32 4
-2 20 -1 34 3 50 13 74 9 70 -13z m-168 -21 c-21 -52 -148 -224 -164 -224 -29
0 -98 50 -117 85 l-19 36 25 19 c52 40 180 96 245 107 17 3 32 7 34 9 11 11
10 1 -4 -32z m-342 -14 c3 -19 10 -49 15 -65 8 -27 5 -35 -23 -68 -18 -20 -35
-37 -38 -37 -8 0 -20 61 -19 99 1 30 48 119 57 109 1 -1 5 -19 8 -38z m1487
21 c0 -12 -20 -25 -27 -18 -7 7 6 27 18 27 5 0 9 -4 9 -9z m165 -171 c-2 -4 5
-12 17 -19 18 -11 19 -10 13 9 -5 15 0 26 17 39 13 11 24 18 26 16 5 -4 -37
-85 -44 -85 -3 0 -17 9 -31 20 -14 11 -32 20 -39 20 -7 0 -23 19 -34 42 -23
49 -23 48 -9 85 11 28 11 28 49 -47 21 -41 36 -77 35 -80z m-199 111 c8 -11
12 -21 8 -21 -3 0 -1 -6 5 -13 13 -16 -19 -56 -47 -58 -32 -3 -57 -7 -83 -14
-25 -6 -26 -5 -24 27 2 38 12 66 32 90 21 24 90 17 109 -11z m44 19 c6 9 12 4
23 -16 13 -25 13 -32 1 -48 -16 -22 -15 -22 -37 23 -9 18 -14 38 -10 44 4 7 8
7 11 -2 4 -11 6 -11 12 -1z m-401 -51 c67 -68 92 -100 89 -116 -6 -33 -35 -25
-64 17 -16 23 -38 51 -49 63 -30 31 -37 57 -23 74 10 13 13 13 17 2 2 -8 16
-26 30 -40z m-767 8 c-5 -7 -6 -37 -3 -70 4 -31 4 -62 1 -67 -3 -5 -21 -13
-39 -16 l-33 -7 21 44 c12 24 26 52 32 62 6 11 8 21 5 24 -3 3 -19 -23 -34
-58 -22 -49 -34 -65 -51 -66 -25 -2 -27 10 -6 31 8 8 15 17 15 20 0 14 95 136
98 126 2 -6 0 -16 -6 -23z m1621 -12 c-1 -16 -4 -57 -7 -90 -2 -33 -5 -76 -6
-95 l-1 -35 -20 38 c-18 33 -29 42 -51 38 -8 -1 -12 15 -9 33 2 9 -18 26 -31
26 -4 0 -1 -17 6 -38 11 -31 11 -42 1 -62 l-13 -25 -10 25 c-23 57 -27 69 -38
119 -7 32 -6 33 15 22 11 -7 21 -15 21 -19 0 -4 8 -8 18 -9 15 -1 19 5 17 32
-1 18 2 42 7 54 7 19 14 22 55 19 46 -3 48 -4 46 -33z m-131 -26 l-4 -30 -24
22 c-30 28 -30 33 -1 46 27 13 35 2 29 -38z m242 0 c5 -4 -10 -13 -33 -19 -46
-12 -56 -24 -13 -15 81 17 83 17 89 -5 4 -13 8 -17 13 -11 4 7 27 -7 62 -38
31 -27 77 -63 102 -81 l45 -33 -32 -46 c-17 -25 -42 -57 -54 -71 l-24 -25 -21
25 -20 25 16 -28 c17 -27 16 -28 -15 -55 -53 -45 -57 -46 -97 -18 -20 14 -49
37 -65 51 -15 15 -32 23 -39 19 -7 -5 -9 -2 -5 8 3 9 0 36 -7 60 -7 23 -11 52
-10 63 1 11 4 63 8 117 8 131 9 134 55 107 20 -12 40 -26 45 -30z m-1004 -24
c0 -7 9 -20 20 -30 13 -12 18 -26 14 -39 -4 -15 -3 -17 4 -7 8 10 13 8 26 -10
19 -27 21 -43 4 -33 -6 4 -8 3 -4 -4 3 -6 2 -13 -4 -17 -24 -15 -7 -24 20 -10
23 12 31 13 37 2 30 -48 121 -76 169 -51 24 13 29 13 36 0 5 -8 14 -21 21 -28
7 -7 22 -27 34 -44 l22 -31 -49 -53 -48 -53 -44 34 c-24 19 -44 37 -46 41 -2
5 -8 8 -14 8 -5 0 -29 13 -53 30 -23 16 -64 35 -89 42 -52 14 -56 19 -23 37
12 7 30 24 41 38 18 25 18 25 -2 14 -11 -6 -22 -14 -24 -18 -3 -5 -3 -2 -2 5
2 6 -1 12 -6 12 -6 0 -10 -7 -10 -15 0 -8 -4 -15 -9 -15 -5 0 -13 -9 -16 -20
-7 -22 -21 -27 -23 -7 0 6 -8 32 -17 56 -13 35 -13 46 -3 59 11 13 11 14 -1 7
-12 -7 -13 3 -9 57 7 80 15 99 35 73 7 -11 13 -24 13 -30z m500 15 c9 -17 8
-20 -14 -20 -19 0 -23 4 -19 20 3 11 9 20 14 20 4 0 13 -9 19 -20z m1774 -5
c-4 -8 -11 -15 -16 -15 -6 0 -5 6 2 15 7 8 14 15 16 15 2 0 1 -7 -2 -15z
m-1834 1 c0 -3 -4 -8 -10 -11 -5 -3 -10 -1 -10 4 0 6 5 11 10 11 6 0 10 -2 10
-4z m844 -62 c19 -12 22 -20 17 -47 -6 -24 -12 -31 -26 -29 -27 5 -167 111
-160 122 6 10 137 -24 169 -46z m1055 -38 c29 -89 35 -150 21 -201 -26 -94
-104 -125 -215 -86 -33 12 -64 23 -70 25 -31 8 -105 50 -105 58 0 5 -4 7 -9 4
-5 -3 -20 3 -33 14 -14 11 -28 17 -31 14 -3 -3 -14 -1 -24 4 -15 9 -14 11 12
11 17 0 43 2 58 4 24 4 28 1 24 -14 -3 -11 -2 -19 3 -19 4 0 10 10 13 22 5 18
8 19 22 8 13 -11 15 -10 9 4 -4 10 -1 16 8 16 54 0 188 104 248 193 22 33 26
35 37 20 7 -9 21 -43 32 -77z m-1645 50 c4 -18 18 -61 31 -94 19 -46 22 -67
16 -84 -9 -21 -10 -21 -11 -3 0 3 -14 28 -31 57 -48 85 -52 96 -44 115 8 16
10 24 14 38 4 17 20 0 25 -29z m-340 -7 c-28 -27 -34 -30 -54 -19 -13 7 -20 8
-16 2 3 -6 2 -13 -3 -16 -9 -6 -27 31 -19 39 4 4 88 22 108 24 9 1 3 -11 -16
-30z m61 4 c-9 -16 -26 -36 -37 -45 -11 -10 -17 -18 -13 -18 4 0 -4 -9 -18
-20 -31 -24 -36 -25 -53 -3 -11 16 -8 20 29 34 25 9 50 29 62 47 11 17 26 31
34 32 10 0 10 -6 -4 -27z m100 13 c1 0 7 -14 13 -30 22 -50 1 -43 -37 13 l-24
33 24 -7 c13 -4 24 -8 24 -9z m1479 -52 c-1 -36 -4 -67 -6 -69 -2 -1 -18 -6
-35 -10 -28 -6 -33 -4 -33 13 0 11 6 25 14 31 8 7 24 32 35 57 12 24 23 44 24
44 2 0 2 -30 1 -66z m228 19 c-43 -55 -81 -87 -132 -115 -51 -28 -88 -39 -94
-29 -8 13 9 26 76 60 37 18 91 55 120 81 29 26 55 46 57 44 2 -2 -10 -20 -27
-41z m-1752 16 c8 -11 23 -30 33 -41 20 -25 20 -23 6 -51 -10 -21 -9 -21 5 -3
13 16 17 16 29 5 32 -33 35 -51 16 -96 -55 -129 -49 -243 17 -330 14 -18 23
-33 20 -33 -10 0 -81 35 -107 52 -25 16 -26 20 -16 61 15 66 -11 136 -84 227
-32 41 -59 77 -59 81 0 4 16 21 35 38 19 17 36 34 37 38 3 16 40 73 47 73 4 0
13 -9 21 -21z m100 -10 c0 -14 -17 -10 -23 5 -4 10 -1 13 9 9 7 -3 14 -9 14
-14z m-326 -5 c4 -11 1 -14 -13 -9 -22 7 -34 -15 -20 -36 6 -10 9 -10 9 -1 0
20 19 14 45 -14 30 -33 31 -40 4 -54 -15 -9 -24 -8 -37 2 -9 8 -13 8 -9 1 13
-21 -52 10 -79 38 l-26 27 21 12 c12 6 19 16 15 21 -4 7 3 6 16 -1 18 -10 24
-9 31 1 5 8 9 17 9 22 0 14 28 7 34 -9z m374 -20 c2 -1 -4 -19 -14 -40 -10
-25 -18 -34 -21 -24 -2 8 -9 25 -15 37 -15 31 7 59 31 41 9 -7 17 -13 19 -14z
m740 -8 c15 -8 38 -26 51 -40 l25 -26 -21 -21 c-12 -13 -26 -18 -33 -14 -9 6
-9 10 1 16 10 6 10 9 2 9 -6 0 -15 -4 -18 -10 -10 -16 -68 18 -61 37 3 8 9 26
12 39 7 28 7 28 42 10z m261 -28 c40 -44 43 -58 12 -58 -18 0 -91 64 -91 80 0
8 16 17 32 19 4 1 25 -18 47 -41z m-959 -13 c0 -8 4 -15 8 -17 10 -3 57 -101
78 -161 15 -43 11 -66 -5 -26 -5 13 -10 20 -10 16 -1 -4 -30 26 -66 67 l-65
75 16 41 c13 33 19 38 30 29 8 -6 14 -17 14 -24z m194 -12 c25 -52 36 -93 26
-93 -11 0 -70 99 -70 118 0 26 27 10 44 -25z m686 28 c0 -6 15 -24 33 -41 27
-25 30 -32 17 -40 -28 -18 -60 -10 -92 22 l-31 32 23 18 c24 19 50 24 50 9z
m217 -8 c4 -9 2 -18 -5 -21 -6 -2 -8 -10 -5 -18 6 -17 -1 -18 -28 -3 -19 10
-19 12 -5 28 9 10 13 21 9 24 -3 4 1 7 11 7 9 0 20 -8 23 -17z m-949 -42 c7
-16 30 -51 50 -78 35 -45 48 -73 34 -73 -10 0 -104 104 -111 125 -8 20 -3 55
8 55 3 0 12 -13 19 -29z m991 16 c6 -8 8 -16 5 -20 -3 -3 4 -3 17 0 14 4 20 2
16 -4 -9 -15 -58 -26 -68 -16 -10 10 0 53 11 53 4 0 13 -6 19 -13z m-1850 -64
c1 -19 -5 -23 -31 -25 l-33 -1 33 -4 c37 -5 43 -28 10 -39 -12 -3 -28 -13 -36
-20 -32 -32 -36 -10 -11 64 9 26 14 31 21 21 6 -10 7 -7 3 9 -5 16 -1 30 12
44 l18 20 6 -24 c4 -12 7 -33 8 -45z m1523 30 c26 -24 22 -29 -17 -25 -30 4
-33 6 -24 23 12 23 17 24 41 2z m257 -20 c2 -2 -7 -3 -20 -3 -31 0 -53 15 -45
29 6 9 29 0 65 -26z m-410 5 c17 -10 17 -14 4 -46 -18 -43 -22 -80 -12 -108 6
-16 1 -26 -18 -42 -24 -20 -27 -20 -52 -4 -33 21 -61 49 -61 61 0 4 10 19 23
33 35 41 62 73 63 78 3 18 18 40 25 40 5 0 18 -5 28 -12z m618 1 c-11 -6 -30
-9 -43 -6 -14 2 -27 0 -30 -4 -3 -5 -10 -9 -16 -9 -7 0 -7 4 1 13 6 8 32 14
58 15 39 1 44 -1 30 -9z m43 -12 c0 -7 -18 -13 -48 -14 l-47 -1 43 11 c25 7
40 16 35 21 -4 5 -3 6 5 2 6 -4 12 -13 12 -19z m-1210 -5 c0 -5 27 -37 59 -73
l59 -64 -31 -7 c-70 -15 -67 -16 -92 43 -22 54 -24 109 -4 109 5 0 9 -4 9 -8z
m873 1 c-7 -2 -19 -2 -25 0 -7 3 -2 5 12 5 14 0 19 -2 13 -5z m-922 -130 c26
-33 39 -59 35 -69 -5 -12 -10 -10 -32 13 l-26 28 20 -28 c16 -21 20 -42 20
-89 -1 -54 -3 -59 -15 -42 -8 11 -12 27 -9 37 2 9 1 15 -3 12 -5 -2 -13 7 -20
21 -8 19 -8 23 0 18 7 -4 10 -1 7 7 -3 8 -11 13 -17 11 -7 -1 -10 2 -6 7 3 6
-2 22 -12 37 -9 15 -19 36 -20 48 -2 12 -10 38 -18 59 -8 20 -15 42 -15 48 0
13 51 -42 111 -118z m624 56 l-26 -54 6 49 c5 52 22 83 37 68 5 -5 -3 -32 -17
-63z m-751 45 c11 -27 7 -37 -9 -24 -23 19 -18 4 8 -22 32 -34 54 -63 40 -55
-12 8 23 -95 62 -181 14 -30 25 -60 25 -67 0 -21 -33 -28 -43 -9 -8 13 -11 14
-18 3 -12 -21 -65 34 -98 103 -25 53 -27 63 -20 128 4 38 11 76 16 82 8 14 10
19 12 43 1 20 17 19 25 -1z m926 4 c0 -13 -38 -18 -64 -9 -37 15 -32 19 19 18
25 -1 45 -5 45 -9z m192 -4 c4 -3 -2 -20 -12 -39 -27 -48 -16 -44 15 5 14 22
31 38 37 36 7 -3 25 -7 41 -10 15 -4 27 -13 27 -20 0 -18 -128 -156 -145 -156
-19 0 -28 49 -13 68 11 15 11 15 -3 4 -14 -11 -19 -8 -37 21 l-20 34 29 17
c16 9 29 21 29 26 0 5 -13 2 -28 -7 -19 -11 -35 -14 -48 -8 -16 7 -13 10 21
20 42 13 94 17 107 9z m-284 -17 c22 -13 22 -14 -25 -44 -26 -17 -49 -30 -51
-28 -7 7 31 85 42 85 6 -1 21 -6 34 -13z m-1358 -13 c26 -7 112 -63 118 -76 2
-5 8 -8 13 -8 6 0 30 -16 53 -36 l44 -36 -16 -39 c-8 -21 -21 -39 -28 -39 -7
0 -28 14 -46 32 -18 18 -35 32 -38 31 -11 -3 -107 96 -143 147 -22 31 -22 43
1 36 9 -2 28 -8 42 -12z m-670 -25 c5 -7 81 -46 143 -74 42 -19 47 -34 16 -53
-11 -7 -28 -31 -38 -53 -24 -52 -13 -129 31 -221 17 -37 29 -70 26 -74 -10 -9
-72 42 -88 71 -7 14 -16 23 -18 20 -8 -8 -31 29 -24 40 12 18 14 39 15 115 0
88 -23 147 -76 200 -19 18 -33 40 -30 47 4 11 8 11 22 1 9 -7 18 -16 21 -19z
m580 16 c0 -8 -4 -15 -10 -15 -5 0 -7 7 -4 15 4 8 8 15 10 15 2 0 4 -7 4 -15z
m90 -102 c49 -53 162 -143 179 -143 14 0 16 8 -20 -90 -17 -47 -33 -93 -36
-103 -4 -11 -11 -16 -20 -12 -12 4 -14 0 -9 -19 7 -28 -8 -44 -21 -23 -4 7
-23 24 -40 37 -18 13 -33 30 -33 37 0 7 -4 13 -10 13 -5 0 -25 33 -44 73 -19
39 -35 67 -36 60 0 -6 14 -38 30 -70 17 -31 30 -61 30 -66 0 -8 -76 41 -119
78 -13 11 -32 38 -41 59 -18 39 -18 39 5 64 23 24 25 25 47 9 13 -10 39 -28
59 -41 45 -30 124 -119 145 -164 9 -19 18 -32 20 -29 7 7 -13 52 -30 66 -9 7
-16 18 -16 23 0 5 -12 20 -26 33 -14 13 -23 29 -19 34 3 7 0 8 -9 5 -11 -4
-16 0 -16 10 0 9 -4 15 -8 14 -5 -2 -22 8 -39 22 -25 19 -29 28 -22 42 6 12 6
18 -1 18 -5 0 -10 -7 -10 -15 0 -18 -11 -19 -33 -2 -15 11 -15 15 -3 39 18 35
41 101 38 111 -1 5 2 6 7 3 5 -3 12 2 15 11 6 15 9 13 24 -9 9 -14 37 -48 62
-75z m1500 76 c18 -9 80 -130 73 -142 -3 -5 -17 -13 -31 -18 -21 -8 -29 -7
-42 9 -36 43 -91 63 -177 64 -24 0 -43 3 -43 8 0 12 66 59 112 80 41 18 73 18
108 -1z m-2170 -65 c30 -43 62 -155 55 -191 -17 -86 -18 -86 -53 -21 -31 55
-49 125 -51 202 -3 77 3 78 49 10z m1025 15 c-2 -11 0 -17 5 -14 10 6 30 -49
30 -86 0 -42 -10 -62 -25 -49 -7 6 -11 31 -9 67 2 52 2 54 -6 18 -4 -22 -5
-45 -3 -52 9 -24 -21 -13 -61 21 l-40 34 29 39 c39 51 57 64 72 52 6 -6 10
-19 8 -30z m610 -57 c-3 -4 -9 -1 -13 5 -4 7 -24 19 -44 28 -32 13 -58 40 -58
59 0 3 27 -15 61 -40 33 -26 57 -49 54 -52z m188 17 l28 -26 -33 -20 -33 -19
-50 24 -50 24 39 34 c42 37 38 37 99 -17z m-315 11 c2 -5 8 -8 12 -5 13 8 59
-65 74 -117 17 -59 8 -97 -29 -119 -40 -24 -55 -23 -55 2 0 29 -42 115 -84
174 -36 49 -36 50 -16 66 21 18 92 17 98 -1z m102 -40 c0 -15 -5 -12 -26 11
-19 22 -19 22 4 10 12 -6 22 -16 22 -21z m486 0 c19 -6 34 -16 34 -21 0 -6 -4
-8 -9 -4 -5 3 -12 1 -16 -4 -3 -6 5 -8 19 -5 13 2 29 -2 36 -11 14 -17 11 -19
-64 -35 -40 -9 -53 -8 -74 6 -19 13 -22 18 -11 25 11 7 11 9 -2 9 -19 0 -53
35 -45 48 7 11 88 6 132 -8z m-717 -27 c-1 -24 -3 -30 -6 -15 -2 12 -9 19 -15
16 -6 -4 -6 2 1 15 17 30 21 26 20 -16z m538 17 c-3 -11 -1 -23 4 -26 5 -3 9
-14 9 -26 0 -14 -5 -18 -16 -14 -9 3 -22 6 -30 6 -11 0 -11 5 -2 25 6 14 15
25 20 25 4 0 8 7 8 15 0 8 3 15 6 15 4 0 4 -9 1 -20z m-207 -10 c14 -11 33
-20 43 -20 21 0 22 -8 1 -31 -16 -17 -18 -16 -55 22 -22 22 -39 43 -39 45 0
10 27 2 50 -16z m-1231 1 c10 -7 11 -13 1 -31 -14 -26 -17 -24 -24 13 -5 28 0
32 23 18z m501 -45 l59 -44 -20 -26 -20 -26 -60 30 c-32 17 -59 37 -59 45 0
20 22 65 32 65 4 0 35 -20 68 -44z m691 16 c54 -62 53 -58 30 -96 -46 -74 -64
-197 -46 -306 l7 -42 -58 40 c-76 51 -114 87 -114 107 0 8 4 15 9 15 19 0 103
85 117 119 22 50 23 79 8 130 -20 67 3 84 47 33z m182 9 c-3 -13 -11 -17 -25
-13 -20 5 -20 6 -3 19 26 18 34 16 28 -6z m-407 -58 c20 -36 40 -81 44 -99 7
-29 5 -33 -17 -39 -14 -3 -27 -5 -28 -3 -4 4 -16 64 -19 94 -1 11 -5 24 -8 30
-8 12 -19 84 -14 84 2 0 21 -30 42 -67z m552 19 c2 -6 -6 -10 -17 -9 -12 1
-21 4 -21 8 0 4 -3 16 -7 26 -7 17 -6 17 17 2 13 -9 26 -21 28 -27z m272 -18
c7 -30 10 -58 7 -60 -2 -2 -21 17 -41 43 l-37 47 23 13 c34 19 36 17 48 -43z
m-446 30 c9 -3 16 -18 16 -33 0 -83 49 -159 153 -237 34 -26 65 -50 69 -54 5
-3 -19 -35 -52 -70 -32 -36 -59 -68 -60 -72 -1 -20 -18 -5 -23 20 -13 68 -19
91 -44 157 -29 78 -73 163 -110 213 -21 28 -23 35 -11 50 25 32 35 36 62 26z
m416 -72 c38 -49 41 -57 35 -93 l-7 -39 -51 37 c-29 20 -76 57 -106 82 l-54
45 59 16 c33 9 64 14 70 11 7 -3 31 -30 54 -59z m-310 46 c0 4 14 -17 30 -47
39 -70 74 -117 123 -163 39 -37 40 -39 23 -57 -18 -19 -19 -19 -66 10 -104 64
-170 152 -170 228 0 39 0 40 30 31 17 -5 30 -6 30 -2z m-526 -28 c3 -14 10
-43 15 -65 13 -51 13 -55 1 -55 -5 0 -10 7 -10 15 0 8 -5 15 -11 15 -5 0 -7
-4 -4 -10 3 -5 1 -10 -5 -10 -6 0 -10 15 -8 34 1 19 6 32 10 30 5 -3 5 14 2
38 -7 45 1 51 10 8z m649 -7 c11 -10 32 -29 46 -42 14 -13 54 -43 89 -68 34
-25 60 -49 56 -54 -3 -5 -1 -9 5 -9 6 0 8 -6 5 -14 -3 -8 -12 -12 -20 -9 -8 3
-11 10 -7 17 5 8 3 8 -8 0 -8 -6 -29 -14 -47 -17 -30 -6 -39 -2 -83 40 -42 40
-119 154 -119 177 0 13 62 -2 83 -21z m-879 -47 c73 -23 79 -35 14 -30 -80 7
-168 29 -168 42 0 5 8 17 17 29 l16 20 33 -22 c17 -12 57 -29 88 -39z m-255
32 c25 -13 48 -25 51 -28 3 -3 10 -6 15 -7 24 -6 85 -30 92 -37 5 -4 8 -68 8
-142 l0 -134 -27 0 c-25 0 -26 3 -30 60 -1 33 -1 60 0 60 2 0 13 -10 24 -22
16 -19 16 -17 -2 10 -17 25 -23 51 -25 100 -3 81 -3 82 -14 82 -4 0 -8 -24 -7
-52 3 -65 -1 -74 -24 -53 -9 8 -31 20 -49 25 -52 15 -80 -32 -67 -113 4 -23 9
-60 12 -82 l4 -40 -22 39 c-13 22 -32 49 -44 62 -11 12 -21 29 -22 38 -1 9 -2
22 -3 29 -1 6 11 44 26 82 15 39 31 87 37 108 6 20 13 37 16 37 2 0 26 -10 51
-22z m884 -89 c45 -82 93 -220 102 -291 l7 -57 -63 20 c-35 11 -82 26 -104 33
-26 8 -40 18 -39 28 1 9 -4 14 -11 12 -17 -7 -33 79 -29 154 3 57 35 162 57
190 14 17 35 -7 80 -89z m-223 11 c-6 -11 -22 -31 -35 -46 l-25 -27 0 30 c0
24 7 34 33 47 40 20 40 20 27 -4z m-325 -55 c0 -66 -5 -70 -60 -46 -30 13 -43
16 -36 7 6 -7 33 -22 58 -31 26 -10 42 -20 35 -23 -9 -3 -10 -7 -2 -17 8 -9 8
-15 0 -20 -7 -4 -7 -12 0 -26 8 -13 7 -19 0 -19 -6 0 -9 -4 -5 -9 3 -5 1 -12
-5 -16 -5 -3 -10 -12 -10 -18 0 -7 4 -6 10 3 7 11 10 6 10 -21 0 -39 -18 -53
-82 -64 -25 -5 -27 -3 -24 27 2 18 5 38 6 43 1 6 1 12 0 15 -1 3 -4 36 -6 74
-6 117 -17 89 -16 -41 0 -18 -3 -33 -8 -33 -4 0 -7 60 -6 133 l1 134 70 -3 69
-3 1 -46z m43 37 c9 -6 10 -16 4 -33 -11 -28 -12 -32 -12 -59 0 -11 -4 -20 -9
-20 -4 0 -8 27 -8 60 0 61 2 66 25 52z m202 -30 c0 -38 -9 -46 -32 -25 -30 27
-22 45 25 52 4 0 7 -12 7 -27z m-50 -24 c0 -14 -15 -8 -27 11 -15 24 -3 38 14
15 7 -10 13 -21 13 -26z m-113 12 c-1 -11 -5 -20 -9 -20 -10 0 -10 4 -2 24 8
22 13 20 11 -4z m47 5 c3 -8 1 -15 -4 -15 -6 0 -10 6 -11 13 0 6 -4 3 -9 -8
-6 -15 -9 -16 -9 -4 -2 29 23 40 33 14z m-412 -35 c14 -10 27 -17 30 -15 3 3
3 -45 2 -106 -2 -61 -5 -113 -8 -116 -2 -3 -22 12 -43 32 l-38 36 40 -5 40 -5
-39 13 c-47 15 -62 34 -70 90 -13 85 28 122 86 76z m355 -20 c-1 -11 -5 -20
-9 -20 -3 0 -6 9 -5 20 1 11 5 20 9 20 3 0 6 -9 5 -20z m1025 -28 c62 -51 98
-90 86 -94 -20 -8 -92 -1 -95 9 -10 30 -42 78 -54 81 -8 2 -10 0 -4 -5 14 -11
37 -54 32 -59 -2 -2 -20 3 -41 11 -31 13 -35 18 -26 35 5 10 15 31 20 45 10
26 11 27 36 10 14 -9 35 -24 46 -33z m-927 28 c-3 -5 -12 -10 -18 -10 -7 0 -6
4 3 10 19 12 23 12 15 0z m815 -12 c0 -7 -4 -19 -9 -27 -8 -12 -13 -12 -36 3
-22 14 -25 20 -14 27 21 13 59 11 59 -3z m-809 -39 c-2 -8 -4 -21 -6 -29 -1
-8 -11 -14 -21 -12 -18 2 -18 2 -1 -8 13 -9 15 -15 7 -31 -7 -13 -7 -19 0 -19
5 0 9 -10 9 -22 -1 -21 -2 -21 -6 -3 -4 16 -8 14 -17 -15 -13 -38 -9 -61 6
-39 8 11 9 11 5 -1 -9 -28 -29 -131 -31 -158 -1 -15 -5 -32 -8 -38 -4 -6 -1
-11 6 -11 8 0 13 7 11 16 -1 9 0 20 3 26 3 5 7 23 9 40 1 16 10 67 19 112 8
46 12 92 9 104 -5 15 -4 19 4 15 10 -6 16 13 12 37 0 4 4 7 9 7 6 0 10 -6 11
-12 1 -28 -3 -166 -6 -203 -13 -137 -18 -165 -28 -165 -9 0 -9 -2 -1 -8 8 -4
9 -21 5 -47 -5 -32 -11 -39 -26 -37 -18 3 -18 2 3 -13 12 -9 20 -20 17 -24 -4
-8 -8 -29 -20 -121 -2 -19 -7 -55 -10 -80 -3 -25 -8 -57 -11 -72 l-5 -27 -34
17 c-19 9 -35 23 -35 30 0 7 4 11 8 8 5 -3 9 1 9 9 0 8 -4 12 -9 9 -8 -5 -6
29 6 91 2 11 7 40 10 65 3 25 10 59 15 76 6 22 5 36 -2 43 -7 7 -7 11 -1 11 5
0 9 21 9 48 -1 26 2 63 7 82 5 19 11 95 13 169 5 149 17 204 43 198 10 -2 15
-10 13 -18z m747 1 c58 -36 34 -54 -35 -25 -30 13 -33 17 -23 30 16 19 18 19
58 -5z m-901 -12 c-3 -8 -6 -5 -6 6 -1 11 2 17 5 13 3 -3 4 -12 1 -19z m43
-12 c0 -19 -5 -38 -10 -41 -7 -4 -10 8 -9 34 3 50 19 55 19 7z m43 -16 c-3
-12 -8 -19 -11 -16 -5 6 5 36 12 36 2 0 2 -9 -1 -20z m249 -57 c37 -22 65 -43
62 -46 -6 -6 44 -84 72 -111 16 -17 9 -21 -26 -16 -58 7 -182 132 -208 209
-16 46 -15 48 11 24 12 -11 52 -38 89 -60z m553 47 c33 -13 26 -26 -57 -109
-61 -61 -64 -62 -103 -56 -22 4 -46 7 -52 8 -7 0 -13 2 -13 4 0 1 34 43 76 92
70 81 79 89 100 80 13 -5 35 -13 49 -19z m100 -4 c18 -13 18 -14 -8 -9 -15 3
-27 9 -27 14 0 13 13 11 35 -5z m31 -26 c30 0 32 -26 5 -78 -41 -79 -51 -85
-138 -79 -43 3 -82 6 -86 7 -5 0 11 19 35 43 24 23 58 61 76 84 30 38 36 41
58 33 14 -6 36 -10 50 -10z m-994 -25 c-2 -14 -6 -25 -8 -25 -2 0 -4 11 -4 25
0 14 4 25 9 25 4 0 6 -11 3 -25z m1143 -11 c67 -15 176 -21 193 -10 6 3 13 2
17 -3 8 -14 -67 -55 -145 -80 -36 -12 -104 -25 -152 -29 l-87 -8 20 31 c19 28
38 67 53 109 4 13 11 16 24 11 9 -5 44 -14 77 -21z m-1365 -44 c0 -43 -2 -45
-31 -30 -12 7 -19 21 -19 40 0 25 4 30 25 30 23 0 25 -4 25 -40z m37 -22 c-2
-13 -4 -3 -4 22 0 25 2 35 4 23 2 -13 2 -33 0 -45z m696 -4 l78 -26 -25 -19
c-13 -10 -36 -23 -51 -29 -32 -12 -44 -5 -87 54 -32 45 -36 61 -10 51 9 -3 52
-18 95 -31z m-458 -26 c-3 -18 -7 -62 -10 -98 -3 -36 -8 -81 -11 -100 -3 -19
-7 -57 -9 -85 -2 -27 -6 -72 -10 -100 -4 -27 -9 -61 -11 -75 -11 -88 -16 -116
-25 -125 -10 -9 -8 22 7 145 2 19 7 64 10 100 3 36 8 72 10 80 3 8 7 44 10 80
5 83 29 210 39 210 2 0 2 -15 0 -32z m-111 -3 c-2 -14 -7 -37 -10 -52 -3 -16
-6 -38 -7 -50 -1 -14 -7 -23 -16 -23 -11 0 -12 -3 -4 -8 7 -4 12 -30 11 -61 0
-34 -3 -49 -9 -40 -6 10 -8 8 -6 -8 0 -12 4 -20 8 -17 4 2 6 -4 4 -13 -2 -10
-4 -27 -4 -38 -1 -17 -3 -17 -11 -5 -5 8 -10 10 -10 5 0 -6 5 -16 12 -23 7 -7
8 -12 2 -12 -6 0 -9 -14 -7 -32 3 -25 2 -30 -6 -18 -14 20 -14 4 0 -22 8 -14
8 -18 0 -14 -7 5 -9 -3 -4 -25 5 -26 3 -31 -8 -24 -11 6 -12 5 -1 -6 10 -11 8
-16 -10 -26 -17 -9 -19 -12 -6 -13 11 0 15 -6 11 -20 -4 -16 -13 -20 -40 -18
-28 2 -33 6 -31 23 2 13 9 19 21 17 9 -2 17 2 17 8 0 5 -3 9 -7 9 -19 -3 -34
2 -29 9 5 9 11 71 32 337 1 22 3 67 4 100 0 43 3 56 10 45 8 -13 10 -12 10 4
0 11 2 17 5 14 3 -3 22 1 43 8 20 7 38 13 39 14 1 0 0 -11 -3 -25z m-176 -4
c10 -6 11 -50 6 -212 -3 -112 -6 -223 -6 -246 0 -32 -3 -43 -14 -43 -8 0 -12
-5 -9 -10 4 -6 11 -8 16 -5 11 7 12 -15 1 -33 -5 -7 -18 -14 -30 -17 -16 -3
-20 1 -20 18 1 12 6 28 11 35 6 8 6 12 -1 12 -6 0 -9 22 -6 58 2 31 6 131 9
222 4 143 7 183 14 223 1 9 13 9 29 -2z m58 -26 c1 -7 -4 -16 -12 -19 -11 -4
-12 -1 -5 13 6 10 8 21 6 25 -3 3 -2 4 2 1 4 -3 8 -12 9 -20z m169 -7 c-4 -18
-8 -51 -10 -73 -6 -75 -27 -175 -35 -170 -4 3 -4 24 0 47 4 24 13 79 20 122 6
44 14 85 17 93 9 24 13 14 8 -19z m625 3 c0 -31 -10 -38 -67 -45 -42 -4 -63 9
-27 18 15 4 41 18 58 32 17 13 32 24 34 24 1 0 2 -13 2 -29z m84 17 c3 3 6 2
6 -1 0 -6 -59 -40 -61 -35 -11 42 -8 46 20 38 16 -4 32 -6 35 -2z m153 -23
c57 0 60 -1 46 -17 -33 -37 -172 -88 -220 -82 -7 1 -20 2 -28 3 -9 1 -15 11
-15 26 0 22 10 31 62 55 36 17 67 26 77 22 9 -4 44 -7 78 -7z m-240 -71 c0
-12 -7 -15 -31 -10 -47 10 -51 22 -8 24 30 2 39 -1 39 -14z m-794 -6 c-4 -7
-6 -24 -4 -38 3 -28 -9 -22 -13 7 -3 16 10 43 21 43 2 0 1 -6 -4 -12z m-6
-123 c-1 -13 -6 -27 -9 -31 -4 -3 -5 2 -3 13 2 10 4 24 4 31 1 6 3 12 6 12 3
0 4 -11 2 -25z m-10 -77 c-3 -7 -5 -2 -5 12 0 14 2 19 5 13 2 -7 2 -19 0 -25z
m0 -50 c2 -18 0 -20 -7 -8 -12 18 -13 30 -2 30 4 0 9 -10 9 -22z m-157 -180
c0 -28 -16 -55 -26 -45 -5 4 -9 21 -10 37 -2 24 2 30 17 30 13 0 19 -7 19 -22z
m-45 -26 c4 -25 2 -32 -11 -32 -11 0 -14 5 -10 16 5 12 2 15 -11 10 -15 -5
-15 -4 1 9 11 8 16 15 12 15 -4 0 -4 5 -1 11 9 14 13 9 20 -29z m80 -62 c3 -5
-1 -10 -9 -10 -9 0 -16 5 -16 10 0 6 4 10 9 10 6 0 13 -4 16 -10z m175 -7 c0
-15 -2 -16 -10 -3 -5 8 -10 10 -10 3 0 -7 -9 -9 -22 -5 -23 6 -23 6 2 13 38
11 40 10 40 -8z m120 -3 c0 -11 -4 -20 -10 -20 -5 0 -10 9 -10 20 0 11 5 20
10 20 6 0 10 -9 10 -20z m82 -8 c9 -9 9 -15 0 -24 -9 -9 -13 -7 -18 6 -4 10
-9 13 -13 7 -4 -6 -12 -6 -20 -2 -7 5 -11 14 -7 20 8 13 42 9 58 -7z m-384
-39 c-2 -10 -11 -18 -21 -19 -11 -1 -12 0 -3 3 8 2 12 11 9 19 -3 8 0 14 7 14
6 0 10 -8 8 -17z m69 2 c2 -6 -6 -11 -17 -12 -12 -1 -20 4 -20 13 0 17 31 16
37 -1z m101 0 c1 -6 -5 -9 -13 -9 -8 1 -23 2 -32 3 -14 1 -15 3 -5 9 17 11 46
9 50 -3z m-248 -30 c-7 -13 -16 -22 -20 -20 -4 3 -10 -4 -13 -15 -8 -30 -25
-24 -32 11 -8 35 5 50 35 42 10 -3 21 0 25 7 14 22 18 0 5 -25z m370 25 c0 -5
-4 -10 -10 -10 -5 0 -10 5 -10 10 0 6 5 10 10 10 6 0 10 -4 10 -10z m88 -9
c10 -1 10 -6 2 -22 -6 -11 -17 -18 -23 -16 -7 2 -17 -3 -24 -12 -11 -14 -12
-11 -13 15 0 36 5 43 28 39 9 -2 23 -4 30 -4z m-312 -43 c-3 -25 -30 -36 -41
-18 -8 13 12 40 31 40 9 0 13 -8 10 -22z m104 2 c0 -10 -11 -15 -33 -16 -25
-1 -33 3 -33 17 0 14 8 17 33 16 22 -1 33 -7 33 -17z m-172 -15 c-1 -14 -3
-25 -4 -25 -29 0 -45 34 -21 43 23 10 27 7 25 -18z m282 -1 c0 -8 -4 -12 -10
-9 -5 3 -10 10 -10 16 0 5 5 9 10 9 6 0 10 -7 10 -16z m100 -19 c0 -25 -14
-33 -25 -15 -3 6 -12 10 -18 10 -7 0 -3 -7 8 -16 17 -13 18 -16 5 -24 -23 -15
-30 -12 -30 14 0 14 10 32 22 40 31 22 38 20 38 -9z m-215 4 c4 -5 0 -9 -7
-10 -7 0 -21 -2 -30 -4 -17 -3 -24 6 -13 16 8 9 45 8 50 -2z m-230 -9 c4 -6
-1 -23 -11 -38 -16 -24 -19 -25 -22 -8 -2 10 2 22 10 27 10 7 10 9 0 9 -7 0
-10 5 -7 10 8 13 22 13 30 0z m134 -5 c-10 -10 -22 -13 -35 -8 -16 6 -15 8 11
14 17 4 32 7 35 8 2 0 -3 -6 -11 -14z m-179 -31 c0 -8 -5 -12 -10 -9 -6 4 -8
11 -5 16 9 14 15 11 15 -7z m390 -30 c0 -2 -7 -4 -15 -4 -8 0 -15 4 -15 10 0
5 7 7 15 4 8 -4 15 -8 15 -10z m93 -10 c-4 -12 -8 -13 -14 -3 -9 15 -2 32 11
24 5 -3 6 -13 3 -21z m-13 -27 c11 -5 9 -6 -4 -4 -11 1 -21 9 -23 17 -3 10 -2
11 4 4 4 -6 15 -14 23 -17z m-380 -37 c-19 -12 -30 -12 -30 -1 0 10 31 20 40
14 2 -2 -2 -8 -10 -13z m73 13 c-7 -2 -19 -2 -25 0 -7 3 -2 5 12 5 14 0 19 -2
13 -5z m-188 -51 c0 -16 -32 -48 -40 -41 -2 2 3 19 11 38 14 34 29 35 29 3z
m395 -8 c0 -8 -4 -12 -10 -9 -5 3 -10 13 -10 21 0 8 5 12 10 9 6 -3 10 -13 10
-21z m-116 1 c-6 -14 -44 -22 -44 -10 0 4 29 19 47 24 1 1 0 -6 -3 -14z m32
-12 c-10 -10 -19 5 -10 18 6 11 8 11 12 0 2 -7 1 -15 -2 -18z m120 0 c-10 -10
-19 5 -10 18 6 11 8 11 12 0 2 -7 1 -15 -2 -18z m64 20 c0 -5 -12 -9 -27 -10
-19 -1 -22 1 -12 8 17 11 39 12 39 2z m0 -32 c0 -12 -20 -25 -27 -18 -7 7 6
27 18 27 5 0 9 -4 9 -9z m-69 -32 c-9 -22 -10 -22 -10 -3 -1 11 2 24 6 27 12
12 14 0 4 -24z m-311 1 c0 -5 -4 -10 -10 -10 -5 0 -10 5 -10 10 0 6 5 10 10
10 6 0 10 -4 10 -10z m275 0 c-3 -5 -12 -10 -18 -10 -7 0 -6 4 3 10 19 12 23
12 15 0z m-339 -9 c-4 -5 -1 -11 6 -13 6 -2 8 -10 4 -16 -12 -20 -26 -13 -26
13 0 14 5 25 11 25 5 0 8 -4 5 -9z m-26 -23 c0 -35 -16 -56 -31 -41 -9 9 -8
18 5 37 20 32 26 33 26 4z m90 2 c0 -5 -4 -10 -10 -10 -5 0 -10 5 -10 10 0 6
5 10 10 10 6 0 10 -4 10 -10z m65 0 c-4 -6 -11 -7 -17 -4 -6 4 -8 2 -4 -4 3
-6 2 -13 -4 -17 -5 -3 -10 3 -10 14 0 15 6 21 21 21 11 0 17 -5 14 -10z m22
-12 c-3 -8 -6 -5 -6 6 -1 11 2 17 5 13 3 -3 4 -12 1 -19z m102 -9 c-16 -10
-23 -4 -14 10 3 6 11 8 17 5 6 -4 5 -9 -3 -15z m-35 -4 c-4 -8 -12 -15 -20
-15 -8 0 -14 7 -14 15 0 8 9 15 20 15 13 0 18 -5 14 -15z m197 -2 c12 -14 12
-15 0 -9 -10 7 -12 4 -7 -12 4 -12 2 -22 -7 -25 -9 -3 -12 4 -9 29 5 39 5 40
23 17z m-386 -15 c5 4 5 1 1 -6 -5 -9 -12 -9 -27 -2 -10 6 -19 13 -19 16 0 2
8 0 19 -5 10 -6 22 -7 26 -3z m131 -13 c-2 -37 -16 -43 -16 -7 0 18 4 32 8 32
5 0 8 -11 8 -25z m-101 5 c3 -5 1 -10 -4 -10 -6 0 -11 5 -11 10 0 6 2 10 4 10
3 0 8 -4 11 -10z m318 -25 c-3 -13 -9 -22 -14 -19 -7 4 -7 22 0 52 1 2 5 1 10
-2 4 -3 6 -17 4 -31z m-243 15 c0 -5 -9 -10 -20 -10 -11 0 -20 5 -20 10 0 6 9
10 20 10 11 0 20 -4 20 -10z m77 -4 c0 -8 -6 -12 -14 -9 -7 3 -13 9 -13 14 0
5 6 9 13 9 8 0 14 -6 14 -14z m-91 -32 c-22 -16 -36 -18 -36 -6 0 13 7 18 32
19 22 2 22 1 4 -13z m312 -34 c-2 -27 -3 -28 -20 -13 -17 15 -17 17 0 29 23
18 23 18 20 -16z m-428 0 c0 -5 -4 -10 -10 -10 -5 0 -10 5 -10 10 0 6 5 10 10
10 6 0 10 -4 10 -10z m370 0 c0 -5 -2 -10 -4 -10 -3 0 -8 5 -11 10 -3 6 -1 10
4 10 6 0 11 -4 11 -10z m-169 -29 c-8 -5 -9 -11 -3 -15 14 -9 11 -54 -4 -60
-14 -6 -18 8 -14 54 2 24 19 44 29 34 3 -3 -1 -9 -8 -13z m44 9 c-3 -5 -10
-10 -16 -10 -5 0 -9 5 -9 10 0 6 7 10 16 10 8 0 12 -4 9 -10z m-225 -10 c0 -5
-5 -10 -11 -10 -5 0 -7 5 -4 10 3 6 8 10 11 10 2 0 4 -4 4 -10z m297 -5 c0 -8
-4 -12 -9 -9 -5 3 -6 10 -3 15 9 13 12 11 12 -6z m-67 -35 c0 -20 -5 -30 -15
-30 -10 0 -15 10 -15 30 0 20 5 30 15 30 10 0 15 -10 15 -30z m-100 -5 c0 -14
-3 -25 -7 -25 -5 0 -8 11 -8 25 0 14 3 25 8 25 4 0 7 -11 7 -25z m-23 -17 c1
-19 -3 -24 -18 -23 -34 2 -46 23 -23 40 25 19 38 14 41 -17z m296 -25 c-3 -54
-15 -83 -34 -83 -13 0 -11 34 4 49 10 11 10 13 0 7 -20 -11 -16 31 5 59 9 14
20 25 23 25 3 0 4 -26 2 -57z m-436 15 c-3 -8 -6 -5 -6 6 -1 11 2 17 5 13 3
-3 4 -12 1 -19z m53 -82 c0 -3 -4 -8 -10 -11 -5 -3 -10 -1 -10 4 0 6 5 11 10
11 6 0 10 -2 10 -4z m325 -24 c-2 -3 -12 -1 -22 2 -15 6 -15 9 -3 16 13 8 35
-8 25 -18z m55 -22 c0 -5 -5 -10 -11 -10 -5 0 -7 5 -4 10 3 6 8 10 11 10 2 0
4 -4 4 -10z m-173 -19 c-1 -11 -9 -22 -19 -24 -22 -6 -23 1 -1 25 20 23 22 23
20 -1z m117 -7 c4 -11 1 -14 -11 -12 -9 2 -17 11 -19 20 -3 20 22 13 30 -8z
m-164 -9 c0 -8 -4 -15 -10 -15 -5 0 -10 7 -10 15 0 8 5 15 10 15 6 0 10 -7 10
-15z m216 -54 c-4 -5 -14 -7 -22 -4 -13 5 -13 7 -2 14 10 7 11 9 0 9 -7 0 -10
5 -6 11 4 7 11 6 21 -4 9 -8 12 -20 9 -26z m-60 9 c8 0 14 -8 13 -17 0 -11 -3
-13 -6 -5 -2 6 -11 12 -19 12 -8 0 -14 8 -13 18 0 10 3 12 6 5 2 -7 11 -13 19
-13z m-436 0 c0 -5 6 -10 14 -10 8 0 18 -5 21 -10 4 -7 -3 -8 -22 -4 -37 9
-44 14 -38 25 8 12 25 12 25 -1z m275 -10 c-3 -5 -11 -10 -16 -10 -6 0 -7 5
-4 10 3 6 11 10 16 10 6 0 7 -4 4 -10z m43 -5 c6 0 12 -3 12 -7 0 -5 -2 -8 -5
-8 -3 0 -12 0 -20 0 -8 0 -15 8 -15 18 0 9 4 13 8 7 4 -5 13 -10 20 -10z m9
-41 c-3 -3 -12 -4 -19 -1 -8 3 -5 6 6 6 11 1 17 -2 13 -5z m-141 -44 c8 0 14
-7 14 -15 0 -18 -1 -18 -34 -5 -14 5 -26 15 -26 21 0 6 7 8 16 5 9 -3 22 -6
30 -6z m135 -38 c-28 -4 -40 6 -21 18 9 6 20 4 29 -3 12 -10 11 -13 -8 -15z
m-46 8 c3 -5 -1 -10 -9 -10 -9 0 -16 5 -16 10 0 6 4 10 9 10 6 0 13 -4 16 -10z"/>
<path d="M1840 8230 c-9 -6 -10 -10 -3 -10 6 0 15 5 18 10 8 12 4 12 -15 0z"/>
<path d="M1093 8008 c-15 -20 -25 -38 -20 -38 3 0 12 11 21 25 17 26 16 35 -1
13z"/>
<path d="M2127 7969 c4 -13 8 -18 11 -10 2 7 -1 18 -6 23 -8 8 -9 4 -5 -13z"/>
<path d="M2897 7809 c7 -7 15 -10 18 -7 3 3 -2 9 -12 12 -14 6 -15 5 -6 -5z"/>
<path d="M2988 7722 c13 -17 28 -35 34 -39 7 -3 2 8 -10 25 -13 17 -28 35 -34
39 -7 3 -2 -8 10 -25z"/>
<path d="M3030 7660 c0 -5 5 -10 11 -10 5 0 7 5 4 10 -3 6 -8 10 -11 10 -2 0
-4 -4 -4 -10z"/>
<path d="M3046 7627 c3 -10 9 -15 12 -12 3 3 0 11 -7 18 -10 9 -11 8 -5 -6z"/>
<path d="M3115 7620 c-13 -6 -15 -9 -5 -9 8 0 22 4 30 9 18 12 2 12 -25 0z"/>
<path d="M1090 7455 c-10 -12 -9 -16 3 -21 9 -3 24 -4 34 -1 11 3 7 5 -11 6
-24 1 -27 3 -16 16 7 8 10 15 7 15 -2 0 -10 -7 -17 -15z"/>
<path d="M1055 7440 c-3 -5 -1 -10 4 -10 6 0 11 5 11 10 0 6 -2 10 -4 10 -3 0
-8 -4 -11 -10z"/>
<path d="M2370 7418 c-11 -24 -14 -36 -7 -28 15 17 39 70 32 70 -2 0 -14 -19
-25 -42z"/>
<path d="M2470 7445 c0 -3 15 -25 34 -48 18 -23 36 -49 39 -57 4 -11 6 -11 6
-1 1 7 -17 36 -39 63 -22 28 -40 47 -40 43z"/>
<path d="M2595 7430 c4 -7 65 -1 65 6 0 3 -15 4 -34 2 -19 -1 -33 -5 -31 -8z"/>
<path d="M2336 7313 c-6 -14 -5 -15 5 -6 7 7 10 15 7 18 -3 3 -9 -2 -12 -12z"/>
<path d="M2465 7310 c10 -11 20 -20 23 -20 3 0 -3 9 -13 20 -10 11 -20 20 -23
20 -3 0 3 -9 13 -20z"/>
<path d="M2495 7260 c3 -5 8 -10 11 -10 2 0 4 5 4 10 0 6 -5 10 -11 10 -5 0
-7 -4 -4 -10z"/>
<path d="M2850 7409 c0 -5 5 -7 10 -4 6 3 10 8 10 11 0 2 -4 4 -10 4 -5 0 -10
-5 -10 -11z"/>
<path d="M2815 7390 c-3 -5 -1 -10 4 -10 6 0 11 5 11 10 0 6 -2 10 -4 10 -3 0
-8 -4 -11 -10z"/>
<path d="M2895 7361 c-3 -5 -2 -12 3 -15 5 -3 9 1 9 9 0 17 -3 19 -12 6z"/>
<path d="M2910 7321 c0 -6 4 -13 10 -16 6 -3 7 1 4 9 -7 18 -14 21 -14 7z"/>
<path d="M2971 7185 c1 -19 18 -51 18 -35 0 8 -4 22 -9 30 -5 8 -9 11 -9 5z"/>
<path d="M3350 7341 c0 -6 4 -13 10 -16 6 -3 7 1 4 9 -7 18 -14 21 -14 7z"/>
<path d="M3335 7079 c-4 -6 -5 -12 -2 -15 2 -3 7 2 10 11 7 17 1 20 -8 4z"/>
<path d="M1060 7161 c5 -11 15 -23 21 -27 6 -3 3 5 -6 20 -20 30 -30 35 -15 7z"/>
<path d="M860 7093 c0 -6 8 -17 18 -24 16 -13 16 -13 2 6 -8 11 -16 22 -17 24
-2 2 -3 0 -3 -6z"/>
<path d="M1120 7063 c0 -5 10 -18 23 -29 l22 -19 -20 25 c-11 14 -21 27 -22
29 -2 2 -3 0 -3 -6z"/>
<path d="M900 7016 c0 -2 8 -10 18 -17 15 -13 16 -12 3 4 -13 16 -21 21 -21
13z"/>
<path d="M730 7001 c0 -6 4 -13 10 -16 6 -3 7 1 4 9 -7 18 -14 21 -14 7z"/>
<path d="M1036 6911 c-4 -5 3 -7 14 -4 23 6 26 13 6 13 -8 0 -17 -4 -20 -9z"/>
<path d="M2081 7099 c18 -11 39 -11 39 0 0 5 -12 9 -26 9 -18 0 -22 -3 -13 -9z"/>
<path d="M2321 7114 c0 -11 3 -14 6 -6 3 7 2 16 -1 19 -3 4 -6 -2 -5 -13z"/>
<path d="M2330 7059 c0 -8 5 -21 10 -29 8 -12 9 -10 7 7 -4 26 -17 43 -17 22z"/>
<path d="M2346 6997 c3 -10 9 -15 12 -12 3 3 0 11 -7 18 -10 9 -11 8 -5 -6z"/>
<path d="M2360 6961 c0 -6 4 -13 10 -16 6 -3 7 1 4 9 -7 18 -14 21 -14 7z"/>
<path d="M2375 6920 c3 -5 8 -10 11 -10 2 0 4 5 4 10 0 6 -5 10 -11 10 -5 0
-7 -4 -4 -10z"/>
<path d="M1715 7023 c22 -21 43 -37 48 -35 4 2 7 0 7 -5 1 -8 50 -48 50 -40 0
7 -60 67 -67 67 -3 0 -22 12 -42 26 l-36 26 40 -39z"/>
<path d="M1736 6955 c-3 -9 -6 -22 -5 -28 0 -7 5 -1 10 12 5 13 8 26 5 28 -2
2 -6 -3 -10 -12z"/>
<path d="M1716 6903 c-3 -4 -6 -13 -6 -22 0 -10 3 -12 8 -5 4 6 14 13 21 16
13 4 12 5 -1 10 -9 4 -19 4 -22 1z"/>
<path d="M1486 7037 c3 -10 9 -15 12 -12 3 3 0 11 -7 18 -10 9 -11 8 -5 -6z"/>
<path d="M770 6495 c-11 -13 -10 -14 4 -9 9 3 16 10 16 15 0 13 -6 11 -20 -6z"/>
<path d="M1236 6835 c-3 -9 -5 -31 -5 -48 1 -27 3 -24 9 13 8 48 6 61 -4 35z"/>
<path d="M2730 6708 c0 -4 4 -8 9 -8 6 0 12 4 15 8 3 5 -1 9 -9 9 -8 0 -15 -4
-15 -9z"/>
<path d="M1517 6309 c7 -7 15 -10 18 -7 3 3 -2 9 -12 12 -14 6 -15 5 -6 -5z"/>
<path d="M2051 6164 c0 -11 3 -14 6 -6 3 7 2 16 -1 19 -3 4 -6 -2 -5 -13z"/>
<path d="M2033 5940 c-1 -16 1 -31 5 -34 4 -2 8 11 9 30 2 19 0 34 -5 34 -4 0
-8 -13 -9 -30z"/>
<path d="M2036 5875 c4 -8 8 -15 10 -15 2 0 4 7 4 15 0 8 -4 15 -10 15 -5 0
-7 -7 -4 -15z"/>
<path d="M1836 6107 c3 -10 9 -15 12 -12 3 3 0 11 -7 18 -10 9 -11 8 -5 -6z"/>
<path d="M882 8370 c-18 -4 -36 -11 -40 -15 -4 -3 4 -4 18 0 14 3 35 7 48 8
12 0 22 5 22 9 0 9 -2 9 -48 -2z"/>
<path d="M948 8373 c6 -2 18 -2 25 0 6 3 1 5 -13 5 -14 0 -19 -2 -12 -5z"/>
<path d="M1025 8360 c3 -5 10 -10 16 -10 5 0 9 5 9 10 0 6 -7 10 -16 10 -8 0
-12 -4 -9 -10z"/>
<path d="M667 8203 c-4 -3 -7 -11 -7 -17 0 -6 5 -5 12 2 6 6 9 14 7 17 -3 3
-9 2 -12 -2z"/>
<path d="M420 7601 c0 -9 5 -11 88 -34 28 -9 52 -12 52 -7 0 4 -18 10 -41 14
-23 4 -54 13 -70 22 -16 8 -29 10 -29 5z"/>
<path d="M570 7558 c0 -5 11 -8 25 -8 14 0 25 3 25 8 0 4 -11 7 -25 7 -14 0
-25 -3 -25 -7z"/>
<path d="M480 7493 c0 -6 17 -17 38 -22 48 -14 52 -14 52 3 0 17 -35 30 -51
20 -7 -4 -9 -3 -5 4 4 7 -1 10 -14 9 -11 -1 -20 -7 -20 -14z"/>
<path d="M346 7015 c-21 -25 -34 -45 -29 -45 8 1 77 90 70 90 -3 0 -21 -20
-41 -45z"/>
<path d="M441 7014 c0 -11 3 -14 6 -6 3 7 2 16 -1 19 -3 4 -6 -2 -5 -13z"/>
<path d="M129 7018 c-5 -18 -6 -38 -1 -34 7 8 12 36 6 36 -2 0 -4 -1 -5 -2z"/>
<path d="M260 6781 c0 -6 4 -13 10 -16 6 -3 7 1 4 9 -7 18 -14 21 -14 7z"/>
<path d="M3176 6747 c-11 -18 -28 -47 -39 -66 -12 -19 -16 -31 -10 -28 12 8
75 118 70 123 -2 2 -11 -11 -21 -29z"/>
<path d="M281 6733 c24 -33 93 -103 101 -103 4 0 -12 18 -37 41 -24 22 -47 49
-50 60 -4 10 -11 19 -17 19 -6 0 -5 -7 3 -17z"/>
<path d="M845 6679 c-4 -6 -5 -12 -2 -15 2 -3 7 2 10 11 7 17 1 20 -8 4z"/>
<path d="M460 6650 c6 -11 13 -20 16 -20 2 0 0 9 -6 20 -6 11 -13 20 -16 20
-2 0 0 -9 6 -20z"/>
<path d="M831 6634 c0 -11 3 -14 6 -6 3 7 2 16 -1 19 -3 4 -6 -2 -5 -13z"/>
<path d="M1065 6614 c-16 -13 -57 -38 -89 -54 -33 -17 -53 -30 -46 -30 28 0
181 93 170 103 -3 3 -18 -6 -35 -19z"/>
<path d="M3085 6610 c-16 -16 -27 -31 -24 -33 2 -2 17 11 32 30 36 41 31 43
-8 3z"/>
<path d="M190 6625 c0 -5 5 -17 10 -25 5 -8 10 -10 10 -5 0 6 -5 17 -10 25 -5
8 -10 11 -10 5z"/>
<path d="M490 6610 c0 -5 9 -14 20 -20 11 -6 20 -9 20 -8 0 2 -9 11 -20 21
-11 9 -20 13 -20 7z"/>
<path d="M820 6559 c0 -5 5 -7 10 -4 6 3 10 8 10 11 0 2 -4 4 -10 4 -5 0 -10
-5 -10 -11z"/>
<path d="M240 6536 c0 -2 8 -10 18 -17 15 -13 16 -12 3 4 -13 16 -21 21 -21
13z"/>
<path d="M830 6528 c0 -12 7 -18 23 -17 15 0 17 2 7 6 -8 3 -18 11 -22 17 -5
7 -8 4 -8 -6z"/>
<path d="M507 6519 c7 -7 15 -10 18 -7 3 3 -2 9 -12 12 -14 6 -15 5 -6 -5z"/>
<path d="M890 6519 c0 -5 5 -7 10 -4 6 3 10 8 10 11 0 2 -4 4 -10 4 -5 0 -10
-5 -10 -11z"/>
<path d="M3600 6474 c-23 -54 -26 -67 -7 -39 15 22 39 85 32 85 -2 0 -13 -21
-25 -46z"/>
<path d="M3467 6463 c-4 -3 -7 -16 -7 -27 0 -26 -37 -107 -53 -119 -8 -6 -8
-7 3 -5 19 5 46 59 58 116 10 43 10 47 -1 35z"/>
<path d="M1219 6413 c-13 -16 -12 -17 4 -4 16 13 21 21 13 21 -2 0 -10 -8 -17
-17z"/>
<path d="M1158 6381 c-52 -24 -62 -37 -13 -17 22 10 44 21 50 27 12 12 7 11
-37 -10z"/>
<path d="M986 6305 c10 -8 24 -14 29 -14 6 0 1 6 -9 14 -11 8 -24 15 -30 15
-5 0 -1 -7 10 -15z"/>
<path d="M1090 6260 c0 -5 5 -10 11 -10 5 0 7 5 4 10 -3 6 -8 10 -11 10 -2 0
-4 -4 -4 -10z"/>
<path d="M725 6193 c3 -3 0 -12 -6 -20 -9 -10 -8 -13 4 -13 15 0 18 24 4 35
-4 3 -5 2 -2 -2z"/>
<path d="M1210 6059 c0 -10 44 -23 61 -17 6 2 -5 9 -25 15 -20 6 -36 7 -36 2z"/>
<path d="M1290 6039 c0 -5 11 -9 25 -9 14 0 25 2 25 4 0 2 -11 6 -25 8 -14 3
-25 1 -25 -3z"/>
<path d="M1350 6028 c0 -5 11 -8 24 -8 14 0 27 3 29 8 3 4 -8 7 -24 7 -16 0
-29 -3 -29 -7z"/>
<path d="M1435 6030 c3 -5 8 -10 11 -10 2 0 4 5 4 10 0 6 -5 10 -11 10 -5 0
-7 -4 -4 -10z"/>
<path d="M3198 5605 c-118 -40 -233 -134 -341 -278 -141 -189 -215 -363 -243
-577 -53 -395 186 -646 445 -467 51 35 161 144 204 202 l29 40 -5 -133 c-3
-74 -7 -135 -9 -136 -2 -1 -48 -38 -103 -81 -150 -119 -278 -251 -357 -367
-98 -144 -148 -283 -153 -427 -4 -130 34 -241 111 -318 116 -116 339 -70 459
95 66 91 140 276 161 402 3 14 9 48 14 75 5 28 12 71 15 98 3 26 8 68 11 95 6
50 8 77 19 262 4 63 8 131 10 150 2 19 3 43 4 52 1 9 13 19 29 22 41 10 87 49
79 69 -7 18 -52 24 -61 8 -3 -5 -16 -11 -30 -13 -23 -5 -23 -4 -20 71 2 42 7
101 10 131 3 30 5 62 6 70 2 78 47 267 103 432 25 74 45 145 45 158 0 12 -15
43 -34 69 -29 40 -41 69 -52 118 -5 28 -53 120 -73 140 -58 61 -163 75 -273
38z m238 -66 c56 -53 56 -164 0 -326 -20 -57 -38 -120 -41 -140 -4 -32 -28
-134 -39 -168 -40 -126 -144 -354 -199 -435 -42 -63 -116 -138 -153 -156 -58
-28 -134 -18 -181 23 -64 57 -75 209 -27 398 17 70 42 151 54 180 4 11 18 49
31 85 88 250 211 443 338 530 74 51 168 55 217 9z m-165 -1521 c-3 -188 -14
-384 -26 -468 -2 -14 -7 -50 -10 -80 -25 -204 -111 -367 -212 -401 -45 -14
-137 -6 -181 16 -47 24 -81 74 -100 145 -2 8 -5 53 -6 99 -8 212 98 432 311
648 86 87 214 196 221 188 3 -3 4 -69 3 -147z"/>
<path d="M6889 5470 c-17 -10 -55 -89 -62 -131 -3 -13 -9 -42 -15 -64 -6 -22
-13 -61 -17 -87 l-6 -48 -235 0 c-241 0 -288 -6 -263 -36 9 -11 56 -14 251
-14 l240 0 -6 -57 c-3 -32 -8 -68 -10 -80 -3 -12 -7 -48 -11 -80 -3 -32 -8
-76 -10 -98 -9 -77 -15 -141 -20 -215 -3 -41 -8 -93 -10 -115 -11 -91 -14
-443 -4 -493 28 -146 104 -225 207 -217 84 7 147 55 213 165 l37 60 11 -28
c26 -63 92 -115 161 -127 122 -21 240 9 337 87 41 33 123 128 123 144 0 4 6
15 13 23 16 18 87 183 111 254 10 29 13 54 8 63 -12 22 -21 7 -67 -106 -65
-163 -114 -241 -199 -324 -72 -69 -149 -103 -235 -102 -78 1 -117 25 -147 90
-42 90 -15 145 118 244 170 126 272 272 283 406 8 106 -27 148 -126 148 -143
0 -279 -126 -358 -331 -38 -98 -53 -185 -53 -291 1 -77 -2 -92 -33 -156 -75
-157 -177 -203 -236 -108 -36 59 -49 162 -45 364 3 102 7 205 9 230 3 25 8 79
12 120 4 41 9 89 11 105 2 17 6 55 9 85 3 30 8 66 10 80 2 14 7 48 10 75 12
94 26 179 31 184 3 3 100 6 217 7 117 1 215 2 220 3 4 0 7 10 7 20 0 24 -17
26 -253 26 l-189 -1 7 66 c3 36 9 90 13 121 17 119 -5 170 -59 139z m709 -805
c17 -21 18 -32 11 -71 -12 -63 -69 -178 -124 -252 -48 -64 -167 -162 -173
-143 -7 21 29 175 59 252 31 79 91 182 125 210 41 35 76 37 102 4z"/>
<path d="M10145 4822 c-65 -12 -169 -86 -190 -136 -7 -17 -11 -34 -9 -37 2 -3
29 7 61 23 52 27 64 29 123 24 36 -3 76 -8 90 -11 25 -5 50 -8 163 -20 65 -7
77 -21 56 -63 -19 -36 -76 -120 -108 -157 -14 -17 -38 -46 -53 -65 -238 -307
-248 -319 -332 -378 -51 -36 -86 -84 -81 -110 2 -10 4 -20 4 -23 1 -4 8 -10
17 -13 25 -10 69 20 109 74 49 67 81 90 122 90 75 0 136 -52 167 -143 32 -94
29 -98 -91 -162 -217 -115 -350 -231 -414 -361 -31 -62 -34 -77 -34 -154 0
-94 13 -129 66 -180 41 -39 89 -53 158 -48 180 13 360 213 426 474 13 50 27
116 30 145 3 30 8 68 10 84 2 17 4 48 4 70 1 32 6 42 23 50 13 6 24 18 26 29
3 16 -1 18 -27 14 -18 -3 -31 0 -31 6 0 24 -59 133 -86 158 -44 41 -112 68
-173 68 l-54 0 20 23 c22 23 101 135 214 302 38 55 72 105 76 110 94 119 174
239 176 262 2 31 -5 32 -73 19 -60 -13 -153 -9 -218 8 -87 23 -143 33 -167 28z
m160 -1134 c-14 -144 -17 -173 -25 -194 -5 -13 -7 -24 -5 -24 2 0 0 -11 -5
-25 -5 -14 -12 -37 -14 -51 -16 -84 -96 -241 -157 -305 -81 -85 -201 -105
-264 -44 -48 46 -52 184 -7 277 54 117 210 258 392 357 41 22 78 41 81 41 4 0
5 -15 4 -32z"/>
<path d="M3787 4806 c-25 -19 -48 -99 -48 -167 -1 -113 29 -165 134 -236 26
-18 52 -44 57 -58 10 -26 7 -83 -9 -187 -53 -327 -19 -443 128 -440 79 2 160
56 231 155 18 26 36 47 40 47 4 0 17 -11 30 -25 69 -73 254 -80 379 -13 64 34
134 100 181 171 27 42 40 56 41 42 5 -116 60 -208 144 -240 89 -35 235 -20
323 31 84 49 173 152 218 251 10 23 23 43 27 43 5 0 6 -3 4 -7 -3 -5 -8 -44
-12 -88 -17 -207 -15 -223 25 -245 48 -26 87 41 125 211 8 37 48 170 77 254
40 120 88 214 121 239 26 19 28 19 45 3 13 -14 17 -35 18 -95 0 -42 -3 -95 -7
-117 -17 -96 -23 -156 -23 -250 -1 -83 3 -107 20 -140 58 -111 232 -107 325 6
83 101 158 292 172 435 4 43 -6 84 -21 84 -7 0 -30 -77 -37 -120 0 -3 -3 -9
-6 -15 -5 -8 -17 -52 -24 -85 -7 -36 -55 -156 -78 -195 -93 -157 -226 -169
-228 -20 -1 50 9 177 16 216 11 56 19 140 19 199 -1 107 -29 167 -89 187 -66
22 -135 -26 -218 -150 l-45 -67 -7 47 c-17 124 -61 212 -97 198 -28 -11 -40
-64 -53 -235 -8 -101 -10 -112 -56 -208 -104 -221 -242 -342 -394 -344 -80 -2
-135 36 -160 109 -27 78 -7 117 98 201 122 96 229 210 264 282 58 115 65 223
17 270 -22 23 -32 25 -102 24 -62 0 -85 -5 -117 -24 -83 -49 -160 -140 -218
-261 -28 -59 -67 -195 -67 -236 0 -74 -157 -280 -250 -328 -32 -17 -44 -20
-110 -34 -100 -21 -189 40 -204 138 -9 63 32 119 149 206 163 120 259 264 269
403 7 105 -35 148 -137 140 -111 -9 -203 -75 -285 -204 -31 -50 -80 -158 -88
-199 -20 -93 -25 -130 -26 -200 0 -74 5 -125 18 -168 7 -24 -51 -123 -103
-173 -62 -61 -135 -68 -162 -16 -9 18 -7 131 3 199 3 21 8 58 12 83 3 25 10
68 15 95 20 105 21 162 5 193 -22 43 -71 86 -128 114 -53 26 -51 21 -34 103
17 77 13 167 -8 200 -19 29 -68 34 -99 11z m69 -92 c8 -30 -1 -117 -14 -140
-14 -25 -52 60 -48 108 5 65 48 87 62 32z m869 -67 c0 -47 -9 -72 -53 -159
-29 -57 -67 -119 -85 -138 -33 -38 -138 -120 -152 -120 -4 0 -5 15 -1 33 3 17
8 49 12 71 25 163 144 376 217 389 44 7 62 -16 62 -76z m686 27 c14 -76 -103
-299 -197 -374 -66 -52 -68 -54 -90 -66 -20 -12 -20 -11 -9 50 22 111 47 190
87 274 42 86 104 158 142 165 31 5 60 -16 67 -49z"/>
<path d="M7903 4768 c-23 -25 -31 -48 -38 -99 -19 -150 4 -209 112 -286 35
-25 69 -57 74 -70 8 -22 5 -105 -6 -162 -26 -135 -35 -286 -21 -350 25 -110
134 -146 249 -83 49 26 114 95 155 162 19 32 88 201 97 240 3 8 11 40 19 70
21 78 24 150 7 150 -12 0 -41 -89 -57 -177 -5 -28 -59 -162 -90 -223 -82 -166
-197 -245 -252 -175 -26 33 -25 93 10 325 33 228 33 229 3 275 -26 40 -99 96
-143 109 -19 6 -22 13 -17 34 26 121 27 218 1 257 -22 33 -74 35 -103 3z m73
-83 c9 -34 -4 -136 -18 -151 -10 -9 -38 52 -43 91 -3 19 0 46 5 60 13 33 47
34 56 0z"/>
<path d="M8466 4760 c-46 -56 -53 -209 -12 -287 15 -29 79 -93 94 -93 14 0 62
-47 70 -71 11 -29 5 -123 -13 -209 -22 -104 -26 -265 -8 -318 21 -60 68 -94
130 -94 58 1 70 4 108 25 50 27 91 69 152 156 2 3 16 -8 32 -23 54 -52 145
-65 210 -32 34 18 104 93 126 136 l17 33 22 -40 c47 -90 99 -127 164 -119 121
14 204 134 277 401 45 164 52 215 31 215 -10 0 -21 -19 -31 -57 -36 -128 -88
-289 -97 -300 -6 -7 -8 -13 -5 -13 8 0 -50 -106 -72 -133 -20 -25 -69 -46 -92
-40 -48 13 -64 136 -45 348 14 144 14 177 1 227 -9 30 -10 62 -4 91 8 46 7 73
-6 119 -14 53 -107 77 -214 54 -150 -33 -287 -218 -337 -457 -17 -81 -23 -253
-10 -309 12 -51 12 -51 -18 -100 -51 -82 -119 -130 -182 -130 -7 0 -22 10 -33
21 -17 19 -20 33 -17 103 3 65 26 250 41 326 16 82 16 120 0 154 -21 44 -72
90 -132 119 -48 23 -49 26 -25 127 4 19 7 49 7 65 -1 17 -3 45 -3 63 -4 71
-80 97 -126 42z m80 -85 c7 -38 -1 -112 -15 -134 -15 -24 -46 37 -47 94 -2 54
8 75 37 75 13 0 20 -10 25 -35z m907 6 c40 -39 18 -105 -81 -249 -28 -41 -49
-79 -46 -86 3 -8 16 -18 30 -24 13 -7 24 -15 25 -19 0 -5 2 -16 4 -25 8 -43
-59 -293 -94 -348 -32 -51 -58 -72 -97 -77 -30 -4 -45 0 -65 16 -47 37 -68
176 -37 251 24 57 41 157 35 201 -4 31 2 59 25 117 63 155 102 213 172 250 43
23 101 20 129 -7z"/>
<path d="M10949 4736 c-97 -26 -186 -101 -250 -211 -27 -47 -67 -142 -74 -175
-2 -8 -8 -33 -13 -55 -36 -137 -30 -313 15 -399 40 -77 128 -117 209 -94 53
14 86 42 141 116 40 55 48 62 53 44 10 -40 70 -113 106 -128 62 -26 141 -2
197 61 51 56 106 188 158 378 31 116 37 171 17 165 -13 -4 -24 -35 -83 -233
-72 -240 -167 -357 -231 -287 -13 14 -24 30 -25 36 0 6 -2 20 -5 31 -7 33 -6
145 3 230 4 44 6 118 6 165 -1 47 -2 128 -3 180 -1 107 -11 141 -48 166 -32
21 -113 26 -173 10z m143 -47 c43 -23 21 -107 -59 -226 -79 -117 -79 -117 -38
-142 33 -19 34 -23 29 -63 -2 -24 -7 -54 -10 -68 -3 -14 -8 -36 -10 -50 -10
-54 -56 -184 -78 -219 -63 -100 -161 -95 -195 9 -22 70 -14 248 18 370 82 312
209 457 343 389z"/>
<path d="M1983 4485 c0 -33 2 -45 4 -27 2 18 2 45 0 60 -2 15 -4 0 -4 -33z"/>
<path d="M1769 4228 c-4 -10 -3 -166 1 -162 5 6 8 164 3 164 -2 0 -3 -1 -4 -2z"/>
<path d="M1769 4048 c-4 -10 -3 -246 1 -242 5 6 8 244 3 244 -2 0 -3 -1 -4 -2z"/>
<path d="M1763 3775 c0 -8 4 -12 9 -9 4 3 8 9 8 15 0 5 -4 9 -8 9 -5 0 -9 -7
-9 -15z"/>
<path d="M1765 3741 c-3 -5 -2 -12 3 -15 5 -3 9 1 9 9 0 17 -3 19 -12 6z"/>
</g>
</svg>
