<svg id="aprende" xmlns="http://www.w3.org/2000/svg" viewBox="0 0 359.0971 66.6036"><defs><style>.cls-1{fill:#fff;}</style></defs><title>aprende-logo</title><path class="cls-1" d="M10.4311,21.9878C4.6782,21.9878,0,18.8423,0,12.0933,0,5.83,4.2182,2.0455,10.7895,2.0455c2.582,0,5.3423.7417,6.5957.7417a14.84,14.84,0,0,1,.1538,1.6606,29.87,29.87,0,0,1-.3843,4.3467h-.8178c-.0249-3.8853-2.1475-5.3936-5.5982-5.3936-4.7558,0-7.5166,3.375-7.5166,8.6158,0,5.3432,3.2725,8.539,7.6441,8.539a5.3358,5.3358,0,0,0,5.6753-4.27h.7426a13.5632,13.5632,0,0,1-.8183,4.3213A12.1006,12.1006,0,0,1,10.4311,21.9878Z"/><path class="cls-1" d="M21.6289,13.6778c0-5.2158,3.9633-8.5654,9.0752-8.5654,5.3437,0,8.8471,3.4536,8.8471,8.3354,0,5.19-3.9887,8.54-9.05,8.54C25.1572,21.9878,21.6289,18.587,21.6289,13.6778Zm14.9052-.0513c0-3.6553-1.8667-7.2866-6.1362-7.2866-3.9116,0-5.7773,3.1206-5.7773,7.1079,0,3.7847,1.9423,7.3374,6.2119,7.3374C34.7441,20.7852,36.5341,17.4888,36.5341,13.6265Z"/><path class="cls-1" d="M43.2563,13.6778c0-5.2158,3.9634-8.5654,9.0767-8.5654,5.3427,0,8.8457,3.4536,8.8457,8.3354,0,5.19-3.9883,8.54-9.0508,8.54C46.7851,21.9878,43.2563,18.587,43.2563,13.6778Zm14.9058-.0513c0-3.6553-1.8662-7.2866-6.1358-7.2866-3.9121,0-5.7783,3.1206-5.7783,7.1079,0,3.7847,1.9424,7.3374,6.2119,7.3374C56.372,20.7852,58.1621,17.4888,58.1621,13.6265Z"/><path class="cls-1" d="M63.99,21.0162l1.1768-.1016c1.0234-.104,1.1767-.5889,1.1767-3.8354V10.0484c0-3.2471-.1787-3.6821-1.1767-3.7857L63.99,6.1358V5.5733c1.7666-.1021,5.2666-.1279,6.5449-.1279,4.1436,0,6.0869,1.4326,6.0869,4.1162a4.8549,4.8549,0,0,1-2.9922,4.27c2.2754,4.1157,3.9122,6.3916,5.0372,6.9023a2.8966,2.8966,0,0,0,1.33.2823v.5874c-2.1484.1792-3.1465.2558-3.5293.2558a1.7558,1.7558,0,0,1-.997-.3076c-.9971-.7412-2.3272-3.0669-3.5284-5.4443-.5625-1.1006-.7666-1.4058-1.6113-1.4058H69.0283V17.13c0,3.2725.1523,3.6807,1.2012,3.7847l1.3046.1016v.5874H63.99Zm7.4932-7.313c1.3281,0,2.3007-1.6865,2.3007-3.5283,0-2.0957-1.1259-3.5528-3.0175-3.5528a5.7393,5.7393,0,0,0-1.7383.3071v6.774Z"/><path class="cls-1" d="M82.167,21.0411l1.1767-.1265c1.0225-.104,1.1768-.5889,1.1768-3.8354V10.0484c0-3.2725-.18-3.7339-1.1768-3.8359L82.167,6.084V5.5479c3.6308-.0259,6.0087-.1025,8.1064-.1025,5.0361,0,9.8682,1.8667,9.8682,7.7216,0,4.9346-3.9121,8.4366-10.252,8.4366H82.167Zm5.0371-2.5562c0,1.6113.5625,2.0454,2.48,2.0454,4.2188,0,7.44-2.5053,7.44-7.0556,0-4.4239-2.583-6.8526-7.0577-6.8526a15.6181,15.6181,0,0,0-2.8632.3071Z"/><path class="cls-1" d="M102.9521,21.6036v-.5874l1.1758-.1016c1.0239-.104,1.1782-.5889,1.1782-3.8354V10.0484c0-3.2725-.18-3.7339-1.1782-3.8359l-1.1758-.1285V5.4966h7.4146V6.084l-1.1758.1285c-1.0488.102-1.1992.5634-1.1992,3.8359v7.0308c0,3.2465.15,3.7314,1.1992,3.8354l1.1758.1016v.5874Z"/><path class="cls-1" d="M113.3842,21.0162l1.1758-.0772c1.15-.0766,1.3555-.4341,1.3809-3.86l.0508-8.9229c0-1.2783-.6895-1.8418-1.8926-1.9683l-.7656-.104V5.4966h4.2949c.3828,0,.8945.4341,1.457.9971,2.6074,2.6851,6.5195,7.0308,9.5117,10.4819l.127-.0254-.1016-7.6186c-.0254-2.6846-.332-3.0171-1.3554-3.1191l-1.125-.1285V5.4966h6.3652V6.084l-.9961.1285c-1.1777.1538-1.33.69-1.33,3.8359V21.629a5.7425,5.7425,0,0,1-1.0742.205c-3.3731-4.1919-6.7734-7.9-11.5547-13.0131l-.1289.05.0508,8.2081c.0273,3.5029.2558,3.7832,1.3808,3.86l1.2286.0772v.5874h-6.6993Z"/><path class="cls-1" d="M143.8081,21.0162l.9472-.0264c1.0469-.0508,1.3789-.2813,1.3789-.8936a8.3387,8.3387,0,0,0-.664-2.2763l-.6406-1.6626c-1.5586,0-4.295.0522-5.6231.0522l-.5117,1.1748a10.9461,10.9461,0,0,0-.8692,2.66c0,.6128.5625.8437,2.25.9722v.5874h-6.291v-.5108c1.4082-.3076,1.8946-.6391,2.66-2.3271l6.1113-13.3711a1.53,1.53,0,0,1,.5352-.1011c1.0234,2.5039,5.42,13.2681,6.3418,14.6738a1.9934,1.9934,0,0,0,1.8144,1.0489v.5874h-7.4394Zm-1.6875-11.147h-.1543c-.3047.7417-1.9414,4.4238-2.25,5.1645l4.6308.0245C143.9624,14.2159,142.5034,10.7378,142.1206,9.8692Z"/><path class="cls-1" d="M153.0366,13.5757c0-5.2153,3.7324-8.4633,9.5117-8.4633,2.3262,0,4.7539.64,5.8535.64a7.4315,7.4315,0,0,1,.127,1.4058,31.8073,31.8073,0,0,1-.3067,3.6318h-.7656c-.0254-3.2227-1.8652-4.4751-4.8594-4.4751-4.1152,0-6.57,2.8887-6.57,7.2866,0,4.3218,2.7871,7.1074,6.6738,7.1074,2.9415,0,4.4239-1.5595,4.9356-3.5273H168.3a10.5029,10.5029,0,0,1-.7168,3.6294,10.9769,10.9769,0,0,1-5.2657,1.1772C157.1518,21.9878,153.0366,19.2789,153.0366,13.5757Z"/><path class="cls-1" d="M171.98,21.6036v-.5874l1.1758-.1016c1.0235-.104,1.1758-.5889,1.1758-3.8354V10.0484c0-3.2725-.1777-3.7339-1.1758-3.8359L171.98,6.084V5.4966h7.4161V6.084l-1.1778.1285c-1.0488.102-1.2011.5634-1.2011,3.8359v7.0308c0,3.2465.1523,3.7314,1.2011,3.8354l1.1778.1016v.5874Z"/><path class="cls-1" d="M182.2075,13.6778c0-5.2158,3.9638-8.5654,9.0762-8.5654,5.3427,0,8.8466,3.4536,8.8466,8.3354,0,5.19-3.9882,8.54-9.0507,8.54C185.7358,21.9878,182.2075,18.587,182.2075,13.6778Zm14.9053-.0513c0-3.6553-1.8663-7.2866-6.1358-7.2866-3.9111,0-5.7783,3.1206-5.7783,7.1079,0,3.7847,1.9434,7.3374,6.2129,7.3374C195.3237,20.7852,197.1128,17.4888,197.1128,13.6265Zm-9.0254-10.56A21.7721,21.7721,0,0,0,193.33,0h.1015a2.976,2.976,0,0,1,1.15,1.6368c0,.9463-4.6016,1.8921-6.4941,1.9433Z"/><path class="cls-1" d="M202.7631,21.0162l1.1758-.0772c1.15-.0766,1.3545-.4341,1.3789-3.86l.0528-8.9229c0-1.2783-.69-1.8418-1.8926-1.9683l-.7656-.104V5.4966h4.2949c.3828,0,.8945.4341,1.456.9971,2.6084,2.6851,6.52,7.0308,9.5108,10.4819l.1279-.0254-.1025-7.6186c-.0254-2.6846-.3321-3.0171-1.3545-3.1191L215.52,6.084V5.4966h6.3672V6.084l-.9981.1285c-1.1767.1538-1.3291.69-1.3291,3.8359V21.629a5.7729,5.7729,0,0,1-1.0742.205c-3.374-4.1919-6.7754-7.9-11.5557-13.0131l-.1279.05.0508,8.2081c.0254,3.5029.2549,3.7832,1.3808,3.86l1.2266.0772v.5874h-6.6973Z"/><path class="cls-1" d="M233.7983,12.0933c0-6.2637,4.27-10.0478,10.8408-10.0478,2.583,0,5.6768.7661,6.9541.7661a15.2921,15.2921,0,0,1,.128,1.6635,23.1818,23.1818,0,0,1-.3838,4.0909h-.7666c-.2295-3.6314-2.6075-5.1651-5.9834-5.1651-4.6787,0-7.5664,3.1441-7.5664,8.6158,0,5.3945,3.4511,8.539,7.6953,8.539,2.6591,0,4.0918-.895,4.0918-2.9136,0-3.6567-.2569-4.1943-1.3311-4.2719l-1.5088-.1011v-.665h7.9785v.6894l-.9726.0527c-1.125.0767-1.33.7413-1.33,3.9117a25.8675,25.8675,0,0,0,.1543,3.1445c-1.61.9717-4.8828,1.5854-7.5176,1.5854C238.53,21.9878,233.7983,18.8423,233.7983,12.0933Z"/><path class="cls-1" d="M257.14,21.6036v-.5874l1.1758-.1016c.998-.104,1.1767-.5889,1.1767-3.8354V10.0484c0-3.2725-.1787-3.7339-1.1767-3.8359L257.14,6.084V5.4966h11.1465a6.36,6.36,0,0,1,.0781.9971,14.19,14.19,0,0,1-.332,2.94h-.64c-.1279-1.7133-.5361-2.7866-2.48-2.7866a19.3572,19.3572,0,0,0-2.7354.2822v5.9825h1.124c2.4561,0,2.8135-.1543,3.1192-1.4575h.59l-.206,4.6787h-.5879l-.1778-.92c-.18-.9966-.5879-1.1758-2.8144-1.1758h-1.0469V17.002c0,3.3237.3574,3.5283,1.84,3.5283h1.1757c1.97,0,2.7364-.997,3.2481-2.71h.6387a15.7571,15.7571,0,0,1-.6133,3.7837Z"/><path class="cls-1" d="M272.0952,21.0162l1.1777-.0772c1.15-.0766,1.3545-.4341,1.3809-3.86l.0508-8.9229c0-1.2783-.6915-1.8418-1.8926-1.9683l-.7666-.104V5.4966H276.34c.3838,0,.8955.4341,1.457.9971,2.6074,2.6851,6.52,7.0308,9.5117,10.4819l.128-.0254-.1026-7.6186c-.0254-2.6846-.333-3.0171-1.3554-3.1191l-1.1241-.1285V5.4966H291.22V6.084l-.9981.1285c-1.1758.1538-1.3281.69-1.3281,3.8359V21.629a5.7729,5.7729,0,0,1-1.0742.205c-3.375-4.1919-6.7754-7.9-11.5567-13.0131l-.1269.05.0508,8.2081c.0254,3.5029.2558,3.7832,1.3808,3.86l1.2266.0772v.5874h-6.6992Z"/><path class="cls-1" d="M294.0307,21.6036v-.5874l1.1758-.1016c.999-.104,1.1777-.5889,1.1777-3.8354V10.0484c0-3.2725-.1787-3.7339-1.1777-3.8359l-1.1758-.1285V5.4966h11.1485a6.6081,6.6081,0,0,1,.0761.9971,14.1949,14.1949,0,0,1-.331,2.94h-.6406c-.127-1.7133-.5362-2.7866-2.4795-2.7866a19.34,19.34,0,0,0-2.7344.2822v5.9825h1.123c2.4551,0,2.8125-.1543,3.1192-1.4575h.59l-.2051,4.6787h-.59l-.1777-.92c-.1788-.9966-.5879-1.1758-2.8125-1.1758H299.07V17.002c0,3.3237.3564,3.5283,1.84,3.5283h1.1758c1.9678,0,2.7354-.997,3.2471-2.71h.6387a15.7584,15.7584,0,0,1-.6143,3.7837Z"/><path class="cls-1" d="M309.1665,21.0162l1.1767-.1016c1.0215-.104,1.1758-.5889,1.1758-3.8354V10.0484c0-3.2471-.18-3.6821-1.1758-3.7857l-1.1767-.1269V5.5733c1.7636-.1021,5.2666-.1279,6.5449-.1279,4.1416,0,6.0849,1.4326,6.0849,4.1162a4.8557,4.8557,0,0,1-2.9912,4.27c2.2754,4.1157,3.9112,6.3916,5.0362,6.9023a2.8991,2.8991,0,0,0,1.33.2823v.5874c-2.1484.1792-3.1445.2558-3.5283.2558a1.7557,1.7557,0,0,1-.997-.3076c-.9961-.7412-2.3272-3.0669-3.5274-5.4443-.5635-1.1006-.7676-1.4058-1.6123-1.4058h-1.3037V17.13c0,3.2725.1543,3.6807,1.2031,3.7847l1.3028.1016v.5874h-7.542Zm7.4912-7.313c1.3291,0,2.3008-1.6865,2.3008-3.5283,0-2.0957-1.125-3.5528-3.0157-3.5528a5.7538,5.7538,0,0,0-1.74.3071v6.774Z"/><path class="cls-1" d="M336.854,21.0162,337.8,20.99c1.0488-.0508,1.3808-.2813,1.3808-.8936a8.4156,8.4156,0,0,0-.664-2.2763l-.6407-1.6626c-1.56,0-4.2949.0522-5.623.0522l-.5127,1.1748a10.9766,10.9766,0,0,0-.8682,2.66c0,.6128.5625.8437,2.2481.9722v.5874h-6.2891v-.5108c1.4072-.3076,1.8936-.6391,2.6592-2.3271L335.602,5.3946a1.5285,1.5285,0,0,1,.5371-.1011c1.0225,2.5039,5.419,13.2681,6.3389,14.6738a1.9982,1.9982,0,0,0,1.8164,1.0489v.5874h-7.44Zm-1.6866-11.147h-.1543c-.3066.7417-1.9433,4.4238-2.25,5.1645l4.628.0245C337.0073,14.2159,335.5512,10.7378,335.1674,9.8692Z"/><path class="cls-1" d="M346.7212,21.6036v-.5874l1.1767-.1016c.9961-.104,1.1768-.5889,1.1768-3.8354V10.0484c0-3.2725-.1807-3.7339-1.1768-3.8359l-1.1767-.1285V5.4966h7.4658V6.084l-1.2266.1285c-1.0478.102-1.2012.5634-1.2012,3.8359v6.7485c0,3.4263.1787,3.7334,1.61,3.7334h1.8154c1.8154,0,2.709-1.4326,3.2725-3.247h.64a18.5686,18.5686,0,0,1-.64,4.32Z"/><path class="cls-1" d="M170.7143,51.8711c0-7.4609,4.5645-13.1269,12.6231-13.1567,5.0058,0,10.2627,2.896,10.2627,9.3164,0,4.5342-2.9913,8.8457-7.3975,8.8457a2.1747,2.1747,0,0,1-2.4551-1.9512l-.1572-.0307a5.3791,5.3791,0,0,1-3.7158,1.7939c-2.6758,0-3.7149-2.2661-3.7149-4.8486,0-3.8711,2.0469-7.4605,6.4551-7.4605a5.58,5.58,0,0,1,3.3047,1.04l.7549-.8184h1.0068c-.5976,3.8711-1.32,8.5923-1.32,9.2549,0,.5337.1563,1.0064.85,1.0064,2.1406,0,4.6895-2.4873,4.6895-6.8623,0-5.2564-4.0928-7.8062-8.6885-7.8062-6.6416.0317-10.8916,4.752-10.8916,11.584,0,6.2651,4.0605,9.7886,9.4433,9.7886a13.9686,13.9686,0,0,0,8.1211-2.833l.8829,1.1972a14.9389,14.9389,0,0,1-9.0352,3.1475C175.3745,63.0777,170.7143,58.7969,170.7143,51.8711Zm12.9082.8819.9112-5.4468a2.7051,2.7051,0,0,0-1.8877-.6279c-2.3926,0-3.62,2.4546-3.62,4.9726,0,1.5742.4092,2.7383,1.6993,2.7383A4.2512,4.2512,0,0,0,183.6225,52.753Z"/><path class="cls-1" d="M213.0424,50.55c0,6.0747-3.1162,9.0981-7.9961,9.0981a10.6479,10.6479,0,0,1-3.84-.6626v7.6182h-3.9346v-24.27h3.18l.5342,2.11.1572.03a6.8368,6.8368,0,0,1,5.1309-2.4233C210.6811,42.05,213.0424,45.9542,213.0424,50.55Zm-11.8359-3.2745v8.7193a8.0107,8.0107,0,0,0,3.18.7871c3.4316,0,4.5644-2.8023,4.5644-6.0747,0-3.4317-1.5117-5.667-3.6523-5.667A5.32,5.32,0,0,0,201.2065,47.2754Z"/><path class="cls-1" d="M216.56,59.3638v-17.03h3.211l.5351,2.6119h.2207c1.48-1.605,3.1787-2.8955,4.7529-2.8955a2.3383,2.3383,0,0,1,1.9834,1.039l-.913,3.2417a3.61,3.61,0,0,0-1.542-.3764c-1.418,0-3.211,1.6059-4.2188,2.6118V59.3638Z"/><path class="cls-1" d="M243.8159,58.4507a15.87,15.87,0,0,1-6.2012,1.1973c-4.5332,0-8.8144-2.2681-8.8144-8.5313,0-6.7373,3.871-9.0668,8.2148-9.0668,4.88,0,7.209,2.8022,7.209,7.3974,0,.41,0,.8823-.0313,1.2905H232.8921v.6612c0,3.8086,2.2666,5.2563,5.289,5.2563a17.2227,17.2227,0,0,0,5.2256-.9756ZM240.51,48.7232c0-2.9585-1.3848-4.06-3.3994-4.06-2.0459,0-3.7461,1.1953-4.0928,4.06Z"/><path class="cls-1" d="M247.7426,42.3335h3.3692l.4394,2.2032.2217.0307a7.8755,7.8755,0,0,1,5.6338-2.5175c3.5264,0,5.4775,2.3295,5.4775,6.4218V59.3638h-4.0293V49.1021c0-2.7075-1.039-3.84-2.8964-3.84a5.5714,5.5714,0,0,0-4.1856,2.2656V59.3638h-4.03Z"/><path class="cls-1" d="M266.1176,51.1773c0-6.1372,3.211-9.1274,7.9961-9.1274a11.4192,11.4192,0,0,1,3.8086.6606V35.1241h3.9346v24.24H278.71l-.5683-2.1094-.19-.0322a6.7606,6.7606,0,0,1-5.0977,2.4258C268.4467,59.648,266.1176,55.7735,266.1176,51.1773Zm11.8047,3.2451v-8.689a7.63,7.63,0,0,0-3.1806-.788c-3.43,0-4.5313,2.8022-4.5313,6.0747,0,3.4321,1.5108,5.6684,3.62,5.6684A5.3048,5.3048,0,0,0,277.9223,54.4224Z"/><path class="cls-1" d="M300.58,58.4507a15.8661,15.8661,0,0,1-6.2012,1.1973c-4.5332,0-8.8145-2.2681-8.8145-8.5313,0-6.7373,3.8711-9.0668,8.2158-9.0668,4.88,0,7.2081,2.8022,7.2081,7.3974,0,.41,0,.8823-.0313,1.2905h-11.3v.6612c0,3.8086,2.2666,5.2563,5.2881,5.2563a17.2451,17.2451,0,0,0,5.2265-.9756Zm-3.3057-9.7275c0-2.9585-1.3838-4.06-3.3994-4.06-2.0459,0-3.7461,1.1953-4.0918,4.06Z"/><path class="cls-1" d="M306.49,55.2076a2.2423,2.2423,0,0,1,2.36,2.2675,2.2064,2.2064,0,0,1-2.36,2.1729,2.18,2.18,0,0,1-2.33-2.1729A2.2171,2.2171,0,0,1,306.49,55.2076Z"/><path class="cls-1" d="M312.8452,42.3335h3.3691l.4082,2.2339.2207.0332a7.5964,7.5964,0,0,1,5.6016-2.5507,4.8126,4.8126,0,0,1,4.66,2.6757h.22a8.3072,8.3072,0,0,1,5.917-2.6757c3.8418,0,5.5722,2.4868,5.5722,6.4858V59.3638h-4.0293V49.1021c0-2.5811-.9121-3.84-2.833-3.84a5.0884,5.0884,0,0,0-4.0918,2.1411V59.3638h-4.0283V49.1021c0-2.5811-.9131-3.84-2.8027-3.84a5.3626,5.3626,0,0,0-4.1553,2.3286V59.3638h-4.0283Z"/><path class="cls-1" d="M353.25,50.33c1.5108,2.3926,1.9834,3.147,3.3995,5.0992a2.8546,2.8546,0,0,0,2.2343,1.2265v2.7085a10.8149,10.8149,0,0,1-1.8574.1572c-1.6045,0-2.3291-.5034-3.65-2.2358-1.165-1.5727-1.9531-2.896-3.0215-4.5962h-.1572c-.8506,1.2608-2.1728,3.3692-4.1875,6.6748h-4.3437c2.6123-4.0923,4.8779-7.3349,5.8545-8.7524-1.1651-1.7608-1.8262-2.8-3.0225-4.4058a2.5316,2.5316,0,0,0-2.0137-1.26V42.3335c.5977-.0322,1.0694-.0629,1.6045-.0629,1.7315,0,2.4551.3461,3.7461,2.1728,1.0078,1.4478,1.669,2.5171,2.55,3.8711h.1572c.5664-.9443,1.9532-3.0527,3.5889-5.981h4.2813C356.3667,45.7012,354.1313,49.0386,353.25,50.33Z"/></svg>