<svg id="plataforma" xmlns="http://www.w3.org/2000/svg" viewBox="0 0 239.2364 72.4399"><defs><style>.cls-1{fill:#fff;}</style></defs><title>plataforma</title><path class="cls-1" d="M31.0928,29.5971a11.6917,11.6917,0,0,0-2.5918,7.961q0,4.15,1.6152,6.2368c1.0811,1.3833,2.79,2.0854,5.1309,2.0854q7.5249,0,8.0508-10.0312l.4726-8.438a17.9121,17.9121,0,0,0-5.6933-.7813A8.8023,8.8023,0,0,0,31.0928,29.5971Z"/><path class="cls-1" d="M36.5909.5029C16.3887.5029,0,16.6084,0,36.4731,0,56.3335,16.3887,72.44,36.5909,72.44c20.205,0,36.5869-16.1064,36.5869-35.9668C73.1778,16.6084,56.7959.5029,36.5909.5029ZM57.3477,44.2563A8.2941,8.2941,0,0,1,50.1133,48.26a5.8951,5.8951,0,0,1-4.2617-1.5644,6.5352,6.5352,0,0,1-1.8994-4.2642h-.1279a9.28,9.28,0,0,1-3.6524,4.3667A10.5181,10.5181,0,0,1,34.5977,48.26a8.4068,8.4068,0,0,1-6.752-2.7939C26.25,43.5937,25.458,40.9809,25.458,37.61a13.3122,13.3122,0,0,1,3.5489-9.5742,12.25,12.25,0,0,1,9.2783-3.7251,32.48,32.48,0,0,1,8.4394,1.1812l-.6552,13.4624v.873a8.1157,8.1157,0,0,0,1.0342,4.5317,3.8237,3.8237,0,0,0,3.42,1.5215q3.0409,0,4.9658-3.3779a17.552,17.552,0,0,0,1.9365-8.8032,20.1525,20.1525,0,0,0-2.3291-9.857,15.8572,15.8572,0,0,0-6.6553-6.5131,20.9308,20.9308,0,0,0-9.8671-2.2676,24.1081,24.1081,0,0,0-11.9512,2.8818,19.7025,19.7025,0,0,0-7.9688,8.1646A25.67,25.67,0,0,0,15.878,38.2251q0,9.3324,4.9238,14.4189,4.9189,5.0917,13.9736,5.0957a30.303,30.303,0,0,0,5.56-.5254,41.353,41.353,0,0,0,6.8291-2.0273v2.8672a33.6706,33.6706,0,0,1-12.2129,2.32q-10.29,0-16.0391-5.8135-5.76-5.8052-5.7539-16.1641a27.6854,27.6854,0,0,1,3.2051-13.3506,22.6765,22.6765,0,0,1,9.0459-9.2011,26.6749,26.6749,0,0,1,13.2344-3.273A23.617,23.617,0,0,1,49.86,15.1479a17.97,17.97,0,0,1,7.5215,7.3765,22.7266,22.7266,0,0,1,2.6416,11.123Q60.0235,40.251,57.3477,44.2563Z"/><path class="cls-1" d="M91.3164,45.2827q-5.3583,0-7.8115-4.0117h-.1494l.0635,1.7924q.0849,1.58.0859,3.4576v8.8369H81.3926V21.6562h1.792l.4053,3.3076h.1289q2.3892-3.7558,7.6406-3.7558a8.6264,8.6264,0,0,1,7.16,3.0839q2.4652,3.0843,2.4648,8.9751,0,5.72-2.5928,8.8677A8.6758,8.6758,0,0,1,91.3164,45.2827Zm-.0429-1.878a6.4544,6.4544,0,0,0,5.5176-2.6464q1.951-2.6463,1.9531-7.4058,0-10.2231-7.3848-10.2236-4.0576,0-5.9551,2.23-1.9012,2.2317-1.8994,7.2676V33.31q0,5.4418,1.8252,7.7686T91.2735,43.4047Z"/><path class="cls-1" d="M116.544,21.208a18.1437,18.1437,0,0,1,3.1582.2988l-.4053,2.0278a12.3469,12.3469,0,0,0-3.0088-.3633,5.8437,5.8437,0,0,0-4.8662,2.5186,10.2659,10.2659,0,0,0-1.8994,6.3608V44.8564h-2.1133v-23.2h1.793l.2129,4.1836h.1494a9.8333,9.8333,0,0,1,3.0527-3.5962A7.1439,7.1439,0,0,1,116.544,21.208Z"/><path class="cls-1" d="M133.79,45.2827a10.1092,10.1092,0,0,1-7.8867-3.1153q-2.8272-3.1164-2.8282-8.73a13.6117,13.6117,0,0,1,2.7315-8.89,9.02,9.02,0,0,1,7.3642-3.34,7.9544,7.9544,0,0,1,6.4678,2.86,11.8193,11.8193,0,0,1,2.3682,7.77v1.707H125.295q.0424,4.7813,2.23,7.2993a7.85,7.85,0,0,0,6.2647,2.519,19.4716,19.4716,0,0,0,3.4892-.2778A21.2086,21.2086,0,0,0,141.09,41.89v1.9209a16.9765,16.9765,0,0,1-3.6289,1.1631A20.1758,20.1758,0,0,1,133.79,45.2827Zm-.6192-22.1963a6.9485,6.9485,0,0,0-5.3779,2.209,10.414,10.414,0,0,0-2.37,6.3711h14.3428a10.1237,10.1237,0,0,0-1.75-6.3077A5.7743,5.7743,0,0,0,133.1709,23.0864Z"/><path class="cls-1" d="M164.5879,44.8564V29.809q0-3.5-1.4726-5.09a5.9447,5.9447,0,0,0-4.5674-1.59q-4.1616,0-6.0938,2.102-1.9306,2.1036-1.9306,6.82V44.8564H148.41v-23.2h1.793l.4052,3.18h.128q2.2617-3.6277,8.0468-3.6279,7.8955,0,7.8965,8.4731V44.8564Z"/><path class="cls-1" d="M182.6875,21.208a9.6451,9.6451,0,0,1,4.3545.9174,8.672,8.672,0,0,1,3.2862,3.1377h.1289q-.129-2.6894-.1289-5.2719V11.646H192.42v33.21h-1.3868l-.5341-3.5435h-.1709a8.5828,8.5828,0,0,1-7.5977,3.97q-4.8018,0-7.3428-2.9873-2.5386-2.9883-2.54-8.7085,0-6.0183,2.5185-9.1988A8.7847,8.7847,0,0,1,182.6875,21.208Zm0,1.9209a6.5669,6.5669,0,0,0-5.71,2.6674q-1.91,2.669-1.9092,7.7481,0,9.8605,7.6621,9.86,3.9258,0,5.7627-2.2832,1.8354-2.2836,1.835-7.5346v-.3623q0-5.379-1.8028-7.7378Q186.7207,23.1291,182.6875,23.1289Z"/><path class="cls-1" d="M209.58,45.2827a10.1072,10.1072,0,0,1-7.8857-3.1153q-2.8287-3.1164-2.8291-8.73a13.612,13.612,0,0,1,2.7324-8.89,9.0184,9.0184,0,0,1,7.3633-3.34,7.95,7.95,0,0,1,6.4668,2.86,11.8091,11.8091,0,0,1,2.3691,7.77v1.707H201.085q.044,4.7813,2.2305,7.2993a7.8493,7.8493,0,0,0,6.2646,2.519,19.4569,19.4569,0,0,0,3.4893-.2778,21.1836,21.1836,0,0,0,3.81-1.1953v1.9209a16.9853,16.9853,0,0,1-3.6279,1.1631A20.1872,20.1872,0,0,1,209.58,45.2827Zm-.6191-22.1963a6.9487,6.9487,0,0,0-5.378,2.209,10.4082,10.4082,0,0,0-2.3691,6.3711h14.3428a10.1174,10.1174,0,0,0-1.751-6.3077A5.774,5.774,0,0,0,208.961,23.0864Z"/><path class="cls-1" d="M219.376,17.1909H207.9034V15.13l4.3642-4.3872a37.1818,37.1818,0,0,0,2.5645-2.8071,6.7392,6.7392,0,0,0,.92-1.5571,4.2085,4.2085,0,0,0,.29-1.5625,2.3844,2.3844,0,0,0-.6894-1.8062,2.64,2.64,0,0,0-1.9033-.66,5.0875,5.0875,0,0,0-1.8819.3584,8.8161,8.8161,0,0,0-2.1015,1.2968l-1.47-1.7944a9.4956,9.4956,0,0,1,2.7432-1.69,8.0433,8.0433,0,0,1,2.8369-.4976,5.58,5.58,0,0,1,3.7852,1.2334,4.1632,4.1632,0,0,1,1.4238,3.3159,5.8334,5.8334,0,0,1-.4111,2.1768,8.8566,8.8566,0,0,1-1.2618,2.124,28.7914,28.7914,0,0,1-2.831,2.958l-2.9395,2.8477v.1157h8.0342Z"/><path class="cls-1" d="M221.8389,15.7441a1.7823,1.7823,0,0,1,.44-1.2969,1.7,1.7,0,0,1,1.2744-.4512,1.6749,1.6749,0,0,1,1.2842.4683,1.7931,1.7931,0,0,1,.44,1.28,1.8446,1.8446,0,0,1-.4453,1.3018,1.9452,1.9452,0,0,1-2.5537.0053A1.8483,1.8483,0,0,1,221.8389,15.7441Z"/><path class="cls-1" d="M239.2364,8.728q0,4.4114-1.419,6.5527a5.355,5.355,0,0,1-8.6181-.0693A11.8249,11.8249,0,0,1,227.74,8.728q0-4.4788,1.4179-6.6035a5.3591,5.3591,0,0,1,8.6182.0976A11.9094,11.9094,0,0,1,239.2364,8.728Zm-8.74,0a12.3373,12.3373,0,0,0,.7119,4.9438,2.4876,2.4876,0,0,0,4.5606-.0239,12.17,12.17,0,0,0,.7236-4.92,12.2667,12.2667,0,0,0-.7236-4.9253,2.4781,2.4781,0,0,0-4.5606-.0288A12.4227,12.4227,0,0,0,230.4961,8.728Z"/></svg>