<?xml version="1.0" standalone="no"?>
<!DOCTYPE svg PUBLIC "-//W3C//DTD SVG 20010904//EN"
 "http://www.w3.org/TR/2001/REC-SVG-20010904/DTD/svg10.dtd">
<svg version="1.0" xmlns="http://www.w3.org/2000/svg"
 width="900.000000pt" height="900.000000pt" viewBox="0 0 900.000000 900.000000"
 preserveAspectRatio="xMidYMid meet">
<metadata>
Created by potrace 1.11, written by Peter Selinger 2001-2013
</metadata>
<g transform="translate(0.000000,900.000000) scale(0.100000,-0.100000)"
fill="#000000" stroke="none">
<path d="M4215 8489 c-1142 -91 -2155 -628 -2856 -1514 -777 -984 -1046 -2280
-724 -3500 252 -958 869 -1805 1705 -2340 1189 -762 2688 -842 3948 -211 783
392 1401 1012 1795 1802 554 1109 554 2439 0 3548 -311 623 -763 1143 -1328
1528 -519 354 -1123 585 -1730 662 -276 35 -572 44 -810 25z m871 -1354 c958
-111 1658 -707 1889 -1609 65 -253 79 -385 80 -711 0 -226 -4 -316 -18 -410
-118 -794 -532 -1246 -1111 -1212 -56 3 -126 13 -156 23 -165 49 -303 164
-378 314 -41 84 -82 218 -82 270 0 51 -14 40 -59 -48 -122 -235 -304 -400
-539 -488 -149 -56 -234 -69 -437 -68 -162 1 -190 3 -279 27 -194 52 -313 125
-442 269 -198 222 -295 596 -264 1016 18 239 56 392 145 579 71 150 147 256
274 384 187 186 381 290 651 350 199 43 557 36 869 -17 129 -22 367 -76 376
-86 2 -1 -10 -273 -27 -603 -17 -335 -31 -732 -31 -900 -2 -282 -1 -305 21
-389 44 -174 131 -292 247 -335 237 -89 486 -16 650 189 188 234 293 579 311
1015 17 432 -60 824 -230 1160 -182 361 -431 609 -793 792 -211 107 -416 169
-708 215 -126 19 -551 16 -710 -6 -309 -42 -533 -107 -783 -226 -659 -315
-1099 -906 -1252 -1680 -47 -237 -54 -323 -55 -650 0 -329 8 -415 56 -649 143
-697 563 -1189 1191 -1395 248 -82 487 -117 805 -117 416 0 773 66 1203 222
74 27 140 49 147 49 11 0 13 -33 11 -156 l-3 -157 -140 -49 c-251 -88 -548
-155 -840 -190 -142 -16 -567 -16 -710 0 -649 77 -1121 306 -1475 718 -353
411 -528 923 -547 1604 -12 451 51 864 192 1247 48 129 179 395 250 508 406
644 1066 1066 1854 1185 267 41 576 46 847 15z"/>
<path d="M4475 5581 c-319 -52 -569 -239 -719 -538 -87 -174 -126 -347 -133
-598 -9 -288 21 -471 104 -645 82 -170 205 -269 400 -321 107 -29 323 -31 438
-5 294 67 494 271 591 606 57 193 69 297 99 855 13 253 27 485 29 516 l5 56
-77 21 c-155 42 -251 54 -472 57 -118 2 -237 0 -265 -4z"/>
</g>
</svg>
